<?xml version="1.0" encoding="UTF-8" standalone="no"?>
<!DOCTYPE svg PUBLIC "-//W3C//DTD SVG 1.1//EN" "http://www.w3.org/Graphics/SVG/1.1/DTD/svg11.dtd" >
<svg xmlns="http://www.w3.org/2000/svg">
<metadata>
This is a SVG font generated by e-font.
</metadata>
<defs>
<font id="AkkuratNestWebBold" horiz-adv-x="533" >
<font-face units-per-em="1000" ascent="968" descent="-245" />
<missing-glyph horiz-adv-x="533" />
<glyph unicode="&#x20;" horiz-adv-x="209" />
<glyph unicode="&#x21;" horiz-adv-x="304" d="M235 487L235 709L104 709L104 487L132 212L207 212ZM236 0L236 133L104 133L104 0Z"/>
<glyph unicode="&#x22;" horiz-adv-x="497" d="M429 563L429 710L296 710L296 563L321 392L404 392ZM201 563L201 710L68 710L68 563L93 392L176 392Z"/>
<glyph unicode="&#x23;" horiz-adv-x="730" d="M686 413L686 512L565 512L591 695L487 695L460 512L322 512L348 695L244 695L217 512L81 512L81 413L203 413L185 282L49 282L49 184L170 184L144 0L249 0L275 184L413 184L387 0L492 0L518 184L654 184L654 282L533 282L550 413ZM446 413L428 282L290 282L308 413Z"/>
<glyph unicode="&#x24;" horiz-adv-x="542" d="M538 217C538 330 454 394 352 410L318 415L318 598C341 592 362 582 376 567C392 550 406 523 407 499L530 499C528 554 501 605 461 642C424 676 374 697 318 704L318 799L245 799L245 706C178 700 122 673 83 634C47 599 22 555 22 502C22 400 88 331 196 314C212 311 229 309 245 307L245 109C215 112 187 122 164 144C143 164 128 194 127 228L4 228C5 165 35 110 75 74C124 29 182 8 245 3L245 -87L318 -87L318 4C383 11 440 35 481 77C514 111 538 154 538 217ZM417 212C417 179 405 159 389 143C371 125 347 115 318 110L318 296L335 293C378 285 417 263 417 212ZM245 425C235 426 225 428 215 430C173 437 144 459 144 505C144 531 155 553 171 568C191 587 218 597 245 601Z"/>
<glyph unicode="&#x25;" horiz-adv-x="876" d="M840 182C840 226 833 267 809 302C778 347 733 374 668 374C603 374 558 347 527 302C503 267 496 226 496 182C496 138 503 97 527 62C558 17 603 -10 668 -10C733 -10 778 17 809 62C833 97 840 138 840 182ZM729 670L653 723L148 36L222 -20ZM375 527C375 571 368 612 344 647C313 692 268 719 203 719C138 719 93 692 62 647C38 612 31 571 31 527C31 483 38 442 62 407C93 362 138 335 203 335C268 335 313 362 344 407C368 442 375 483 375 527ZM741 182C741 128 730 76 668 76C606 76 595 128 595 182C595 236 606 288 668 288C730 288 741 236 741 182ZM276 527C276 473 265 421 203 421C141 421 130 473 130 527C130 581 141 633 203 633C265 633 276 581 276 527Z"/>
<glyph unicode="&#x26;" horiz-adv-x="714" d="M690 -1C646 46 604 93 559 141C589 188 599 245 602 300L684 300L684 399L501 399C501 377 501 344 499 312C497 279 493 247 481 225L358 359C436 404 492 457 492 549C492 660 399 724 296 724C189 724 102 657 102 545C102 479 133 440 178 391C103 345 52 284 52 196C52 63 161 -19 287 -19C360 -19 431 5 488 55L538 -1ZM375 544C375 485 328 462 284 438C255 468 217 501 217 547C217 596 255 621 296 621C341 621 375 593 375 544ZM413 134C382 100 336 90 294 90C227 90 167 128 167 201C167 261 204 285 251 313C306 253 358 194 413 134Z"/>
<glyph unicode="&#x27;" horiz-adv-x="249" d="M191 563L191 710L58 710L58 563L83 392L166 392Z"/>
<glyph unicode="&#x28;" horiz-adv-x="300" d="M304 -115C202 22 155 134 155 317C155 500 202 612 304 749L233 802C113 664 51 508 51 317C51 126 113 -30 233 -168Z"/>
<glyph unicode="&#x29;" horiz-adv-x="300" d="M249 317C249 508 187 664 67 802L-4 749C98 612 145 500 145 317C145 134 98 22 -4 -115L67 -168C187 -30 249 126 249 317Z"/>
<glyph unicode="&#x2a;" horiz-adv-x="497" d="M471 506L437 612L291 551L302 712L194 713L204 552L59 612L26 506L177 466L77 340L164 275L249 415L333 276L420 341L320 466Z"/>
<glyph unicode="&#x2b;" horiz-adv-x="651" d="M610 255L610 362L382 362L382 596L269 596L269 362L41 362L41 255L269 255L269 5L382 5L382 255Z"/>
<glyph unicode="&#x2c;" horiz-adv-x="264" d="M208 12L208 156L56 156L56 0L131 0C131 -54 120 -85 62 -112L97 -170C185 -133 208 -75 208 12Z"/>
<glyph unicode="&#x2d;" horiz-adv-x="435" d="M389 252L389 364L46 364L46 252Z"/>
<glyph unicode="&#x2e;" horiz-adv-x="265" d="M208 0L208 156L56 156L56 0Z"/>
<glyph unicode="&#x2f;" horiz-adv-x="361" d="M385 722L293 722L-14 -13L78 -13Z"/>
<glyph unicode="&#x30;" horiz-adv-x="542" d="M516 348C516 462 505 578 433 647C397 682 346 708 271 708C196 708 145 682 109 647C37 578 26 462 26 348C26 234 37 118 109 49C145 14 196 -13 271 -13C346 -13 397 14 433 49C505 118 516 234 516 348ZM389 348C389 258 400 103 271 103C142 103 153 258 153 348C153 438 142 593 271 593C400 593 389 438 389 348Z"/>
<glyph unicode="&#x31;" horiz-adv-x="542" d="M380 0L380 695L273 695L102 572L102 436L255 547L255 0Z"/>
<glyph unicode="&#x32;" horiz-adv-x="542" d="M492 0L492 113L214 113L406 343C445 390 482 451 482 513C482 635 387 708 268 708C125 708 47 621 46 499L174 499C174 554 208 599 267 599C324 599 355 561 355 512C355 484 343 451 319 423L48 100L48 0Z"/>
<glyph unicode="&#x33;" horiz-adv-x="542" d="M502 199C502 271 460 342 388 362C451 384 488 448 488 511C488 631 392 708 266 708C139 708 35 636 33 505L159 505C160 568 204 599 266 599C321 599 361 558 361 508C361 443 322 415 254 415L202 415L202 306L254 306C319 306 376 273 376 201C376 135 328 97 266 97C205 97 159 133 154 201L29 201C33 71 137 -13 265 -13C396 -13 502 60 502 199Z"/>
<glyph unicode="&#x34;" horiz-adv-x="542" d="M536 140L536 253L448 253L448 416L323 416L323 253L145 253L404 695L268 695L13 258L13 140L323 140L323 0L448 0L448 140Z"/>
<glyph unicode="&#x35;" horiz-adv-x="542" d="M519 236C519 368 444 469 304 469C242 469 198 454 166 424L174 583L488 583L488 695L66 695L51 303L174 303C196 338 237 359 278 359C358 359 392 306 392 233C392 158 362 97 278 97C212 97 164 134 161 203L36 203C43 72 139 -14 277 -14C432 -14 519 89 519 236Z"/>
<glyph unicode="&#x36;" horiz-adv-x="542" d="M521 229C521 370 442 466 292 466C250 466 191 452 160 415C160 476 170 539 208 574C225 590 244 602 277 602C311 602 335 594 351 577C364 564 373 545 375 524L501 524C501 565 481 615 442 652C406 686 354 708 283 708C200 708 151 679 113 639C42 563 36 438 36 336C36 292 39 251 47 206C68 81 150 -13 282 -13C440 -13 521 93 521 229ZM394 234C394 153 357 99 282 99C208 99 172 158 172 234C172 307 213 364 280 364C357 364 394 306 394 234Z"/>
<glyph unicode="&#x37;" horiz-adv-x="542" d="M512 595L512 695L33 695L33 583L378 583L106 0L241 0Z"/>
<glyph unicode="&#x38;" horiz-adv-x="542" d="M511 195C511 264 476 330 410 361C461 389 497 452 497 511C497 642 392 708 271 708C150 708 45 642 45 511C45 452 81 389 132 361C66 330 31 264 31 195C31 60 146 -14 271 -14C396 -14 511 60 511 195ZM371 509C371 458 337 416 271 416C205 416 171 458 171 509C171 560 204 599 271 599C337 599 371 560 371 509ZM385 203C385 139 339 97 271 97C203 97 157 139 157 203C157 260 197 306 271 306C345 306 385 260 385 203Z"/>
<glyph unicode="&#x39;" horiz-adv-x="542" d="M508 360C508 404 505 445 497 490C476 615 394 708 262 708C104 708 23 603 23 467C23 326 102 230 252 230C294 230 353 244 384 281C384 220 374 157 336 122C319 106 300 94 267 94C233 94 209 102 193 119C180 132 171 151 169 172L43 172C43 131 63 81 102 44C138 10 190 -13 261 -13C344 -13 393 17 431 57C502 133 508 258 508 360ZM372 462C372 389 331 332 264 332C187 332 150 390 150 462C150 543 187 597 262 597C336 597 372 538 372 462Z"/>
<glyph unicode="&#x3a;" horiz-adv-x="293" d="M231 369L231 520L80 520L80 369ZM231 0L231 151L80 151L80 0Z"/>
<glyph unicode="&#x3b;" horiz-adv-x="293" d="M231 369L231 520L80 520L80 369ZM231 12L231 151L80 151L80 0L155 0C155 -53 142 -85 86 -111L121 -169C209 -132 231 -75 231 12Z"/>
<glyph unicode="&#x3c;" horiz-adv-x="438" d="M337 645L16 323L338 0L407 68L153 322L407 575Z"/>
<glyph unicode="&#x3d;" horiz-adv-x="662" d="M586 328L586 426L76 426L76 328ZM586 129L586 228L76 228L76 129Z"/>
<glyph unicode="&#x3e;" horiz-adv-x="438" d="M31 575L285 322L31 68L100 0L422 323L101 645Z"/>
<glyph unicode="&#x3f;" horiz-adv-x="494" d="M480 529C480 639 389 725 258 725C125 725 18 652 18 512L147 512C147 577 190 612 253 612C316 612 350 572 350 528C350 496 330 473 311 456C264 413 206 387 187 299C181 270 182 231 182 202L306 202L306 230C306 305 349 326 401 370C447 409 480 459 480 529ZM313 0L313 140L174 140L174 0Z"/>
<glyph unicode="&#x40;" horiz-adv-x="899" d="M860 384C860 608 688 722 479 722C229 722 56 563 56 323C56 94 208 -77 451 -77C543 -77 621 -66 699 -37L699 59C608 27 529 21 452 21C278 21 166 149 166 315C166 500 285 626 480 626C641 626 753 543 753 382C753 352 749 321 740 293C727 253 693 207 654 207C634 207 625 225 627 254L645 508L553 508L539 455C526 497 479 519 438 519C323 519 265 421 265 311C265 210 314 116 427 116C475 116 519 137 545 183C565 128 602 114 646 114C797 114 860 268 860 384ZM532 331C532 267 511 209 446 209C395 209 375 258 375 311C375 369 399 430 457 430C512 430 532 387 532 331Z"/>
<glyph unicode="&#x41;" horiz-adv-x="611" d="M625 0L376 709L235 709L-14 0L116 0L162 136L444 136L490 0ZM404 252L202 252L303 551Z"/>
<glyph unicode="&#x42;" horiz-adv-x="636" d="M612 206C612 272 577 335 510 366C570 393 597 458 597 516C597 577 567 636 515 670C467 701 408 709 351 709L69 709L69 -1L351 -1C419 -1 485 5 540 47C591 86 612 143 612 206ZM466 508C466 441 417 420 359 420L197 420L197 598L356 598C414 598 466 576 466 508ZM481 209C481 137 416 115 356 115L197 115L197 312L360 312C428 312 481 285 481 209Z"/>
<glyph unicode="&#x43;" horiz-adv-x="600" d="M586 226L454 226C451 195 440 170 422 148C399 119 359 103 315 103C274 103 234 120 206 150C157 201 157 289 157 354C157 419 157 507 206 558C234 588 274 605 315 605C359 605 399 590 422 561C440 539 451 517 454 486L586 486C580 542 559 598 518 640C465 694 391 722 315 722C239 722 168 696 114 642C37 565 26 470 26 354C26 238 37 143 114 66C168 12 239 -13 315 -13C391 -13 465 17 518 71C559 113 580 170 586 226Z"/>
<glyph unicode="&#x44;" horiz-adv-x="656" d="M627 355C627 453 617 558 544 633C497 682 426 709 345 709L69 709L69 0L345 0C426 0 497 27 544 76C617 151 627 257 627 355ZM496 355C496 290 495 206 445 156C421 132 386 116 345 116L198 116L198 593L345 593C386 593 421 577 445 553C495 503 496 420 496 355Z"/>
<glyph unicode="&#x45;" horiz-adv-x="600" d="M574 0L574 117L198 117L198 311L529 311L529 427L198 427L198 592L574 592L574 709L69 709L69 0Z"/>
<glyph unicode="&#x46;" horiz-adv-x="560" d="M559 592L559 709L69 709L69 0L198 0L198 285L520 285L520 402L198 402L198 592Z"/>
<glyph unicode="&#x47;" horiz-adv-x="656" d="M607 0L607 388L313 388L313 281L482 281C482 227 474 183 436 143C412 118 376 102 330 102C289 102 243 117 215 147C166 198 159 289 159 354C159 419 165 507 214 558C242 588 289 606 330 606C379 606 418 592 443 563C458 545 472 526 474 498L606 498C602 560 576 605 541 641C493 690 418 722 331 722C255 722 174 693 120 639C43 562 28 470 28 354C28 238 46 143 120 66C176 7 249 -14 331 -13C420 -12 488 37 509 78L524 0Z"/>
<glyph unicode="&#x48;" horiz-adv-x="687" d="M618 0L618 709L489 709L489 432L198 432L198 709L69 709L69 0L198 0L198 309L489 309L489 0Z"/>
<glyph unicode="&#x49;" horiz-adv-x="269" d="M200 0L200 709L69 709L69 0Z"/>
<glyph unicode="&#x4a;" horiz-adv-x="463" d="M414 207L414 709L285 709L285 197C285 139 257 101 199 101C173 101 151 112 137 127C115 151 111 187 111 222L-14 222C-14 145 6 87 48 44C83 8 132 -14 199 -14C335 -14 414 73 414 207Z"/>
<glyph unicode="&#x4b;" horiz-adv-x="650" d="M664 0L410 441L638 709L481 709L198 382L198 709L69 709L69 0L198 0L198 192L320 335L512 0Z"/>
<glyph unicode="&#x4c;" horiz-adv-x="522" d="M527 0L527 122L198 122L198 709L69 709L69 0Z"/>
<glyph unicode="&#x4d;" horiz-adv-x="850" d="M781 0L781 709L616 709L429 204L243 709L69 709L69 0L194 0L194 512L377 10L472 10L656 506L656 0Z"/>
<glyph unicode="&#x4e;" horiz-adv-x="705" d="M636 0L636 709L509 709L509 229L206 709L69 709L69 0L196 0L196 487L503 0Z"/>
<glyph unicode="&#x4f;" horiz-adv-x="644" d="M616 354C616 470 603 565 526 642C472 696 398 722 322 722C246 722 172 696 118 642C41 565 28 470 28 354C28 238 41 144 118 67C172 13 246 -13 322 -13C398 -13 472 13 526 67C603 144 616 238 616 354ZM485 354C485 289 483 202 434 151C406 121 363 104 322 104C281 104 238 121 210 151C161 202 159 289 159 354C159 419 161 507 210 558C238 588 281 605 322 605C363 605 406 588 434 558C483 507 485 419 485 354Z"/>
<glyph unicode="&#x50;" horiz-adv-x="596" d="M597 482C597 618 510 709 347 709L69 709L69 0L197 0L197 254L347 254C510 254 597 346 597 482ZM467 481C467 413 428 367 342 367L197 367L197 596L342 596C428 596 467 549 467 481Z"/>
<glyph unicode="&#x51;" horiz-adv-x="644" d="M616 354C616 470 603 565 526 642C472 696 398 722 322 722C246 722 172 696 118 642C41 565 28 470 28 354C28 238 41 144 118 67C172 13 246 -13 322 -13C365 -13 407 -5 446 12L512 -70L589 -10L527 68C603 145 616 238 616 354ZM485 354C485 296 483 220 448 168L370 267L292 206L368 111C353 106 337 104 322 104C281 104 238 121 210 151C161 202 159 289 159 354C159 419 161 507 210 558C238 588 281 605 322 605C363 605 406 588 434 558C483 507 485 419 485 354Z"/>
<glyph unicode="&#x52;" horiz-adv-x="631" d="M614 0L484 290C562 319 614 394 614 489C614 603 537 709 368 709L69 709L69 0L199 0L199 268L356 268L474 0ZM485 489C485 422 443 384 370 384L198 384L198 596L368 596C441 596 485 546 485 489Z"/>
<glyph unicode="&#x53;" horiz-adv-x="604" d="M585 211C585 332 496 401 390 416C344 422 281 427 236 434C194 441 164 465 164 511C164 537 173 555 188 571C217 601 263 610 303 610C341 610 388 596 411 572C428 554 441 527 442 502L574 502C573 561 544 613 502 653C454 698 380 722 304 722C221 722 143 693 96 647C59 610 34 563 34 507C34 389 116 325 214 309C261 301 323 299 371 290C415 282 455 258 455 206C455 172 443 155 427 138C400 110 353 100 304 100C263 100 215 108 185 138C164 159 148 190 148 225L16 225C16 158 48 98 90 60C148 7 227 -13 302 -13C389 -13 472 9 526 63C561 98 585 145 585 211Z"/>
<glyph unicode="&#x54;" horiz-adv-x="533" d="M541 589L541 709L-8 709L-8 589L202 589L202 0L331 0L331 589Z"/>
<glyph unicode="&#x55;" horiz-adv-x="654" d="M605 272L605 709L476 709L476 274C476 173 430 104 327 104C224 104 178 173 178 274L178 709L49 709L49 272C49 103 144 -13 327 -13C510 -13 605 103 605 272Z"/>
<glyph unicode="&#x56;" horiz-adv-x="582" d="M596 709L466 709L295 168L123 709L-14 709L221 0L363 0Z"/>
<glyph unicode="&#x57;" horiz-adv-x="844" d="M841 709L723 709L622 216L479 698L371 698L225 216L126 709L3 709L146 0L275 0L423 489L571 0L700 0Z"/>
<glyph unicode="&#x58;" horiz-adv-x="575" d="M587 0L366 360L584 709L444 709L290 461L131 709L-10 709L211 361L-12 0L127 0L286 258L445 0Z"/>
<glyph unicode="&#x59;" horiz-adv-x="596" d="M610 709L476 709L301 403L126 709L-14 709L232 272L232 0L362 0L362 272Z"/>
<glyph unicode="&#x5a;" horiz-adv-x="587" d="M570 0L570 117L177 117L565 582L565 709L21 709L21 592L406 592L15 127L15 0Z"/>
<glyph unicode="&#x5b;" horiz-adv-x="335" d="M324 -148L324 -63L184 -63L184 695L324 695L324 780L90 780L90 -148Z"/>
<glyph unicode="&#x5c;" horiz-adv-x="361" d="M375 -13L68 722L-24 722L283 -13Z"/>
<glyph unicode="&#x5d;" horiz-adv-x="335" d="M245 -148L245 780L11 780L11 695L151 695L151 -63L11 -63L11 -148Z"/>
<glyph unicode="&#x5e;" horiz-adv-x="510" d="M474 404L305 722L206 722L36 404L169 404L253 567L336 404Z"/>
<glyph unicode="&#x5f;" horiz-adv-x="559" d="M549 -90L549 -2L10 -2L10 -90Z"/>
<glyph unicode="&#x60;" horiz-adv-x="227" d="M229 631L45 769L-11 678L189 566Z"/>
<glyph unicode="&#x61;" horiz-adv-x="534" d="M517 6L517 98C517 98 509 96 501 96C480 96 472 105 472 129L472 322C472 357 470 394 457 427C427 505 351 533 262 533C146 533 53 481 46 364L167 364C170 412 204 438 262 438C333 438 350 405 350 356L350 324L197 313C98 306 21 249 21 150C21 65 85 -13 209 -13C283 -13 343 23 367 65C371 26 401 -8 455 -8C485 -8 496 -3 517 6ZM350 207C350 130 295 88 217 88C178 88 143 113 143 153C143 195 180 218 218 221L350 231Z"/>
<glyph unicode="&#x62;" horiz-adv-x="573" d="M545 259C545 361 514 440 452 491C420 517 378 533 325 533C263 533 213 511 189 482L189 722L64 722L64 0L172 0L180 57C211 9 269 -12 326 -12C378 -12 420 6 452 32C514 83 545 161 545 259ZM418 261C418 216 411 168 385 134C367 111 340 93 301 93C269 93 245 103 228 119C192 152 183 210 183 261C183 336 203 428 301 428C340 428 367 410 385 387C411 353 418 306 418 261Z"/>
<glyph unicode="&#x63;" horiz-adv-x="503" d="M484 184L361 184C360 165 354 149 346 136C331 113 304 97 266 97C232 97 207 112 190 130C160 163 155 212 155 261C155 310 160 360 190 393C207 411 232 425 266 425C304 425 331 409 346 386C354 373 360 357 361 338L484 338C482 379 468 420 444 451C408 496 345 533 266 533C187 533 121 495 85 451C46 402 28 337 28 261C28 185 46 120 85 71C121 27 187 -11 266 -11C345 -11 408 26 444 71C468 102 482 143 484 184Z"/>
<glyph unicode="&#x64;" horiz-adv-x="573" d="M509 0L509 722L384 722L384 484C362 511 314 533 248 533C195 533 153 517 121 491C59 440 28 361 28 259C28 161 58 83 120 32C152 6 195 -12 247 -12C304 -12 362 9 393 57L401 0ZM390 261C390 186 370 93 272 93C233 93 206 111 188 134C162 168 155 216 155 261C155 306 162 353 188 387C206 410 233 428 272 428C370 428 390 336 390 261Z"/>
<glyph unicode="&#x65;" horiz-adv-x="529" d="M504 256C506 321 497 380 459 437C416 502 346 533 269 533C198 533 142 507 103 467C53 416 28 342 28 259C28 174 56 101 108 51C149 12 201 -13 272 -13C338 -13 403 8 447 60C467 84 488 125 491 156L371 156C366 137 357 123 346 112C328 94 306 87 270 87C236 87 211 102 193 119C168 143 154 181 155 221L503 221C503 232 504 256 504 256ZM379 312L154 312C155 346 163 370 181 393C199 417 230 433 268 433C304 433 330 421 347 403C367 381 378 351 379 312Z"/>
<glyph unicode="&#x66;" horiz-adv-x="351" d="M365 623L365 723C326 731 303 734 267 734C155 734 90 666 90 570L90 520L2 520L2 417L90 417L90 0L215 0L215 417L354 417L354 520L215 520L215 568C215 605 238 631 283 631C316 631 339 628 365 623Z"/>
<glyph unicode="&#x67;" horiz-adv-x="523" d="M522 -69C522 -19 504 25 459 56C410 90 342 91 290 91L204 91C178 91 147 98 147 129C147 146 161 159 173 166C199 157 228 152 257 152C369 152 469 222 469 341C469 376 459 407 442 435C450 460 476 468 505 468C508 468 512 467 515 467L515 564C507 566 489 566 481 566C437 566 397 546 375 501C341 521 300 533 257 533C140 533 44 466 44 342C44 289 64 246 96 214C54 188 34 153 34 109C34 75 53 38 86 20C46 0 24 -41 24 -86C24 -135 47 -172 87 -200C141 -238 208 -243 271 -243C387 -243 522 -206 522 -69ZM349 342C349 286 314 246 257 246C200 246 165 286 165 342C165 398 200 439 257 439C314 439 349 398 349 342ZM404 -72C404 -141 316 -144 266 -144C217 -144 135 -138 135 -72C135 -39 155 -16 182 -8L280 -8C327 -8 404 -8 404 -72Z"/>
<glyph unicode="&#x68;" horiz-adv-x="563" d="M507 0L507 347C507 454 442 533 331 533C277 533 219 509 189 465L189 722L64 722L64 0L189 0L189 274C189 338 221 418 296 418C362 418 382 381 382 321L382 0Z"/>
<glyph unicode="&#x69;" horiz-adv-x="258" d="M196 592L196 721L62 721L62 592ZM193 0L193 520L66 520L66 0Z"/>
<glyph unicode="&#x6a;" horiz-adv-x="268" d="M206 594L206 723L72 723L72 594ZM203 -72L203 520L77 520L77 -48C77 -83 56 -104 17 -104C-2 -104 -7 -102 -44 -98L-44 -204C-21 -210 -3 -213 13 -215C29 -217 43 -217 57 -217C150 -217 203 -161 203 -72Z"/>
<glyph unicode="&#x6b;" horiz-adv-x="549" d="M563 0L357 319L543 520L386 520L189 309L189 722L64 722L64 0L189 0L189 137L272 227L418 0Z"/>
<glyph unicode="&#x6c;" horiz-adv-x="274" d="M258 1L258 106C251 106 248 105 237 105C194 105 187 125 187 155L187 723L61 723L61 134C61 35 118 -6 203 -6C228 -6 233 -4 258 1Z"/>
<glyph unicode="&#x6d;" horiz-adv-x="857" d="M801 0L801 351C801 459 743 533 632 533C562 533 506 502 475 448C449 501 399 533 326 533C257 533 207 499 178 451L168 520L64 520L64 0L188 0L188 284C188 349 220 424 291 424C354 424 371 387 371 323L371 0L495 0L495 284C495 349 526 424 597 424C660 424 677 387 677 323L677 0Z"/>
<glyph unicode="&#x6e;" horiz-adv-x="563" d="M507 0L507 347C507 455 442 533 331 533C271 533 209 508 178 453L169 520L64 520L64 0L189 0L189 212C189 256 188 310 206 351C223 389 252 417 296 417C362 417 382 380 382 319L382 0Z"/>
<glyph unicode="&#x6f;" horiz-adv-x="542" d="M514 260C514 348 492 403 453 452C417 496 350 533 271 533C192 533 125 496 89 452C50 403 28 348 28 260C28 172 50 117 89 68C125 24 192 -13 271 -13C350 -13 417 24 453 68C492 117 514 172 514 260ZM387 260C387 211 380 162 350 129C333 111 305 96 271 96C237 96 209 111 192 129C162 162 155 211 155 260C155 309 162 358 192 391C209 409 237 424 271 424C305 424 333 409 350 391C380 358 387 309 387 260Z"/>
<glyph unicode="&#x70;" horiz-adv-x="573" d="M545 261C545 359 514 437 452 488C420 514 378 532 326 532C269 532 211 511 180 463L172 520L64 520L64 -199L189 -199L189 38C213 9 263 -13 325 -13C378 -13 420 3 452 29C514 80 545 159 545 261ZM418 259C418 214 411 167 385 133C367 110 340 92 301 92C203 92 183 184 183 259C183 334 203 427 301 427C340 427 367 409 385 386C411 352 418 304 418 259Z"/>
<glyph unicode="&#x71;" horiz-adv-x="573" d="M509 -199L509 520L401 520L393 463C362 511 304 532 247 532C195 532 153 514 121 488C59 437 28 359 28 261C28 159 59 80 121 29C153 3 195 -13 248 -13C310 -13 360 8 384 37L384 -199ZM390 259C390 184 370 92 272 92C233 92 206 110 188 133C162 167 155 214 155 259C155 304 162 352 188 386C206 409 233 427 272 427C370 427 390 334 390 259Z"/>
<glyph unicode="&#x72;" horiz-adv-x="367" d="M367 404L367 524C354 526 341 527 328 527C267 527 205 502 181 442L170 520L64 520L64 0L190 0L190 262C190 346 236 409 324 409C338 409 353 407 367 404Z"/>
<glyph unicode="&#x73;" horiz-adv-x="493" d="M468 161C468 243 408 295 326 308C275 316 262 317 215 323C187 327 155 338 155 375C155 402 173 421 195 430C214 438 231 438 249 438C275 438 302 429 317 414C329 401 338 385 338 365L457 365C457 403 439 442 411 472C373 513 310 533 248 533C183 533 128 514 90 481C59 454 37 417 37 364C37 298 85 240 156 225C202 215 254 212 300 205C332 200 352 180 352 150C352 93 288 84 246 84C210 84 187 91 167 107C151 120 139 145 139 168L22 168C22 119 47 76 77 47C120 6 179 -13 245 -13C316 -13 381 5 423 47C450 74 468 111 468 161Z"/>
<glyph unicode="&#x74;" horiz-adv-x="372" d="M358 7L358 112C324 108 303 107 277 107C237 107 219 124 219 164L219 417L350 417L350 520L219 520L219 683L94 652L94 520L-1 520L-1 417L94 417L94 153C94 53 146 -7 251 -7C288 -7 323 -2 358 7Z"/>
<glyph unicode="&#x75;" horiz-adv-x="562" d="M498 0L498 520L373 520L373 245C373 203 365 156 335 128C320 113 300 102 271 102C205 102 181 140 181 201L181 520L56 520L56 173C56 62 125 -13 236 -13C302 -13 360 17 385 68L394 0Z"/>
<glyph unicode="&#x76;" horiz-adv-x="486" d="M500 520L371 520L248 154L118 520L-14 520L179 0L312 0Z"/>
<glyph unicode="&#x77;" horiz-adv-x="743" d="M734 520L615 520L535 180L425 515L322 515L213 179L130 520L9 520L141 0L257 0L373 351L491 0L607 0Z"/>
<glyph unicode="&#x78;" horiz-adv-x="488" d="M499 520L362 520L249 352L133 520L-11 520L172 265L-10 0L127 0L241 174L357 0L498 0L320 264Z"/>
<glyph unicode="&#x79;" horiz-adv-x="502" d="M516 520L389 520L259 144L123 520L-14 520L191 1L161 -72C148 -103 124 -111 101 -111C73 -111 64 -108 31 -102L31 -206C58 -213 86 -219 127 -219C218 -219 261 -157 287 -89Z"/>
<glyph unicode="&#x7a;" horiz-adv-x="479" d="M454 0L454 103L180 103L452 407L452 520L32 520L32 417L305 417L30 110L30 0Z"/>
<glyph unicode="&#x7b;" horiz-adv-x="351" d="M365 -148L365 -63L331 -63C265 -63 243 -29 243 28L243 182C242 240 206 301 135 316L135 319C206 334 242 392 243 450L243 604C243 661 265 695 331 695L365 695L365 780L312 780C197 780 148 700 148 611C148 581 149 517 149 487C149 395 107 370 31 363L31 270C110 264 149 233 149 145C149 115 148 51 148 21C148 -68 197 -148 312 -148Z"/>
<glyph unicode="&#x7c;" horiz-adv-x="240" d="M169 -148L169 780L71 780L71 -148Z"/>
<glyph unicode="&#x7d;" horiz-adv-x="351" d="M320 270L320 363C244 370 202 395 202 487C202 517 203 581 203 611C203 700 154 780 39 780L-14 780L-14 695L20 695C86 695 108 661 108 604L108 450C109 392 145 334 216 319L216 316C145 301 109 240 108 182L108 28C108 -29 86 -63 20 -63L-14 -63L-14 -148L39 -148C154 -148 203 -68 203 21C203 51 202 115 202 145C202 233 241 264 320 270Z"/>
<glyph unicode="&#x7e;" horiz-adv-x="655" d="M609 306L529 401C502 373 465 345 424 345C368 345 305 405 229 405C151 405 96 356 46 303L125 208C151 236 187 268 228 268C282 268 346 206 424 206C502 206 558 253 609 306Z"/>
<glyph unicode="&#xa0;" horiz-adv-x="209" />
<glyph unicode="&#xa1;" horiz-adv-x="304" d="M201 370L201 505L69 505L69 370ZM200 -204L200 18L172 293L97 293L69 18L69 -204Z"/>
<glyph unicode="&#xa2;" horiz-adv-x="542" d="M496 276L375 276C374 257 368 242 360 229C349 211 332 198 308 192L308 516C332 510 349 497 360 479C368 466 374 451 375 432L496 432C494 473 480 513 456 544C425 584 374 618 308 625L308 712L246 712L246 624C182 615 130 581 100 544C61 496 46 430 46 354C46 278 61 212 100 164C130 127 182 94 246 85L246 -2L308 -2L308 83C374 90 425 124 456 164C480 195 494 235 496 276ZM246 194C229 200 215 210 204 222C174 255 170 305 170 354C170 403 174 453 204 486C215 498 229 508 246 514Z"/>
<glyph unicode="&#xa3;" horiz-adv-x="542" d="M526 192L407 192C407 138 386 112 331 112L180 112L180 114C210 121 217 157 217 183L217 314L360 314L360 417L217 417L217 514C217 565 242 602 296 602C345 602 371 566 371 520L496 520C496 637 409 710 296 710C171 710 91 634 91 508L91 417L16 417L16 314L91 314L91 184C91 133 65 110 15 110L15 0L333 0C458 0 526 67 526 192Z"/>
<glyph unicode="&#xa4;" horiz-adv-x="542" d="M549 64L471 131C495 172 507 213 507 254C507 295 495 335 471 377L549 440L462 527L393 452C352 475 315 484 272 484C230 484 189 475 148 452L81 527L-7 440L72 377C48 335 36 295 36 254C36 213 48 173 72 131L-7 64L80 -20L149 56C190 33 229 23 272 23C315 23 353 33 393 56L463 -20ZM395 254C395 181 352 127 272 127C193 127 147 187 147 254C147 328 188 380 272 380C348 380 395 325 395 254Z"/>
<glyph unicode="&#xa5;" horiz-adv-x="542" d="M555 695L418 695L274 424L125 695L-14 695L151 398L47 398L47 325L206 325L206 235L47 235L47 162L206 162L206 0L334 0L334 162L504 162L504 235L334 235L334 325L504 325L504 398L390 398Z"/>
<glyph unicode="&#xa6;" horiz-adv-x="261" d="M192 440L192 759L69 759L69 440ZM192 -50L192 269L69 269L69 -50Z"/>
<glyph unicode="&#xa7;" horiz-adv-x="521" d="M490 173C490 227 465 275 424 310L229 477C209 495 195 515 195 543C195 586 226 612 272 612C323 612 351 575 351 529L461 529C461 643 375 710 271 710C215 710 163 689 129 654C101 626 82 589 82 541C82 496 97 461 123 430C75 397 36 354 36 293C36 239 61 191 102 156L297 -11C317 -29 332 -49 332 -77C332 -120 301 -146 255 -146C204 -146 175 -110 175 -64L66 -64C66 -178 152 -244 256 -244C312 -244 364 -224 398 -189C426 -161 444 -123 444 -75C444 -30 430 4 404 35C452 68 490 112 490 173ZM380 165C380 138 358 115 335 99L174 238C156 254 147 278 147 301C147 328 169 351 192 367L352 228C370 212 380 188 380 165Z"/>
<glyph unicode="&#xa8;" horiz-adv-x="295" d="M309 601L309 722L192 722L192 601ZM103 601L103 722L-14 722L-14 601Z"/>
<glyph unicode="&#xa9;" horiz-adv-x="810" d="M775 354C775 566 617 722 405 722C193 722 35 567 35 354C35 139 190 -14 405 -14C619 -14 775 139 775 354ZM682 354C682 193 568 72 405 72C240 72 129 191 129 354C129 516 241 636 405 636C569 636 682 516 682 354ZM583 301L481 301C476 271 450 244 410 244C354 244 325 290 325 352C325 406 351 459 410 459C450 459 476 432 481 402L583 402C573 487 506 550 410 550C291 550 222 460 222 352C222 244 291 153 410 153C506 153 573 216 583 301Z"/>
<glyph unicode="&#xaa;" horiz-adv-x="447" d="M411 309L411 379C411 379 405 377 399 377C383 377 376 383 376 401L376 549C376 576 375 604 365 629C343 688 286 710 218 710C130 710 61 670 55 581L147 581C149 617 174 637 218 637C272 637 284 612 284 575L284 551L168 542C93 536 36 495 36 420C36 355 83 295 177 295C233 295 279 322 297 354C300 324 323 298 364 298C387 298 395 302 411 309ZM284 462C284 404 244 371 184 371C154 371 129 391 129 421C129 453 156 470 185 472L284 480Z"/>
<glyph unicode="&#xab;" horiz-adv-x="559" d="M518 105L404 299L518 493L445 545L272 298L445 54ZM277 105L163 299L277 493L204 545L31 298L204 54Z"/>
<glyph unicode="&#xac;" horiz-adv-x="637" d="M571 84L570 364L41 364L41 251L449 251L449 84Z"/>
<glyph unicode="&#xad;" horiz-adv-x="435" d="M389 252L389 364L46 364L46 252Z"/>
<glyph unicode="&#xae;" horiz-adv-x="810" d="M775 354C775 566 617 722 405 722C193 722 35 567 35 354C35 139 190 -14 405 -14C619 -14 775 139 775 354ZM681 354C681 193 568 72 405 72C240 72 129 191 129 354C129 516 241 636 405 636C569 636 681 516 681 354ZM557 178L497 316C537 336 554 377 554 419C554 501 493 543 416 543L271 543L271 178L364 178L364 298L411 298L460 178ZM460 422C460 395 442 381 416 381L363 381L363 460L416 460C440 460 460 448 460 422Z"/>
<glyph unicode="&#xaf;" horiz-adv-x="277" d="M301 611L301 711L-19 711L-19 611Z"/>
<glyph unicode="&#xb0;" horiz-adv-x="418" d="M382 555C382 650 310 722 207 722C100 722 36 647 36 555C36 458 112 386 207 386C302 386 382 453 382 555ZM284 555C284 511 249 477 207 477C165 477 132 511 132 555C132 598 165 631 207 631C250 631 284 598 284 555Z"/>
<glyph unicode="&#xb1;" horiz-adv-x="580" d="M544 322L544 427L346 427L346 587L233 587L233 427L36 427L36 322L233 322L233 162L346 162L346 322ZM544 0L544 106L36 106L36 0Z"/>
<glyph unicode="&#xb2;" horiz-adv-x="377" d="M336 341L336 428L196 428L260 481C295 510 328 543 328 593C328 672 263 716 189 716C100 716 48 669 41 580L136 580C138 611 151 635 188 635C213 635 231 618 231 594C231 569 217 559 201 545L48 414L48 341Z"/>
<glyph unicode="&#xb3;" horiz-adv-x="384" d="M343 450C343 486 319 521 284 532C315 542 336 574 336 607C336 633 328 648 316 664C289 699 241 716 192 716C148 716 110 703 83 679C61 659 47 630 44 591L131 591C135 626 158 641 192 641C216 641 243 630 243 602C243 574 223 566 198 566L171 566L171 493L198 493C231 493 251 482 251 454C251 421 217 412 191 412C160 412 132 426 129 460L41 460C44 425 55 399 75 379C102 351 144 335 189 335C242 335 294 348 322 386C334 402 343 423 343 450Z"/>
<glyph unicode="&#xb4;" horiz-adv-x="227" d="M233 678L177 769L-7 631L33 566Z"/>
<glyph unicode="&#xb5;" horiz-adv-x="570" d="M506 0L506 520L381 520L381 243C381 201 373 154 343 126C328 111 308 100 279 100C213 100 188 138 188 199L188 520L64 520L64 -202L188 -202L188 -2C205 -11 224 -13 244 -13C310 -13 367 19 392 70L402 0Z"/>
<glyph unicode="&#xb6;" horiz-adv-x="645" d="M599 612L599 709L235 709C125 709 36 620 36 510C36 400 125 311 235 311L235 -125L334 -125L334 612L431 612L431 -125L531 -125L531 612Z"/>
<glyph unicode="&#xb7;" horiz-adv-x="287" d="M210 215L210 371L58 371L58 215Z"/>
<glyph unicode="&#xb8;" horiz-adv-x="170" d="M175 -44L78 -44L-5 -194L99 -243Z"/>
<glyph unicode="&#xb9;" horiz-adv-x="284" d="M213 344L213 709L130 709L25 636L25 533L120 600L120 344Z"/>
<glyph unicode="&#xba;" horiz-adv-x="447" d="M405 501C405 559 391 611 361 648C334 681 284 709 224 709C164 709 113 681 86 648C56 611 42 559 42 501C42 443 55 394 85 357C112 324 164 294 224 294C284 294 335 324 362 357C392 394 405 443 405 501ZM309 501C309 464 306 426 283 401C270 387 250 376 224 376C198 376 177 387 164 401C141 426 139 464 139 501C139 538 141 577 164 602C177 616 198 627 224 627C250 627 270 616 283 602C306 577 309 538 309 501Z"/>
<glyph unicode="&#xbb;" horiz-adv-x="559" d="M528 298L355 545L282 493L396 299L282 105L355 54ZM287 298L114 545L41 493L155 299L41 105L114 54Z"/>
<glyph unicode="&#xbc;" horiz-adv-x="855" d="M814 71L814 152L766 152L766 234L676 234L676 152L586 152L709 374L613 374L497 166L497 71L676 71L676 0L766 0L766 71ZM704 670L628 723L123 36L197 -20ZM248 344L248 709L165 709L60 636L60 533L155 600L155 344Z"/>
<glyph unicode="&#xbd;" horiz-adv-x="888" d="M800 0L800 87L660 87L724 140C759 169 792 202 792 252C792 331 727 375 653 375C564 375 512 328 505 239L600 239C602 270 615 294 652 294C677 294 695 277 695 253C695 228 681 218 665 204L512 73L512 0ZM689 670L613 723L108 36L182 -20ZM243 344L243 709L160 709L55 636L55 533L150 600L150 344Z"/>
<glyph unicode="&#xbe;" horiz-adv-x="892" d="M851 71L851 152L803 152L803 234L713 234L713 152L623 152L746 374L650 374L534 166L534 71L713 71L713 0L803 0L803 71ZM755 670L679 723L174 36L248 -20ZM349 450C349 486 325 521 290 532C321 542 342 574 342 607C342 633 334 648 322 664C295 699 247 716 198 716C154 716 116 703 89 679C67 659 53 630 50 591L137 591C141 626 164 641 198 641C222 641 249 630 249 602C249 574 229 566 204 566L177 566L177 493L204 493C237 493 257 482 257 454C257 421 223 412 197 412C166 412 138 426 135 460L47 460C50 425 61 399 81 379C108 351 150 335 195 335C248 335 300 348 328 386C340 402 349 423 349 450Z"/>
<glyph unicode="&#xbf;" horiz-adv-x="494" d="M476 -8L347 -8C347 -73 304 -108 241 -108C178 -108 144 -68 144 -24C144 8 164 31 183 48C230 91 288 117 307 205C313 234 312 273 312 302L188 302L188 274C188 199 145 178 93 134C47 95 14 45 14 -25C14 -135 105 -221 236 -221C369 -221 476 -148 476 -8ZM320 364L320 504L181 504L181 364Z"/>
<glyph unicode="&#xc0;" horiz-adv-x="611" d="M372 764L412 829L228 967L172 876ZM625 0L376 709L235 709L-14 0L116 0L162 136L444 136L490 0ZM404 252L202 252L303 551Z"/>
<glyph unicode="&#xc1;" horiz-adv-x="611" d="M625 0L376 709L235 709L-14 0L116 0L162 136L444 136L490 0ZM404 252L202 252L303 551ZM414 876L358 967L174 829L214 764Z"/>
<glyph unicode="&#xc2;" horiz-adv-x="611" d="M139 833L199 772L300 871L399 775L458 833L338 949L261 949ZM625 0L376 709L235 709L-14 0L116 0L162 136L444 136L490 0ZM404 252L202 252L303 551Z"/>
<glyph unicode="&#xc3;" horiz-adv-x="611" d="M466 828L416 889C402 875 376 856 355 856C319 856 289 896 237 896C192 896 155 869 125 840L174 779C190 796 212 810 236 810C269 810 301 772 354 772C398 772 436 799 466 828ZM625 0L376 709L235 709L-14 0L116 0L162 136L444 136L490 0ZM404 252L202 252L303 551Z"/>
<glyph unicode="&#xc4;" horiz-adv-x="611" d="M625 0L376 709L235 709L-14 0L116 0L162 136L444 136L490 0ZM404 252L202 252L303 551ZM465 791L465 912L348 912L348 791ZM259 791L259 912L142 912L142 791Z"/>
<glyph unicode="&#xc5;" horiz-adv-x="611" d="M625 0L390 669C417 692 433 727 433 765C433 836 376 892 305 892C234 892 177 836 177 765C177 727 194 692 221 669L-14 0L116 0L162 136L444 136L490 0ZM361 765C361 734 336 709 305 709C274 709 251 734 251 765C251 796 274 820 305 820C336 820 361 796 361 765ZM404 252L202 252L303 551Z"/>
<glyph unicode="&#xc6;" horiz-adv-x="929" d="M903 0L903 120L570 120L570 309L855 309L855 429L570 429L570 589L903 589L903 709L309 709L-14 0L127 0L204 179L441 179L441 0ZM441 298L258 298L386 589L441 589Z"/>
<glyph unicode="&#xc7;" horiz-adv-x="600" d="M586 226L454 226C451 195 440 170 422 148C399 119 359 103 315 103C274 103 234 120 206 150C157 201 157 289 157 354C157 419 157 507 206 558C234 588 274 605 315 605C359 605 399 590 422 561C440 539 451 517 454 486L586 486C580 542 559 598 518 640C465 694 391 722 315 722C239 722 168 696 114 642C37 565 26 470 26 354C26 238 37 143 114 66C168 12 239 -13 315 -13C391 -13 465 17 518 71C559 113 580 170 586 226ZM384 -42L287 -42L204 -192L308 -241Z"/>
<glyph unicode="&#xc8;" horiz-adv-x="600" d="M574 0L574 117L198 117L198 311L529 311L529 427L198 427L198 592L574 592L574 709L69 709L69 0ZM431 830L247 968L191 877L391 765Z"/>
<glyph unicode="&#xc9;" horiz-adv-x="600" d="M574 0L574 117L198 117L198 311L529 311L529 427L198 427L198 592L574 592L574 709L69 709L69 0ZM437 876L381 967L197 829L237 764Z"/>
<glyph unicode="&#xca;" horiz-adv-x="600" d="M574 0L574 117L198 117L198 311L529 311L529 427L198 427L198 592L574 592L574 709L69 709L69 0ZM159 833L219 772L320 871L419 775L478 833L358 949L281 949Z"/>
<glyph unicode="&#xcb;" horiz-adv-x="600" d="M574 0L574 117L198 117L198 311L529 311L529 427L198 427L198 592L574 592L574 709L69 709L69 0ZM495 791L495 912L378 912L378 791ZM289 791L289 912L172 912L172 791Z"/>
<glyph unicode="&#xcc;" horiz-adv-x="269" d="M200 0L200 709L69 709L69 0ZM251 830L67 968L11 877L211 765Z"/>
<glyph unicode="&#xcd;" horiz-adv-x="269" d="M200 0L200 709L69 709L69 0ZM255 877L199 968L15 830L55 765Z"/>
<glyph unicode="&#xce;" horiz-adv-x="269" d="M200 0L200 709L69 709L69 0ZM-22 833L38 772L139 871L238 775L297 833L177 949L100 949Z"/>
<glyph unicode="&#xcf;" horiz-adv-x="269" d="M200 0L200 709L69 709L69 0ZM297 791L297 912L180 912L180 791ZM91 791L91 912L-26 912L-26 791Z"/>
<glyph unicode="&#xd0;" horiz-adv-x="656" d="M627 355C627 453 617 558 544 633C497 682 426 709 345 709L69 709L69 410L6 410L6 326L69 326L69 0L345 0C426 0 497 27 544 76C617 151 627 257 627 355ZM496 355C496 290 495 206 445 156C421 132 386 116 345 116L198 116L198 326L329 326L329 410L198 410L198 593L345 593C386 593 421 577 445 553C495 503 496 420 496 355Z"/>
<glyph unicode="&#xd1;" horiz-adv-x="705" d="M636 0L636 709L509 709L509 229L206 709L69 709L69 0L196 0L196 487L503 0ZM523 852L472 916C457 901 431 882 409 882C372 882 342 924 288 924C242 924 204 895 173 864L224 800C239 817 263 833 287 833C321 833 354 792 408 792C453 792 493 821 523 852Z"/>
<glyph unicode="&#xd2;" horiz-adv-x="644" d="M616 354C616 470 603 565 526 642C472 696 398 722 322 722C246 722 172 696 118 642C41 565 28 470 28 354C28 238 41 144 118 67C172 13 246 -13 322 -13C398 -13 472 13 526 67C603 144 616 238 616 354ZM485 354C485 289 483 202 434 151C406 121 363 104 322 104C281 104 238 121 210 151C161 202 159 289 159 354C159 419 161 507 210 558C238 588 281 605 322 605C363 605 406 588 434 558C483 507 485 419 485 354ZM437 830L253 968L197 877L397 765Z"/>
<glyph unicode="&#xd3;" horiz-adv-x="644" d="M616 354C616 470 603 565 526 642C472 696 398 722 322 722C246 722 172 696 118 642C41 565 28 470 28 354C28 238 41 144 118 67C172 13 246 -13 322 -13C398 -13 472 13 526 67C603 144 616 238 616 354ZM485 354C485 289 483 202 434 151C406 121 363 104 322 104C281 104 238 121 210 151C161 202 159 289 159 354C159 419 161 507 210 558C238 588 281 605 322 605C363 605 406 588 434 558C483 507 485 419 485 354ZM431 876L375 967L191 829L231 764Z"/>
<glyph unicode="&#xd4;" horiz-adv-x="644" d="M616 354C616 470 603 565 526 642C472 696 398 722 322 722C246 722 172 696 118 642C41 565 28 470 28 354C28 238 41 144 118 67C172 13 246 -13 322 -13C398 -13 472 13 526 67C603 144 616 238 616 354ZM485 354C485 289 483 202 434 151C406 121 363 104 322 104C281 104 238 121 210 151C161 202 159 289 159 354C159 419 161 507 210 558C238 588 281 605 322 605C363 605 406 588 434 558C483 507 485 419 485 354ZM167 833L227 772L328 871L427 775L486 833L366 949L289 949Z"/>
<glyph unicode="&#xd5;" horiz-adv-x="644" d="M616 354C616 470 603 565 526 642C472 696 398 722 322 722C246 722 172 696 118 642C41 565 28 470 28 354C28 238 41 144 118 67C172 13 246 -13 322 -13C398 -13 472 13 526 67C603 144 616 238 616 354ZM485 354C485 289 483 202 434 151C406 121 363 104 322 104C281 104 238 121 210 151C161 202 159 289 159 354C159 419 161 507 210 558C238 588 281 605 322 605C363 605 406 588 434 558C483 507 485 419 485 354ZM493 834L444 895C429 881 403 863 382 863C346 863 316 902 264 902C219 902 182 875 152 846L202 785C217 801 240 816 263 816C296 816 328 778 381 778C425 778 464 805 493 834Z"/>
<glyph unicode="&#xd6;" horiz-adv-x="644" d="M616 354C616 470 603 565 526 642C472 696 398 722 322 722C246 722 172 696 118 642C41 565 28 470 28 354C28 238 41 144 118 67C172 13 246 -13 322 -13C398 -13 472 13 526 67C603 144 616 238 616 354ZM485 354C485 289 483 202 434 151C406 121 363 104 322 104C281 104 238 121 210 151C161 202 159 289 159 354C159 419 161 507 210 558C238 588 281 605 322 605C363 605 406 588 434 558C483 507 485 419 485 354ZM484 793L484 914L367 914L367 793ZM278 793L278 914L161 914L161 793Z"/>
<glyph unicode="&#xd7;" horiz-adv-x="659" d="M537 17L610 89L402 297L610 505L537 577L329 370L121 577L49 505L257 297L49 89L121 17L329 225Z"/>
<glyph unicode="&#xd8;" horiz-adv-x="644" d="M616 354C616 470 603 565 526 642L502 664L537 740L470 770L437 700C401 715 362 722 322 722C246 722 172 696 118 642C41 565 28 470 28 354C28 238 41 144 118 67L134 52L91 -42L158 -72L198 12C237 -5 279 -13 322 -13C398 -13 472 13 526 67C603 144 616 238 616 354ZM485 354C485 289 483 202 434 151C406 121 363 104 322 104C297 104 272 110 249 122L446 544C484 492 485 413 485 354ZM386 591L192 175C161 227 159 298 159 354C159 419 161 507 210 558C238 588 281 605 322 605C344 605 366 600 386 591Z"/>
<glyph unicode="&#xd9;" horiz-adv-x="654" d="M605 272L605 709L476 709L476 274C476 173 430 104 327 104C224 104 178 173 178 274L178 709L49 709L49 272C49 103 144 -13 327 -13C510 -13 605 103 605 272ZM434 830L250 968L194 877L394 765Z"/>
<glyph unicode="&#xda;" horiz-adv-x="654" d="M605 272L605 709L476 709L476 274C476 173 430 104 327 104C224 104 178 173 178 274L178 709L49 709L49 272C49 103 144 -13 327 -13C510 -13 605 103 605 272ZM457 877L401 968L217 830L257 765Z"/>
<glyph unicode="&#xdb;" horiz-adv-x="654" d="M605 272L605 709L476 709L476 274C476 173 430 104 327 104C224 104 178 173 178 274L178 709L49 709L49 272C49 103 144 -13 327 -13C510 -13 605 103 605 272ZM170 833L230 772L331 871L430 775L489 833L369 949L292 949Z"/>
<glyph unicode="&#xdc;" horiz-adv-x="654" d="M605 272L605 709L476 709L476 274C476 173 430 104 327 104C224 104 178 173 178 274L178 709L49 709L49 272C49 103 144 -13 327 -13C510 -13 605 103 605 272ZM488 792L488 913L371 913L371 792ZM282 792L282 913L165 913L165 792Z"/>
<glyph unicode="&#xdd;" horiz-adv-x="596" d="M610 709L476 709L301 403L126 709L-14 709L232 272L232 0L362 0L362 272ZM419 876L363 967L179 829L219 764Z"/>
<glyph unicode="&#xde;" horiz-adv-x="566" d="M567 364C567 500 485 590 322 590L197 590L197 709L69 709L69 0L197 0L197 132L322 132C484 132 567 221 567 364ZM437 363C437 287 405 244 317 244L197 244L197 477L317 477C403 477 437 431 437 363Z"/>
<glyph unicode="&#xdf;" horiz-adv-x="581" d="M570 211C570 303 519 383 426 404C486 422 521 486 521 546C521 659 429 732 308 732C181 732 88 654 86 520L1 520L1 417L84 417L84 0L207 0L207 504C207 574 232 624 306 624C360 624 395 589 395 535C395 483 362 451 308 451L287 451L287 347L308 347C388 347 444 312 444 224C444 153 401 103 327 103C306 103 281 105 260 109L260 0C289 -7 324 -10 354 -10C485 -10 570 83 570 211Z"/>
<glyph unicode="&#xe0;" horiz-adv-x="534" d="M517 6L517 98C517 98 509 96 501 96C480 96 472 105 472 129L472 322C472 357 470 394 457 427C427 505 351 533 262 533C146 533 53 481 46 364L167 364C170 412 204 438 262 438C333 438 350 405 350 356L350 324L197 313C98 306 21 249 21 150C21 65 85 -13 209 -13C283 -13 343 23 367 65C371 26 401 -8 455 -8C485 -8 496 -3 517 6ZM350 207C350 130 295 88 217 88C178 88 143 113 143 153C143 195 180 218 218 221L350 231ZM343 566L383 631L199 769L143 678Z"/>
<glyph unicode="&#xe1;" horiz-adv-x="534" d="M517 6L517 98C517 98 509 96 501 96C480 96 472 105 472 129L472 322C472 357 470 394 457 427C427 505 351 533 262 533C146 533 53 481 46 364L167 364C170 412 204 438 262 438C333 438 350 405 350 356L350 324L197 313C98 306 21 249 21 150C21 65 85 -13 209 -13C283 -13 343 23 367 65C371 26 401 -8 455 -8C485 -8 496 -3 517 6ZM350 207C350 130 295 88 217 88C178 88 143 113 143 153C143 195 180 218 218 221L350 231ZM368 678L312 769L128 631L168 566Z"/>
<glyph unicode="&#xe2;" horiz-adv-x="534" d="M517 6L517 98C517 98 509 96 501 96C480 96 472 105 472 129L472 322C472 357 470 394 457 427C427 505 351 533 262 533C146 533 53 481 46 364L167 364C170 412 204 438 262 438C333 438 350 405 350 356L350 324L197 313C98 306 21 249 21 150C21 65 85 -13 209 -13C283 -13 343 23 367 65C371 26 401 -8 455 -8C485 -8 496 -3 517 6ZM350 207C350 130 295 88 217 88C178 88 143 113 143 153C143 195 180 218 218 221L350 231ZM108 633L168 572L269 671L368 575L427 633L307 749L230 749Z"/>
<glyph unicode="&#xe3;" horiz-adv-x="534" d="M517 6L517 98C517 98 509 96 501 96C480 96 472 105 472 129L472 322C472 357 470 394 457 427C427 505 351 533 262 533C146 533 53 481 46 364L167 364C170 412 204 438 262 438C333 438 350 405 350 356L350 324L197 313C98 306 21 249 21 150C21 65 85 -13 209 -13C283 -13 343 23 367 65C371 26 401 -8 455 -8C485 -8 496 -3 517 6ZM350 207C350 130 295 88 217 88C178 88 143 113 143 153C143 195 180 218 218 221L350 231ZM429 672L379 735C365 720 339 702 317 702C281 702 251 743 199 743C154 743 116 714 86 684L136 621C151 638 174 653 198 653C231 653 263 613 316 613C361 613 399 642 429 672Z"/>
<glyph unicode="&#xe4;" horiz-adv-x="534" d="M517 6L517 98C517 98 509 96 501 96C480 96 472 105 472 129L472 322C472 357 470 394 457 427C427 505 351 533 262 533C146 533 53 481 46 364L167 364C170 412 204 438 262 438C333 438 350 405 350 356L350 324L197 313C98 306 21 249 21 150C21 65 85 -13 209 -13C283 -13 343 23 367 65C371 26 401 -8 455 -8C485 -8 496 -3 517 6ZM350 207C350 130 295 88 217 88C178 88 143 113 143 153C143 195 180 218 218 221L350 231ZM428 601L428 722L311 722L311 601ZM222 601L222 722L105 722L105 601Z"/>
<glyph unicode="&#xe5;" horiz-adv-x="534" d="M517 6L517 98C517 98 509 96 501 96C480 96 472 105 472 129L472 322C472 357 470 394 457 427C427 505 351 533 262 533C146 533 53 481 46 364L167 364C170 412 204 438 262 438C333 438 350 405 350 356L350 324L197 313C98 306 21 249 21 150C21 65 85 -13 209 -13C283 -13 343 23 367 65C371 26 401 -8 455 -8C485 -8 496 -3 517 6ZM350 207C350 130 295 88 217 88C178 88 143 113 143 153C143 195 180 218 218 221L350 231ZM382 710C382 778 328 831 260 831C192 831 138 778 138 710C138 642 192 588 260 588C328 588 382 642 382 710ZM313 710C313 681 289 657 260 657C231 657 208 681 208 710C208 739 231 762 260 762C289 762 313 739 313 710Z"/>
<glyph unicode="&#xe6;" horiz-adv-x="832" d="M807 219L807 247C807 312 800 382 762 438C718 503 651 533 574 533C499 533 447 509 414 472C375 514 323 533 256 533C140 533 50 481 43 364L164 364C168 412 201 435 256 435C312 435 337 412 337 356L337 311C337 311 244 313 197 309C102 301 21 252 21 149C21 40 115 -13 207 -13C307 -13 361 35 389 88C415 31 486 -13 580 -13C646 -13 712 9 755 61C775 85 794 122 798 154L677 154C660 106 627 84 576 84C495 84 466 147 463 219ZM681 311L462 311C464 379 498 434 573 434C650 434 680 380 681 311ZM337 219C337 148 298 90 216 90C178 90 143 112 143 153C143 195 175 214 216 217C256 220 297 219 337 219Z"/>
<glyph unicode="&#xe7;" horiz-adv-x="503" d="M484 184L361 184C360 165 354 149 346 136C331 113 304 97 266 97C232 97 207 112 190 130C160 163 155 212 155 261C155 310 160 360 190 393C207 411 232 425 266 425C304 425 331 409 346 386C354 373 360 357 361 338L484 338C482 379 468 420 444 451C408 496 345 533 266 533C187 533 121 495 85 451C46 402 28 337 28 261C28 185 46 120 85 71C121 27 187 -11 266 -11C345 -11 408 26 444 71C468 102 482 143 484 184ZM336 -44L239 -44L156 -194L260 -243Z"/>
<glyph unicode="&#xe8;" horiz-adv-x="529" d="M504 256C506 321 497 380 459 437C416 502 346 533 269 533C198 533 142 507 103 467C53 416 28 342 28 259C28 174 56 101 108 51C149 12 201 -13 272 -13C338 -13 403 8 447 60C467 84 488 125 491 156L371 156C366 137 357 123 346 112C328 94 306 87 270 87C236 87 211 102 193 119C168 143 154 181 155 221L503 221C503 232 504 256 504 256ZM379 312L154 312C155 346 163 370 181 393C199 417 230 433 268 433C304 433 330 421 347 403C367 381 378 351 379 312ZM350 567L390 632L206 770L150 679Z"/>
<glyph unicode="&#xe9;" horiz-adv-x="529" d="M504 256C506 321 497 380 459 437C416 502 346 533 269 533C198 533 142 507 103 467C53 416 28 342 28 259C28 174 56 101 108 51C149 12 201 -13 272 -13C338 -13 403 8 447 60C467 84 488 125 491 156L371 156C366 137 357 123 346 112C328 94 306 87 270 87C236 87 211 102 193 119C168 143 154 181 155 221L503 221C503 232 504 256 504 256ZM379 312L154 312C155 346 163 370 181 393C199 417 230 433 268 433C304 433 330 421 347 403C367 381 378 351 379 312ZM395 678L339 769L155 631L195 566Z"/>
<glyph unicode="&#xea;" horiz-adv-x="529" d="M504 256C506 321 497 380 459 437C416 502 346 533 269 533C198 533 142 507 103 467C53 416 28 342 28 259C28 174 56 101 108 51C149 12 201 -13 272 -13C338 -13 403 8 447 60C467 84 488 125 491 156L371 156C366 137 357 123 346 112C328 94 306 87 270 87C236 87 211 102 193 119C168 143 154 181 155 221L503 221C503 232 504 256 504 256ZM379 312L154 312C155 346 163 370 181 393C199 417 230 433 268 433C304 433 330 421 347 403C367 381 378 351 379 312ZM103 633L163 572L264 671L363 575L422 633L302 749L225 749Z"/>
<glyph unicode="&#xeb;" horiz-adv-x="529" d="M504 256C506 321 497 380 459 437C416 502 346 533 269 533C198 533 142 507 103 467C53 416 28 342 28 259C28 174 56 101 108 51C149 12 201 -13 272 -13C338 -13 403 8 447 60C467 84 488 125 491 156L371 156C366 137 357 123 346 112C328 94 306 87 270 87C236 87 211 102 193 119C168 143 154 181 155 221L503 221C503 232 504 256 504 256ZM379 312L154 312C155 346 163 370 181 393C199 417 230 433 268 433C304 433 330 421 347 403C367 381 378 351 379 312ZM439 601L439 722L322 722L322 601ZM233 601L233 722L116 722L116 601Z"/>
<glyph unicode="&#xec;" horiz-adv-x="258" d="M193 0L193 520L66 520L66 0ZM196 567L232 627L68 754L18 670Z"/>
<glyph unicode="&#xed;" horiz-adv-x="258" d="M193 0L193 520L66 520L66 0ZM224 671L174 755L10 628L46 568Z"/>
<glyph unicode="&#xee;" horiz-adv-x="258" d="M-29 633L31 572L132 671L231 575L290 633L170 749L93 749ZM193 0L193 520L66 520L66 0Z"/>
<glyph unicode="&#xef;" horiz-adv-x="258" d="M193 0L193 520L66 520L66 0ZM273 608L273 715L169 715L169 608ZM89 608L89 715L-15 715L-15 608Z"/>
<glyph unicode="&#xf0;" horiz-adv-x="534" d="M506 259C506 322 492 383 461 434L370 583L426 583L426 650L330 650L288 722L163 722L204 650L133 650L133 583L243 583L273 533L267 533C188 533 122 496 86 452C47 403 28 335 28 259C28 183 46 118 85 69C121 25 188 -13 267 -13C346 -13 413 25 449 69C488 118 506 183 506 259ZM379 259C379 210 375 160 345 127C328 109 301 94 267 94C233 94 206 109 189 127C159 160 155 210 155 259C155 308 159 359 189 392C206 410 233 425 267 425C301 425 328 410 345 392C375 359 379 308 379 259Z"/>
<glyph unicode="&#xf1;" horiz-adv-x="563" d="M507 0L507 347C507 455 442 533 331 533C271 533 209 508 178 453L169 520L64 520L64 0L189 0L189 212C189 256 188 310 206 351C223 389 252 417 296 417C362 417 382 380 382 319L382 0ZM462 672L412 735C398 720 372 702 351 702C314 702 285 743 232 743C187 743 149 714 119 684L169 621C185 638 208 653 231 653C264 653 297 613 350 613C394 613 432 642 462 672Z"/>
<glyph unicode="&#xf2;" horiz-adv-x="542" d="M514 260C514 348 492 403 453 452C417 496 350 533 271 533C192 533 125 496 89 452C50 403 28 348 28 260C28 172 50 117 89 68C125 24 192 -13 271 -13C350 -13 417 24 453 68C492 117 514 172 514 260ZM387 260C387 211 380 162 350 129C333 111 305 96 271 96C237 96 209 111 192 129C162 162 155 211 155 260C155 309 162 358 192 391C209 409 237 424 271 424C305 424 333 409 350 391C380 358 387 309 387 260ZM353 567L393 632L209 770L153 679Z"/>
<glyph unicode="&#xf3;" horiz-adv-x="542" d="M514 260C514 348 492 403 453 452C417 496 350 533 271 533C192 533 125 496 89 452C50 403 28 348 28 260C28 172 50 117 89 68C125 24 192 -13 271 -13C350 -13 417 24 453 68C492 117 514 172 514 260ZM387 260C387 211 380 162 350 129C333 111 305 96 271 96C237 96 209 111 192 129C162 162 155 211 155 260C155 309 162 358 192 391C209 409 237 424 271 424C305 424 333 409 350 391C380 358 387 309 387 260ZM396 678L340 769L156 631L196 566Z"/>
<glyph unicode="&#xf4;" horiz-adv-x="542" d="M514 260C514 348 492 403 453 452C417 496 350 533 271 533C192 533 125 496 89 452C50 403 28 348 28 260C28 172 50 117 89 68C125 24 192 -13 271 -13C350 -13 417 24 453 68C492 117 514 172 514 260ZM387 260C387 211 380 162 350 129C333 111 305 96 271 96C237 96 209 111 192 129C162 162 155 211 155 260C155 309 162 358 192 391C209 409 237 424 271 424C305 424 333 409 350 391C380 358 387 309 387 260ZM107 633L167 572L268 671L367 575L426 633L306 749L229 749Z"/>
<glyph unicode="&#xf5;" horiz-adv-x="542" d="M514 260C514 348 492 403 453 452C417 496 350 533 271 533C192 533 125 496 89 452C50 403 28 348 28 260C28 172 50 117 89 68C125 24 192 -13 271 -13C350 -13 417 24 453 68C492 117 514 172 514 260ZM387 260C387 211 380 162 350 129C333 111 305 96 271 96C237 96 209 111 192 129C162 162 155 211 155 260C155 309 162 358 192 391C209 409 237 424 271 424C305 424 333 409 350 391C380 358 387 309 387 260ZM430 678L380 741C366 726 340 708 319 708C282 708 253 749 200 749C155 749 117 721 87 690L137 627C153 644 176 660 199 660C232 660 265 620 318 620C362 620 401 648 430 678Z"/>
<glyph unicode="&#xf6;" horiz-adv-x="542" d="M514 260C514 348 492 403 453 452C417 496 350 533 271 533C192 533 125 496 89 452C50 403 28 348 28 260C28 172 50 117 89 68C125 24 192 -13 271 -13C350 -13 417 24 453 68C492 117 514 172 514 260ZM387 260C387 211 380 162 350 129C333 111 305 96 271 96C237 96 209 111 192 129C162 162 155 211 155 260C155 309 162 358 192 391C209 409 237 424 271 424C305 424 333 409 350 391C380 358 387 309 387 260ZM437 601L437 722L320 722L320 601ZM231 601L231 722L114 722L114 601Z"/>
<glyph unicode="&#xf7;" horiz-adv-x="620" d="M380 436L380 575L243 575L243 436ZM574 243L574 357L46 357L46 243ZM380 30L380 169L243 169L243 30Z"/>
<glyph unicode="&#xf8;" horiz-adv-x="542" d="M514 260C514 348 492 403 453 452C441 467 426 480 408 492L437 556L374 584L345 522C322 529 297 533 271 533C192 533 125 496 89 452C50 403 28 348 28 260C28 172 50 117 89 68C98 56 110 45 123 35L86 -47L149 -75L184 2C210 -8 240 -13 271 -13C350 -13 417 24 453 68C492 117 514 172 514 260ZM387 260C387 211 380 162 350 129C333 111 305 96 271 96C256 96 243 98 231 103L358 382C381 350 387 305 387 260ZM299 421L176 151C159 182 155 221 155 260C155 309 162 358 192 391C209 409 237 424 271 424C281 424 290 423 299 421Z"/>
<glyph unicode="&#xf9;" horiz-adv-x="562" d="M498 0L498 520L373 520L373 245C373 203 365 156 335 128C320 113 300 102 271 102C205 102 181 140 181 201L181 520L56 520L56 173C56 62 125 -13 236 -13C302 -13 360 17 385 68L394 0ZM347 566L387 631L203 769L147 678Z"/>
<glyph unicode="&#xfa;" horiz-adv-x="562" d="M498 0L498 520L373 520L373 245C373 203 365 156 335 128C320 113 300 102 271 102C205 102 181 140 181 201L181 520L56 520L56 173C56 62 125 -13 236 -13C302 -13 360 17 385 68L394 0ZM408 678L352 769L168 631L208 566Z"/>
<glyph unicode="&#xfb;" horiz-adv-x="562" d="M498 0L498 520L373 520L373 245C373 203 365 156 335 128C320 113 300 102 271 102C205 102 181 140 181 201L181 520L56 520L56 173C56 62 125 -13 236 -13C302 -13 360 17 385 68L394 0ZM114 633L174 572L275 671L374 575L433 633L313 749L236 749Z"/>
<glyph unicode="&#xfc;" horiz-adv-x="562" d="M498 0L498 520L373 520L373 245C373 203 365 156 335 128C320 113 300 102 271 102C205 102 181 140 181 201L181 520L56 520L56 173C56 62 125 -13 236 -13C302 -13 360 17 385 68L394 0ZM443 601L443 722L326 722L326 601ZM237 601L237 722L120 722L120 601Z"/>
<glyph unicode="&#xfd;" horiz-adv-x="502" d="M516 520L389 520L259 144L123 520L-14 520L191 1L161 -72C148 -103 124 -111 101 -111C73 -111 64 -108 31 -102L31 -206C58 -213 86 -219 127 -219C218 -219 261 -157 287 -89ZM399 675L343 766L159 628L199 563Z"/>
<glyph unicode="&#xfe;" horiz-adv-x="564" d="M536 260C536 342 513 423 462 476C429 510 385 533 325 533C273 533 214 514 188 473L188 722L64 722L64 -199L188 -199L188 48C214 7 273 -12 325 -12C385 -12 429 11 462 45C513 98 536 178 536 260ZM410 260C410 212 402 161 375 127C358 106 334 91 297 91C201 91 182 182 182 260C182 338 201 430 297 430C334 430 358 415 375 394C402 360 410 308 410 260Z"/>
<glyph unicode="&#xff;" horiz-adv-x="502" d="M516 520L389 520L259 144L123 520L-14 520L191 1L161 -72C148 -103 124 -111 101 -111C73 -111 64 -108 31 -102L31 -206C58 -213 86 -219 127 -219C218 -219 261 -157 287 -89ZM420 601L420 722L303 722L303 601ZM214 601L214 722L97 722L97 601Z"/>
<glyph unicode="&#x100;" horiz-adv-x="611" d="M625 0L376 709L235 709L-14 0L116 0L162 136L444 136L490 0ZM404 252L202 252L303 551ZM455 764L455 864L155 864L155 764Z"/>
<glyph unicode="&#x101;" horiz-adv-x="534" d="M517 6L517 98C517 98 509 96 501 96C480 96 472 105 472 129L472 322C472 357 470 394 457 427C427 505 351 533 262 533C146 533 53 481 46 364L167 364C170 412 204 438 262 438C333 438 350 405 350 356L350 324L197 313C98 306 21 249 21 150C21 65 85 -13 209 -13C283 -13 343 23 367 65C371 26 401 -8 455 -8C485 -8 496 -3 517 6ZM350 207C350 130 295 88 217 88C178 88 143 113 143 153C143 195 180 218 218 221L350 231ZM427 611L427 711L107 711L107 611Z"/>
<glyph unicode="&#x102;" horiz-adv-x="611" d="M625 0L376 709L235 709L-14 0L116 0L162 136L444 136L490 0ZM404 252L202 252L303 551ZM474 939L380 939C373 880 350 855 305 855C260 855 238 880 231 939L137 939C145 836 198 764 305 764C412 764 466 836 474 939Z"/>
<glyph unicode="&#x103;" horiz-adv-x="534" d="M517 6L517 98C517 98 509 96 501 96C480 96 472 105 472 129L472 322C472 357 470 394 457 427C427 505 351 533 262 533C146 533 53 481 46 364L167 364C170 412 204 438 262 438C333 438 350 405 350 356L350 324L197 313C98 306 21 249 21 150C21 65 85 -13 209 -13C283 -13 343 23 367 65C371 26 401 -8 455 -8C485 -8 496 -3 517 6ZM350 207C350 130 295 88 217 88C178 88 143 113 143 153C143 195 180 218 218 221L350 231ZM435 747L341 747C334 688 311 663 266 663C221 663 199 688 192 747L98 747C106 644 159 572 266 572C373 572 427 644 435 747Z"/>
<glyph unicode="&#x104;" horiz-adv-x="611" d="M453 -91C453 -147 501 -195 565 -195L573 -195C597 -195 625 -188 625 -188L625 -106C625 -106 613 -108 594 -109L584 -109C562 -109 549 -95 549 -75C549 -47 587 -14 625 0L376 709L235 709L-14 0L116 0L162 136L444 136L490 0L500 0C477 -18 453 -47 453 -91ZM404 252L202 252L303 551Z"/>
<glyph unicode="&#x105;" horiz-adv-x="534" d="M517 0L517 98C517 98 509 96 501 96C480 96 472 105 472 129L472 322C472 357 470 394 457 427C427 505 351 533 262 533C146 533 53 481 46 364L167 364C170 412 204 438 262 438C333 438 350 405 350 356L350 324L197 313C98 306 21 249 21 150C21 65 85 -13 209 -13C283 -13 343 23 367 65C369 41 381 20 402 6C376 -10 345 -41 345 -91C345 -147 393 -195 457 -195L465 -195C489 -195 517 -188 517 -188L517 -106C517 -106 505 -108 486 -109L476 -109C454 -109 441 -95 441 -75C441 -47 479 -14 517 0ZM350 207C350 130 295 88 217 88C178 88 143 113 143 153C143 195 180 218 218 221L350 231Z"/>
<glyph unicode="&#x106;" horiz-adv-x="600" d="M586 226L454 226C451 195 440 170 422 148C399 119 359 103 315 103C274 103 234 120 206 150C157 201 157 289 157 354C157 419 157 507 206 558C234 588 274 605 315 605C359 605 399 590 422 561C440 539 451 517 454 486L586 486C580 542 559 598 518 640C465 694 391 722 315 722C239 722 168 696 114 642C37 565 26 470 26 354C26 238 37 143 114 66C168 12 239 -13 315 -13C391 -13 465 17 518 71C559 113 580 170 586 226ZM470 876L414 967L230 829L270 764Z"/>
<glyph unicode="&#x107;" horiz-adv-x="503" d="M484 184L361 184C360 165 354 149 346 136C331 113 304 97 266 97C232 97 207 112 190 130C160 163 155 212 155 261C155 310 160 360 190 393C207 411 232 425 266 425C304 425 331 409 346 386C354 373 360 357 361 338L484 338C482 379 468 420 444 451C408 496 345 533 266 533C187 533 121 495 85 451C46 402 28 337 28 261C28 185 46 120 85 71C121 27 187 -11 266 -11C345 -11 408 26 444 71C468 102 482 143 484 184ZM444 678L388 769L204 631L244 566Z"/>
<glyph unicode="&#x108;" horiz-adv-x="600" d="M586 226L454 226C451 195 440 170 422 148C399 119 359 103 315 103C274 103 234 120 206 150C157 201 157 289 157 354C157 419 157 507 206 558C234 588 274 605 315 605C359 605 399 590 422 561C440 539 451 517 454 486L586 486C580 542 559 598 518 640C465 694 391 722 315 722C239 722 168 696 114 642C37 565 26 470 26 354C26 238 37 143 114 66C168 12 239 -13 315 -13C391 -13 465 17 518 71C559 113 580 170 586 226ZM150 833L210 772L311 871L410 775L469 833L349 949L272 949Z"/>
<glyph unicode="&#x109;" horiz-adv-x="503" d="M484 184L361 184C360 165 354 149 346 136C331 113 304 97 266 97C232 97 207 112 190 130C160 163 155 212 155 261C155 310 160 360 190 393C207 411 232 425 266 425C304 425 331 409 346 386C354 373 360 357 361 338L484 338C482 379 468 420 444 451C408 496 345 533 266 533C187 533 121 495 85 451C46 402 28 337 28 261C28 185 46 120 85 71C121 27 187 -11 266 -11C345 -11 408 26 444 71C468 102 482 143 484 184ZM100 633L160 572L261 671L360 575L419 633L299 749L222 749Z"/>
<glyph unicode="&#x10a;" horiz-adv-x="600" d="M586 226L454 226C451 195 440 170 422 148C399 119 359 103 315 103C274 103 234 120 206 150C157 201 157 289 157 354C157 419 157 507 206 558C234 588 274 605 315 605C359 605 399 590 422 561C440 539 451 517 454 486L586 486C580 542 559 598 518 640C465 694 391 722 315 722C239 722 168 696 114 642C37 565 26 470 26 354C26 238 37 143 114 66C168 12 239 -13 315 -13C391 -13 465 17 518 71C559 113 580 170 586 226ZM378 791L378 912L261 912L261 791Z"/>
<glyph unicode="&#x10b;" horiz-adv-x="503" d="M484 184L361 184C360 165 354 149 346 136C331 113 304 97 266 97C232 97 207 112 190 130C160 163 155 212 155 261C155 310 160 360 190 393C207 411 232 425 266 425C304 425 331 409 346 386C354 373 360 357 361 338L484 338C482 379 468 420 444 451C408 496 345 533 266 533C187 533 121 495 85 451C46 402 28 337 28 261C28 185 46 120 85 71C121 27 187 -11 266 -11C345 -11 408 26 444 71C468 102 482 143 484 184ZM320 601L320 722L203 722L203 601Z"/>
<glyph unicode="&#x10c;" horiz-adv-x="600" d="M586 226L454 226C451 195 440 170 422 148C399 119 359 103 315 103C274 103 234 120 206 150C157 201 157 289 157 354C157 419 157 507 206 558C234 588 274 605 315 605C359 605 399 590 422 561C440 539 451 517 454 486L586 486C580 542 559 598 518 640C465 694 391 722 315 722C239 722 168 696 114 642C37 565 26 470 26 354C26 238 37 143 114 66C168 12 239 -13 315 -13C391 -13 465 17 518 71C559 113 580 170 586 226ZM274 772L351 772L471 873L417 935L312 849L205 936L152 873Z"/>
<glyph unicode="&#x10d;" horiz-adv-x="503" d="M484 184L361 184C360 165 354 149 346 136C331 113 304 97 266 97C232 97 207 112 190 130C160 163 155 212 155 261C155 310 160 360 190 393C207 411 232 425 266 425C304 425 331 409 346 386C354 373 360 357 361 338L484 338C482 379 468 420 444 451C408 496 345 533 266 533C187 533 121 495 85 451C46 402 28 337 28 261C28 185 46 120 85 71C121 27 187 -11 266 -11C345 -11 408 26 444 71C468 102 482 143 484 184ZM213 572L290 572L410 688L351 746L252 650L151 749L91 688Z"/>
<glyph unicode="&#x10e;" horiz-adv-x="656" d="M627 355C627 453 617 558 544 633C497 682 426 709 345 709L69 709L69 0L345 0C426 0 497 27 544 76C617 151 627 257 627 355ZM496 355C496 290 495 206 445 156C421 132 386 116 345 116L198 116L198 593L345 593C386 593 421 577 445 553C495 503 496 420 496 355ZM264 772L341 772L461 873L407 935L302 849L195 936L142 873Z"/>
<glyph unicode="&#x10f;" horiz-adv-x="593" d="M509 0L509 722L384 722L384 484C362 511 314 533 248 533C195 533 153 517 121 491C59 440 28 361 28 259C28 161 58 83 120 32C152 6 195 -12 247 -12C304 -12 362 9 393 57L401 0ZM390 261C390 186 370 93 272 93C233 93 206 111 188 134C162 168 155 216 155 261C155 306 162 353 188 387C206 410 233 428 272 428C370 428 390 336 390 261ZM644 622L644 722L539 722L539 613L589 613C589 573 582 561 544 541L568 494C628 522 644 557 644 622Z"/>
<glyph unicode="&#x110;" horiz-adv-x="656" d="M627 355C627 453 617 558 544 633C497 682 426 709 345 709L69 709L69 410L6 410L6 326L69 326L69 0L345 0C426 0 497 27 544 76C617 151 627 257 627 355ZM496 355C496 290 495 206 445 156C421 132 386 116 345 116L198 116L198 326L329 326L329 410L198 410L198 593L345 593C386 593 421 577 445 553C495 503 496 420 496 355Z"/>
<glyph unicode="&#x111;" horiz-adv-x="573" d="M509 0L509 567L560 567L560 651L509 651L509 722L384 722L384 651L208 651L208 567L384 567L384 484C362 511 314 533 248 533C195 533 153 517 121 491C59 440 28 361 28 259C28 161 58 83 120 32C152 6 195 -12 247 -12C304 -12 362 9 393 57L401 0ZM390 261C390 186 370 93 272 93C233 93 206 111 188 134C162 168 155 216 155 261C155 306 162 353 188 387C206 410 233 428 272 428C370 428 390 336 390 261Z"/>
<glyph unicode="&#x112;" horiz-adv-x="600" d="M574 0L574 117L198 117L198 311L529 311L529 427L198 427L198 592L574 592L574 709L69 709L69 0ZM462 764L462 864L162 864L162 764Z"/>
<glyph unicode="&#x113;" horiz-adv-x="529" d="M504 256C506 321 497 380 459 437C416 502 346 533 269 533C198 533 142 507 103 467C53 416 28 342 28 259C28 174 56 101 108 51C149 12 201 -13 272 -13C338 -13 403 8 447 60C467 84 488 125 491 156L371 156C366 137 357 123 346 112C328 94 306 87 270 87C236 87 211 102 193 119C168 143 154 181 155 221L503 221C503 232 504 256 504 256ZM379 312L154 312C155 346 163 370 181 393C199 417 230 433 268 433C304 433 330 421 347 403C367 381 378 351 379 312ZM424 611L424 711L104 711L104 611Z"/>
<glyph unicode="&#x116;" horiz-adv-x="600" d="M574 0L574 117L198 117L198 311L529 311L529 427L198 427L198 592L574 592L574 709L69 709L69 0ZM380 791L380 912L263 912L263 791Z"/>
<glyph unicode="&#x117;" horiz-adv-x="529" d="M504 256C506 321 497 380 459 437C416 502 346 533 269 533C198 533 142 507 103 467C53 416 28 342 28 259C28 174 56 101 108 51C149 12 201 -13 272 -13C338 -13 403 8 447 60C467 84 488 125 491 156L371 156C366 137 357 123 346 112C328 94 306 87 270 87C236 87 211 102 193 119C168 143 154 181 155 221L503 221C503 232 504 256 504 256ZM379 312L154 312C155 346 163 370 181 393C199 417 230 433 268 433C304 433 330 421 347 403C367 381 378 351 379 312ZM323 601L323 722L206 722L206 601Z"/>
<glyph unicode="&#x118;" horiz-adv-x="600" d="M402 -91C402 -147 450 -195 514 -195L522 -195C546 -195 574 -188 574 -188L574 -106C574 -106 562 -108 543 -109L533 -109C511 -109 498 -95 498 -75C498 -47 536 -14 574 0L574 117L198 117L198 311L529 311L529 427L198 427L198 592L574 592L574 709L69 709L69 0L449 0C426 -18 402 -47 402 -91Z"/>
<glyph unicode="&#x119;" horiz-adv-x="529" d="M503 221C504 238 504 255 504 272C504 331 494 385 459 437C416 502 346 533 269 533C198 533 142 507 103 467C53 416 28 342 28 259C28 174 56 101 108 51C149 12 201 -13 272 -13C288 -13 304 -11 320 -9C302 -27 286 -54 286 -91C286 -147 334 -195 398 -195L406 -195C430 -195 458 -188 458 -188L458 -106C458 -106 446 -108 427 -109L417 -109C395 -109 382 -95 382 -66C382 -9 418 23 447 60C466 85 488 125 491 156L371 156C366 137 357 123 346 112C328 94 306 87 270 87C236 87 211 102 193 119C168 143 155 181 155 221ZM379 312L154 312C155 346 163 370 181 393C199 417 230 433 268 433C304 433 330 421 347 403C367 381 378 351 379 312Z"/>
<glyph unicode="&#x11a;" horiz-adv-x="600" d="M574 0L574 117L198 117L198 311L529 311L529 427L198 427L198 592L574 592L574 709L69 709L69 0ZM284 772L361 772L481 873L427 935L322 849L215 936L162 873Z"/>
<glyph unicode="&#x11b;" horiz-adv-x="529" d="M504 256C506 321 497 380 459 437C416 502 346 533 269 533C198 533 142 507 103 467C53 416 28 342 28 259C28 174 56 101 108 51C149 12 201 -13 272 -13C338 -13 403 8 447 60C467 84 488 125 491 156L371 156C366 137 357 123 346 112C328 94 306 87 270 87C236 87 211 102 193 119C168 143 154 181 155 221L503 221C503 232 504 256 504 256ZM379 312L154 312C155 346 163 370 181 393C199 417 230 433 268 433C304 433 330 421 347 403C367 381 378 351 379 312ZM230 572L307 572L427 688L368 746L269 650L168 749L108 688Z"/>
<glyph unicode="&#x11c;" horiz-adv-x="656" d="M607 0L607 388L313 388L313 281L482 281C482 227 474 183 436 143C412 118 376 102 330 102C289 102 243 117 215 147C166 198 159 289 159 354C159 419 165 507 214 558C242 588 289 606 330 606C379 606 418 592 443 563C458 545 472 526 474 498L606 498C602 560 576 605 541 641C493 690 418 722 331 722C255 722 174 693 120 639C43 562 28 470 28 354C28 238 46 143 120 66C176 7 249 -14 331 -13C420 -12 488 37 509 78L524 0ZM163 833L223 772L324 871L423 775L482 833L362 949L285 949Z"/>
<glyph unicode="&#x11d;" horiz-adv-x="523" d="M522 -69C522 -19 504 25 459 56C410 90 342 91 290 91L204 91C178 91 147 98 147 129C147 146 161 159 173 166C199 157 228 152 257 152C369 152 469 222 469 341C469 376 459 407 442 435C450 460 476 468 505 468C508 468 512 467 515 467L515 564C507 566 489 566 481 566C437 566 397 546 375 501C341 521 300 533 257 533C140 533 44 466 44 342C44 289 64 246 96 214C54 188 34 153 34 109C34 75 53 38 86 20C46 0 24 -41 24 -86C24 -135 47 -172 87 -200C141 -238 208 -243 271 -243C387 -243 522 -206 522 -69ZM349 342C349 286 314 246 257 246C200 246 165 286 165 342C165 398 200 439 257 439C314 439 349 398 349 342ZM404 -72C404 -141 316 -144 266 -144C217 -144 135 -138 135 -72C135 -39 155 -16 182 -8L280 -8C327 -8 404 -8 404 -72ZM103 633L163 572L264 671L363 575L422 633L302 749L225 749Z"/>
<glyph unicode="&#x11e;" horiz-adv-x="656" d="M607 0L607 388L313 388L313 281L482 281C482 227 474 183 436 143C412 118 376 102 330 102C289 102 243 117 215 147C166 198 159 289 159 354C159 419 165 507 214 558C242 588 289 606 330 606C379 606 418 592 443 563C458 545 472 526 474 498L606 498C602 560 576 605 541 641C493 690 418 722 331 722C255 722 174 693 120 639C43 562 28 470 28 354C28 238 46 143 120 66C176 7 249 -14 331 -13C420 -12 488 37 509 78L524 0ZM496 939L402 939C395 880 372 855 327 855C282 855 260 880 253 939L159 939C167 836 220 764 327 764C434 764 488 836 496 939Z"/>
<glyph unicode="&#x11f;" horiz-adv-x="523" d="M522 -69C522 -19 504 25 459 56C410 90 342 91 290 91L204 91C178 91 147 98 147 129C147 146 161 159 173 166C199 157 228 152 257 152C369 152 469 222 469 341C469 376 459 407 442 435C450 460 476 468 505 468C508 468 512 467 515 467L515 564C507 566 489 566 481 566C437 566 397 546 375 501C341 521 300 533 257 533C140 533 44 466 44 342C44 289 64 246 96 214C54 188 34 153 34 109C34 75 53 38 86 20C46 0 24 -41 24 -86C24 -135 47 -172 87 -200C141 -238 208 -243 271 -243C387 -243 522 -206 522 -69ZM349 342C349 286 314 246 257 246C200 246 165 286 165 342C165 398 200 439 257 439C314 439 349 398 349 342ZM404 -72C404 -141 316 -144 266 -144C217 -144 135 -138 135 -72C135 -39 155 -16 182 -8L280 -8C327 -8 404 -8 404 -72ZM420 747L326 747C319 688 296 663 251 663C206 663 184 688 177 747L83 747C91 644 144 572 251 572C358 572 412 644 420 747Z"/>
<glyph unicode="&#x120;" horiz-adv-x="656" d="M607 0L607 388L313 388L313 281L482 281C482 227 474 183 436 143C412 118 376 102 330 102C289 102 243 117 215 147C166 198 159 289 159 354C159 419 165 507 214 558C242 588 289 606 330 606C379 606 418 592 443 563C458 545 472 526 474 498L606 498C602 560 576 605 541 641C493 690 418 722 331 722C255 722 174 693 120 639C43 562 28 470 28 354C28 238 46 143 120 66C176 7 249 -14 331 -13C420 -12 488 37 509 78L524 0ZM386 791L386 912L269 912L269 791Z"/>
<glyph unicode="&#x121;" horiz-adv-x="523" d="M522 -69C522 -19 504 25 459 56C410 90 342 91 290 91L204 91C178 91 147 98 147 129C147 146 161 159 173 166C199 157 228 152 257 152C369 152 469 222 469 341C469 376 459 407 442 435C450 460 476 468 505 468C508 468 512 467 515 467L515 564C507 566 489 566 481 566C437 566 397 546 375 501C341 521 300 533 257 533C140 533 44 466 44 342C44 289 64 246 96 214C54 188 34 153 34 109C34 75 53 38 86 20C46 0 24 -41 24 -86C24 -135 47 -172 87 -200C141 -238 208 -243 271 -243C387 -243 522 -206 522 -69ZM349 342C349 286 314 246 257 246C200 246 165 286 165 342C165 398 200 439 257 439C314 439 349 398 349 342ZM404 -72C404 -141 316 -144 266 -144C217 -144 135 -138 135 -72C135 -39 155 -16 182 -8L280 -8C327 -8 404 -8 404 -72ZM320 601L320 722L203 722L203 601Z"/>
<glyph unicode="&#x122;" horiz-adv-x="656" d="M607 0L607 388L313 388L313 281L482 281C482 227 474 183 436 143C412 118 376 102 330 102C289 102 243 117 215 147C166 198 159 289 159 354C159 419 165 507 214 558C242 588 289 606 330 606C379 606 418 592 443 563C458 545 472 526 474 498L606 498C602 560 576 605 541 641C493 690 418 722 331 722C255 722 174 693 120 639C43 562 28 470 28 354C28 238 46 143 120 66C176 7 249 -14 331 -13C420 -12 488 37 509 78L524 0ZM381 -123L381 -42L275 -42L275 -131L327 -131C327 -169 297 -179 282 -184L303 -220C327 -213 381 -184 381 -123Z"/>
<glyph unicode="&#x123;" horiz-adv-x="523" d="M522 -69C522 -19 504 25 459 56C410 90 342 91 290 91L204 91C178 91 147 98 147 129C147 146 161 159 173 166C199 157 228 152 257 152C369 152 469 222 469 341C469 376 459 407 442 435C450 460 476 468 505 468C508 468 512 467 515 467L515 564C507 566 489 566 481 566C437 566 397 546 375 501C341 521 300 533 257 533C140 533 44 466 44 342C44 289 64 246 96 214C54 188 34 153 34 109C34 75 53 38 86 20C46 0 24 -41 24 -86C24 -135 47 -172 87 -200C141 -238 208 -243 271 -243C387 -243 522 -206 522 -69ZM349 342C349 286 314 246 257 246C200 246 165 286 165 342C165 398 200 439 257 439C314 439 349 398 349 342ZM404 -72C404 -141 316 -144 266 -144C217 -144 135 -138 135 -72C135 -39 155 -16 182 -8L280 -8C327 -8 404 -8 404 -72ZM206 653L206 572L312 572L312 661L260 661C260 699 290 709 305 714L284 750C260 743 206 714 206 653Z"/>
<glyph unicode="&#x124;" horiz-adv-x="687" d="M618 0L618 709L489 709L489 432L198 432L198 709L69 709L69 0L198 0L198 309L489 309L489 0ZM179 833L239 772L340 871L439 775L498 833L378 949L301 949Z"/>
<glyph unicode="&#x125;" horiz-adv-x="563" d="M507 0L507 347C507 454 442 533 331 533C277 533 219 509 189 465L189 722L64 722L64 0L189 0L189 274C189 338 221 418 296 418C362 418 382 381 382 321L382 0ZM53 808L113 747L214 846L313 750L372 808L252 924L175 924Z"/>
<glyph unicode="&#x126;" horiz-adv-x="687" d="M618 0L618 524L679 524L679 608L618 608L618 709L489 709L489 608L198 608L198 709L69 709L69 608L7 608L7 524L69 524L69 0L198 0L198 309L489 309L489 0ZM198 432L198 524L489 524L489 432Z"/>
<glyph unicode="&#x127;" horiz-adv-x="563" d="M507 0L507 347C507 454 442 533 331 533C277 533 219 509 189 465L189 561L366 561L366 645L189 645L189 722L64 722L64 645L14 645L14 561L64 561L64 0L189 0L189 274C189 338 221 418 296 418C362 418 382 381 382 321L382 0Z"/>
<glyph unicode="&#x12a;" horiz-adv-x="269" d="M200 0L200 709L69 709L69 0ZM284 764L284 864L-16 864L-16 764Z"/>
<glyph unicode="&#x12b;" horiz-adv-x="258" d="M193 0L193 520L66 520L66 0ZM289 611L289 711L-31 711L-31 611Z"/>
<glyph unicode="&#x12e;" horiz-adv-x="269" d="M28 -91C28 -147 76 -195 140 -195L148 -195C172 -195 200 -188 200 -188L200 -106C200 -106 188 -108 169 -109L159 -109C137 -109 124 -95 124 -75C124 -47 162 -14 200 0L200 709L69 709L69 0L75 0C52 -18 28 -47 28 -91Z"/>
<glyph unicode="&#x12f;" horiz-adv-x="258" d="M21 -91C21 -147 69 -195 133 -195L141 -195C165 -195 193 -188 193 -188L193 -106C193 -106 181 -108 162 -109L152 -109C130 -109 117 -95 117 -75C117 -47 155 -14 193 0L193 520L66 520L66 0C45 -18 21 -47 21 -91ZM196 592L196 721L62 721L62 592Z"/>
<glyph unicode="&#x130;" horiz-adv-x="269" d="M200 0L200 709L69 709L69 0ZM192 791L192 912L75 912L75 791Z"/>
<glyph unicode="&#x131;" horiz-adv-x="258" d="M193 0L193 520L66 520L66 0Z"/>
<glyph unicode="&#x134;" horiz-adv-x="463" d="M414 207L414 709L285 709L285 197C285 139 257 101 199 101C173 101 151 112 137 127C115 151 111 187 111 222L-14 222C-14 145 6 87 48 44C83 8 132 -14 199 -14C335 -14 414 73 414 207ZM96 833L156 772L257 871L356 775L415 833L295 949L218 949Z"/>
<glyph unicode="&#x135;" horiz-adv-x="268" d="M203 -72L203 520L77 520L77 -48C77 -83 56 -104 17 -104C-2 -104 -7 -102 -44 -98L-44 -204C-21 -210 -3 -213 13 -215C29 -217 43 -217 57 -217C150 -217 203 -161 203 -72ZM-24 633L36 572L137 671L236 575L295 633L175 749L98 749Z"/>
<glyph unicode="&#x136;" horiz-adv-x="650" d="M664 0L410 441L638 709L481 709L198 382L198 709L69 709L69 0L198 0L198 192L320 335L512 0ZM389 -123L389 -42L283 -42L283 -131L335 -131C335 -169 305 -179 290 -184L311 -220C335 -213 389 -184 389 -123Z"/>
<glyph unicode="&#x137;" horiz-adv-x="549" d="M563 0L357 319L543 520L386 520L189 309L189 722L64 722L64 0L189 0L189 137L272 227L418 0ZM348 -123L348 -42L242 -42L242 -131L294 -131C294 -169 264 -179 249 -184L270 -220C294 -213 348 -184 348 -123Z"/>
<glyph unicode="&#x139;" horiz-adv-x="522" d="M527 0L527 122L198 122L198 709L69 709L69 0ZM309 876L253 967L69 829L109 764Z"/>
<glyph unicode="&#x13a;" horiz-adv-x="274" d="M258 1L258 106C251 106 248 105 237 105C194 105 187 125 187 155L187 723L61 723L61 134C61 35 118 -6 203 -6C228 -6 233 -4 258 1ZM287 876L231 967L47 829L87 764Z"/>
<glyph unicode="&#x13b;" horiz-adv-x="522" d="M527 0L527 122L198 122L198 709L69 709L69 0ZM347 -123L347 -42L241 -42L241 -131L293 -131C293 -169 263 -179 248 -184L269 -220C293 -213 347 -184 347 -123Z"/>
<glyph unicode="&#x13c;" horiz-adv-x="274" d="M258 1L258 106C251 106 248 105 237 105C194 105 187 125 187 155L187 723L61 723L61 134C61 35 118 -6 203 -6C228 -6 233 -4 258 1ZM190 -123L190 -42L84 -42L84 -131L136 -131C136 -169 106 -179 91 -184L112 -220C136 -213 190 -184 190 -123Z"/>
<glyph unicode="&#x13d;" horiz-adv-x="522" d="M527 0L527 122L198 122L198 709L69 709L69 0ZM371 662L371 762L266 762L266 653L316 653C316 613 309 601 271 581L295 534C355 562 371 597 371 662Z"/>
<glyph unicode="&#x13e;" horiz-adv-x="274" d="M258 1L258 106C251 106 248 105 237 105C194 105 187 125 187 155L187 723L61 723L61 134C61 35 118 -6 203 -6C228 -6 233 -4 258 1ZM322 622L322 722L217 722L217 613L267 613C267 573 260 561 222 541L246 494C306 522 322 557 322 622Z"/>
<glyph unicode="&#x141;" horiz-adv-x="538" d="M543 0L543 122L214 122L214 355L367 450L323 520L214 451L214 709L85 709L85 370L-11 310L32 241L85 274L85 0Z"/>
<glyph unicode="&#x142;" horiz-adv-x="361" d="M359 464L315 533L250 492L250 723L124 723L124 412L36 356L79 287L124 315L124 134C124 35 181 -6 266 -6C291 -6 296 -4 321 1L321 106C314 106 311 105 300 105C257 105 250 125 250 155L250 395Z"/>
<glyph unicode="&#x143;" horiz-adv-x="705" d="M636 0L636 709L509 709L509 229L206 709L69 709L69 0L196 0L196 487L503 0ZM512 876L456 967L272 829L312 764Z"/>
<glyph unicode="&#x144;" horiz-adv-x="563" d="M507 0L507 347C507 455 442 533 331 533C271 533 209 508 178 453L169 520L64 520L64 0L189 0L189 212C189 256 188 310 206 351C223 389 252 417 296 417C362 417 382 380 382 319L382 0ZM451 678L395 769L211 631L251 566Z"/>
<glyph unicode="&#x145;" horiz-adv-x="705" d="M636 0L636 709L509 709L509 229L206 709L69 709L69 0L196 0L196 487L503 0ZM416 -123L416 -42L310 -42L310 -131L362 -131C362 -169 332 -179 317 -184L338 -220C362 -213 416 -184 416 -123Z"/>
<glyph unicode="&#x146;" horiz-adv-x="563" d="M507 0L507 347C507 455 442 533 331 533C271 533 209 508 178 453L169 520L64 520L64 0L189 0L189 212C189 256 188 310 206 351C223 389 252 417 296 417C362 417 382 380 382 319L382 0ZM342 -123L342 -42L236 -42L236 -131L288 -131C288 -169 258 -179 243 -184L264 -220C288 -213 342 -184 342 -123Z"/>
<glyph unicode="&#x147;" horiz-adv-x="705" d="M636 0L636 709L509 709L509 229L206 709L69 709L69 0L196 0L196 487L503 0ZM309 772L386 772L506 873L452 935L347 849L240 936L187 873Z"/>
<glyph unicode="&#x148;" horiz-adv-x="563" d="M507 0L507 347C507 455 442 533 331 533C271 533 209 508 178 453L169 520L64 520L64 0L189 0L189 212C189 256 188 310 206 351C223 389 252 417 296 417C362 417 382 380 382 319L382 0ZM249 572L326 572L446 688L387 746L288 650L187 749L127 688Z"/>
<glyph unicode="&#x14c;" horiz-adv-x="644" d="M616 354C616 470 603 565 526 642C472 696 398 722 322 722C246 722 172 696 118 642C41 565 28 470 28 354C28 238 41 144 118 67C172 13 246 -13 322 -13C398 -13 472 13 526 67C603 144 616 238 616 354ZM485 354C485 289 483 202 434 151C406 121 363 104 322 104C281 104 238 121 210 151C161 202 159 289 159 354C159 419 161 507 210 558C238 588 281 605 322 605C363 605 406 588 434 558C483 507 485 419 485 354ZM472 764L472 864L172 864L172 764Z"/>
<glyph unicode="&#x14d;" horiz-adv-x="542" d="M514 260C514 348 492 403 453 452C417 496 350 533 271 533C192 533 125 496 89 452C50 403 28 348 28 260C28 172 50 117 89 68C125 24 192 -13 271 -13C350 -13 417 24 453 68C492 117 514 172 514 260ZM387 260C387 211 380 162 350 129C333 111 305 96 271 96C237 96 209 111 192 129C162 162 155 211 155 260C155 309 162 358 192 391C209 409 237 424 271 424C305 424 333 409 350 391C380 358 387 309 387 260ZM431 611L431 711L111 711L111 611Z"/>
<glyph unicode="&#x150;" horiz-adv-x="644" d="M616 354C616 470 603 565 526 642C472 696 398 722 322 722C246 722 172 696 118 642C41 565 28 470 28 354C28 238 41 144 118 67C172 13 246 -13 322 -13C398 -13 472 13 526 67C603 144 616 238 616 354ZM485 354C485 289 483 202 434 151C406 121 363 104 322 104C281 104 238 121 210 151C161 202 159 289 159 354C159 419 161 507 210 558C238 588 281 605 322 605C363 605 406 588 434 558C483 507 485 419 485 354ZM591 876L532 968L347 824L389 759ZM376 876L317 968L132 824L174 759Z"/>
<glyph unicode="&#x151;" horiz-adv-x="542" d="M514 260C514 348 492 403 453 452C417 496 350 533 271 533C192 533 125 496 89 452C50 403 28 348 28 260C28 172 50 117 89 68C125 24 192 -13 271 -13C350 -13 417 24 453 68C492 117 514 172 514 260ZM387 260C387 211 380 162 350 129C333 111 305 96 271 96C237 96 209 111 192 129C162 162 155 211 155 260C155 309 162 358 192 391C209 409 237 424 271 424C305 424 333 409 350 391C380 358 387 309 387 260ZM540 683L481 775L296 631L338 566ZM325 683L266 775L81 631L123 566Z"/>
<glyph unicode="&#x152;" horiz-adv-x="1002" d="M976 0L976 117L600 117L600 311L931 311L931 427L600 427L600 592L976 592L976 709L471 709L471 673C438 700 373 722 314 722C231 722 158 692 109 642C34 565 28 457 28 355C28 253 34 144 109 67C158 17 231 -13 314 -13C373 -13 434 8 471 36L471 0ZM469 355C469 287 473 197 420 145C395 120 358 104 314 104C270 104 233 120 208 145C155 197 159 287 159 355C159 423 155 512 208 564C233 589 270 605 314 605C358 605 395 589 420 564C473 512 469 423 469 355Z"/>
<glyph unicode="&#x153;" horiz-adv-x="876" d="M851 256C853 321 845 379 807 436C764 501 695 533 618 533C547 533 492 506 453 466L444 457C408 499 344 533 267 533C188 533 122 496 86 452C47 403 28 335 28 259C28 183 46 118 85 69C121 25 188 -13 267 -13C344 -13 409 22 445 64C449 59 454 55 458 51C499 12 550 -13 621 -13C687 -13 751 8 795 60C815 84 836 125 839 156L719 156C714 137 705 122 694 111C676 93 653 84 617 84C583 84 562 98 544 115C519 139 505 181 506 221L850 221C850 232 851 256 851 256ZM379 259C379 210 375 160 345 127C328 109 301 94 267 94C233 94 206 109 189 127C159 160 155 210 155 259C155 308 159 359 189 392C206 410 233 425 267 425C301 425 328 410 345 392C375 359 379 308 379 259ZM726 312L505 312C506 346 513 371 531 394C549 418 579 434 617 434C653 434 678 422 695 404C715 382 725 351 726 312Z"/>
<glyph unicode="&#x154;" horiz-adv-x="631" d="M614 0L484 290C562 319 614 394 614 489C614 603 537 709 368 709L69 709L69 0L199 0L199 268L356 268L474 0ZM485 489C485 422 443 384 370 384L198 384L198 596L368 596C441 596 485 546 485 489ZM445 876L389 967L205 829L245 764Z"/>
<glyph unicode="&#x155;" horiz-adv-x="367" d="M367 404L367 524C354 526 341 527 328 527C267 527 205 502 181 442L170 520L64 520L64 0L190 0L190 262C190 346 236 409 324 409C338 409 353 407 367 404ZM383 678L327 769L143 631L183 566Z"/>
<glyph unicode="&#x156;" horiz-adv-x="631" d="M614 0L484 290C562 319 614 394 614 489C614 603 537 709 368 709L69 709L69 0L199 0L199 268L356 268L474 0ZM485 489C485 422 443 384 370 384L198 384L198 596L368 596C441 596 485 546 485 489ZM388 -123L388 -42L282 -42L282 -131L334 -131C334 -169 304 -179 289 -184L310 -220C334 -213 388 -184 388 -123Z"/>
<glyph unicode="&#x157;" horiz-adv-x="367" d="M367 404L367 524C354 526 341 527 328 527C267 527 205 502 181 442L170 520L64 520L64 0L190 0L190 262C190 346 236 409 324 409C338 409 353 407 367 404ZM182 -123L182 -42L76 -42L76 -131L128 -131C128 -169 98 -179 83 -184L104 -220C128 -213 182 -184 182 -123Z"/>
<glyph unicode="&#x158;" horiz-adv-x="631" d="M614 0L484 290C562 319 614 394 614 489C614 603 537 709 368 709L69 709L69 0L199 0L199 268L356 268L474 0ZM485 489C485 422 443 384 370 384L198 384L198 596L368 596C441 596 485 546 485 489ZM272 772L349 772L469 873L415 935L310 849L203 936L150 873Z"/>
<glyph unicode="&#x159;" horiz-adv-x="367" d="M367 404L367 524C354 526 341 527 328 527C267 527 205 502 181 442L170 520L64 520L64 0L190 0L190 262C190 346 236 409 324 409C338 409 353 407 367 404ZM181 572L258 572L378 688L319 746L220 650L119 749L59 688Z"/>
<glyph unicode="&#x15a;" horiz-adv-x="604" d="M585 211C585 332 496 401 390 416C344 422 281 427 236 434C194 441 164 465 164 511C164 537 173 555 188 571C217 601 263 610 303 610C341 610 388 596 411 572C428 554 441 527 442 502L574 502C573 561 544 613 502 653C454 698 380 722 304 722C221 722 143 693 96 647C59 610 34 563 34 507C34 389 116 325 214 309C261 301 323 299 371 290C415 282 455 258 455 206C455 172 443 155 427 138C400 110 353 100 304 100C263 100 215 108 185 138C164 159 148 190 148 225L16 225C16 158 48 98 90 60C148 7 227 -13 302 -13C389 -13 472 9 526 63C561 98 585 145 585 211ZM462 876L406 967L222 829L262 764Z"/>
<glyph unicode="&#x15b;" horiz-adv-x="493" d="M468 161C468 243 408 295 326 308C275 316 262 317 215 323C187 327 155 338 155 375C155 402 173 421 195 430C214 438 231 438 249 438C275 438 302 429 317 414C329 401 338 385 338 365L457 365C457 403 439 442 411 472C373 513 310 533 248 533C183 533 128 514 90 481C59 454 37 417 37 364C37 298 85 240 156 225C202 215 254 212 300 205C332 200 352 180 352 150C352 93 288 84 246 84C210 84 187 91 167 107C151 120 139 145 139 168L22 168C22 119 47 76 77 47C120 6 179 -13 245 -13C316 -13 381 5 423 47C450 74 468 111 468 161ZM406 678L350 769L166 631L206 566Z"/>
<glyph unicode="&#x15c;" horiz-adv-x="604" d="M585 211C585 332 496 401 390 416C344 422 281 427 236 434C194 441 164 465 164 511C164 537 173 555 188 571C217 601 263 610 303 610C341 610 388 596 411 572C428 554 441 527 442 502L574 502C573 561 544 613 502 653C454 698 380 722 304 722C221 722 143 693 96 647C59 610 34 563 34 507C34 389 116 325 214 309C261 301 323 299 371 290C415 282 455 258 455 206C455 172 443 155 427 138C400 110 353 100 304 100C263 100 215 108 185 138C164 159 148 190 148 225L16 225C16 158 48 98 90 60C148 7 227 -13 302 -13C389 -13 472 9 526 63C561 98 585 145 585 211ZM143 833L203 772L304 871L403 775L462 833L342 949L265 949Z"/>
<glyph unicode="&#x15d;" horiz-adv-x="493" d="M468 161C468 243 408 295 326 308C275 316 262 317 215 323C187 327 155 338 155 375C155 402 173 421 195 430C214 438 231 438 249 438C275 438 302 429 317 414C329 401 338 385 338 365L457 365C457 403 439 442 411 472C373 513 310 533 248 533C183 533 128 514 90 481C59 454 37 417 37 364C37 298 85 240 156 225C202 215 254 212 300 205C332 200 352 180 352 150C352 93 288 84 246 84C210 84 187 91 167 107C151 120 139 145 139 168L22 168C22 119 47 76 77 47C120 6 179 -13 245 -13C316 -13 381 5 423 47C450 74 468 111 468 161ZM89 633L149 572L250 671L349 575L408 633L288 749L211 749Z"/>
<glyph unicode="&#x15e;" horiz-adv-x="604" d="M585 211C585 332 496 401 390 416C344 422 281 427 236 434C194 441 164 465 164 511C164 537 173 555 188 571C217 601 263 610 303 610C341 610 388 596 411 572C428 554 441 527 442 502L574 502C573 561 544 613 502 653C454 698 380 722 304 722C221 722 143 693 96 647C59 610 34 563 34 507C34 389 116 325 214 309C261 301 323 299 371 290C415 282 455 258 455 206C455 172 443 155 427 138C400 110 353 100 304 100C263 100 215 108 185 138C164 159 148 190 148 225L16 225C16 158 48 98 90 60C148 7 227 -13 302 -13C389 -13 472 9 526 63C561 98 585 145 585 211ZM362 -44L265 -44L182 -194L286 -243Z"/>
<glyph unicode="&#x15f;" horiz-adv-x="493" d="M468 161C468 243 408 295 326 308C275 316 262 317 215 323C187 327 155 338 155 375C155 402 173 421 195 430C214 438 231 438 249 438C275 438 302 429 317 414C329 401 338 385 338 365L457 365C457 403 439 442 411 472C373 513 310 533 248 533C183 533 128 514 90 481C59 454 37 417 37 364C37 298 85 240 156 225C202 215 254 212 300 205C332 200 352 180 352 150C352 93 288 84 246 84C210 84 187 91 167 107C151 120 139 145 139 168L22 168C22 119 47 76 77 47C120 6 179 -13 245 -13C316 -13 381 5 423 47C450 74 468 111 468 161ZM306 -44L209 -44L126 -194L230 -243Z"/>
<glyph unicode="&#x160;" horiz-adv-x="604" d="M262 772L339 772L459 873L405 935L300 849L193 936L140 873ZM585 211C585 332 496 401 390 416C344 422 281 427 236 434C194 441 164 465 164 511C164 537 173 555 188 571C217 601 263 610 303 610C341 610 388 596 411 572C428 554 441 527 442 502L574 502C573 561 544 613 502 653C454 698 380 722 304 722C221 722 143 693 96 647C59 610 34 563 34 507C34 389 116 325 214 309C261 301 323 299 371 290C415 282 455 258 455 206C455 172 443 155 427 138C400 110 353 100 304 100C263 100 215 108 185 138C164 159 148 190 148 225L16 225C16 158 48 98 90 60C148 7 227 -13 302 -13C389 -13 472 9 526 63C561 98 585 145 585 211Z"/>
<glyph unicode="&#x161;" horiz-adv-x="493" d="M468 161C468 243 408 295 326 308C275 316 262 317 215 323C187 327 155 338 155 375C155 402 173 421 195 430C214 438 231 438 249 438C275 438 302 429 317 414C329 401 338 385 338 365L457 365C457 403 439 442 411 472C373 513 310 533 248 533C183 533 128 514 90 481C59 454 37 417 37 364C37 298 85 240 156 225C202 215 254 212 300 205C332 200 352 180 352 150C352 93 288 84 246 84C210 84 187 91 167 107C151 120 139 145 139 168L22 168C22 119 47 76 77 47C120 6 179 -13 245 -13C316 -13 381 5 423 47C450 74 468 111 468 161ZM214 572L291 572L411 688L352 746L253 650L152 749L92 688Z"/>
<glyph unicode="&#x162;" horiz-adv-x="533" d="M541 589L541 709L-8 709L-8 589L202 589L202 0L331 0L331 589ZM319 -123L319 -42L213 -42L213 -131L265 -131C265 -169 235 -179 220 -184L241 -220C265 -213 319 -184 319 -123Z"/>
<glyph unicode="&#x163;" horiz-adv-x="372" d="M358 7L358 112C324 108 303 107 277 107C237 107 219 124 219 164L219 417L350 417L350 520L219 520L219 683L94 652L94 520L-1 520L-1 417L94 417L94 153C94 53 146 -7 251 -7C288 -7 323 -2 358 7ZM239 -123L239 -42L133 -42L133 -131L185 -131C185 -169 155 -179 140 -184L161 -220C185 -213 239 -184 239 -123Z"/>
<glyph unicode="&#x164;" horiz-adv-x="533" d="M541 589L541 709L-8 709L-8 589L202 589L202 0L331 0L331 589ZM223 772L300 772L420 873L366 935L261 849L154 936L101 873Z"/>
<glyph unicode="&#x165;" horiz-adv-x="372" d="M358 7L358 112C324 108 303 107 277 107C237 107 219 124 219 164L219 417L350 417L350 520L219 520L219 683L94 652L94 520L-1 520L-1 417L94 417L94 153C94 53 146 -7 251 -7C288 -7 323 -2 358 7ZM378 702L378 802L273 802L273 693L323 693C323 653 316 641 278 621L302 574C362 602 378 637 378 702Z"/>
<glyph unicode="&#x16a;" horiz-adv-x="654" d="M605 272L605 709L476 709L476 274C476 173 430 104 327 104C224 104 178 173 178 274L178 709L49 709L49 272C49 103 144 -13 327 -13C510 -13 605 103 605 272ZM477 764L477 864L177 864L177 764Z"/>
<glyph unicode="&#x16b;" horiz-adv-x="562" d="M498 0L498 520L373 520L373 245C373 203 365 156 335 128C320 113 300 102 271 102C205 102 181 140 181 201L181 520L56 520L56 173C56 62 125 -13 236 -13C302 -13 360 17 385 68L394 0ZM441 611L441 711L121 711L121 611Z"/>
<glyph unicode="&#x16c;" horiz-adv-x="654" d="M605 272L605 709L476 709L476 274C476 173 430 104 327 104C224 104 178 173 178 274L178 709L49 709L49 272C49 103 144 -13 327 -13C510 -13 605 103 605 272ZM495 939L401 939C394 880 371 855 326 855C281 855 259 880 252 939L158 939C166 836 219 764 326 764C433 764 487 836 495 939Z"/>
<glyph unicode="&#x16d;" horiz-adv-x="562" d="M498 0L498 520L373 520L373 245C373 203 365 156 335 128C320 113 300 102 271 102C205 102 181 140 181 201L181 520L56 520L56 173C56 62 125 -13 236 -13C302 -13 360 17 385 68L394 0ZM449 747L355 747C348 688 325 663 280 663C235 663 213 688 206 747L112 747C120 644 173 572 280 572C387 572 441 644 449 747Z"/>
<glyph unicode="&#x16e;" horiz-adv-x="654" d="M605 272L605 709L476 709L476 274C476 173 430 104 327 104C224 104 178 173 178 274L178 709L49 709L49 272C49 103 144 -13 327 -13C510 -13 605 103 605 272ZM449 837C449 905 395 958 327 958C259 958 205 905 205 837C205 769 259 715 327 715C395 715 449 769 449 837ZM380 837C380 808 356 784 327 784C298 784 275 808 275 837C275 866 298 889 327 889C356 889 380 866 380 837Z"/>
<glyph unicode="&#x16f;" horiz-adv-x="562" d="M498 0L498 520L373 520L373 245C373 203 365 156 335 128C320 113 300 102 271 102C205 102 181 140 181 201L181 520L56 520L56 173C56 62 125 -13 236 -13C302 -13 360 17 385 68L394 0ZM403 710C403 778 349 831 281 831C213 831 159 778 159 710C159 642 213 588 281 588C349 588 403 642 403 710ZM334 710C334 681 310 657 281 657C252 657 229 681 229 710C229 739 252 762 281 762C310 762 334 739 334 710Z"/>
<glyph unicode="&#x170;" horiz-adv-x="654" d="M605 272L605 709L476 709L476 274C476 173 430 104 327 104C224 104 178 173 178 274L178 709L49 709L49 272C49 103 144 -13 327 -13C510 -13 605 103 605 272ZM606 876L547 968L362 824L404 759ZM391 876L332 968L147 824L189 759Z"/>
<glyph unicode="&#x171;" horiz-adv-x="562" d="M498 0L498 520L373 520L373 245C373 203 365 156 335 128C320 113 300 102 271 102C205 102 181 140 181 201L181 520L56 520L56 173C56 62 125 -13 236 -13C302 -13 360 17 385 68L394 0ZM540 683L481 775L296 631L338 566ZM325 683L266 775L81 631L123 566Z"/>
<glyph unicode="&#x172;" horiz-adv-x="654" d="M605 272L605 709L476 709L476 274C476 173 430 104 327 104C224 104 178 173 178 274L178 709L49 709L49 272C49 103 144 -13 327 -13C355 -13 381 -10 405 -5C385 -23 366 -51 366 -91C366 -147 414 -195 478 -195L486 -195C510 -195 538 -188 538 -188L538 -106C538 -106 526 -108 507 -109L497 -109C475 -109 462 -95 462 -66C462 -14 487 17 519 50C573 105 605 178 605 272Z"/>
<glyph unicode="&#x173;" horiz-adv-x="562" d="M326 -91C326 -147 374 -195 438 -195L446 -195C470 -195 498 -188 498 -188L498 -106C498 -106 486 -108 467 -109L457 -109C435 -109 422 -95 422 -75C422 -47 460 -14 498 0L498 520L373 520L373 245C373 203 365 156 335 128C320 113 300 102 271 102C205 102 181 140 181 201L181 520L56 520L56 173C56 62 125 -13 236 -13C302 -13 360 17 385 68L392 12C365 -3 326 -35 326 -91Z"/>
<glyph unicode="&#x174;" horiz-adv-x="844" d="M841 709L723 709L622 216L479 698L371 698L225 216L126 709L3 709L146 0L275 0L423 489L571 0L700 0ZM268 833L328 772L429 871L528 775L587 833L467 949L390 949Z"/>
<glyph unicode="&#x175;" horiz-adv-x="743" d="M734 520L615 520L535 180L425 515L322 515L213 179L130 520L9 520L141 0L257 0L373 351L491 0L607 0ZM212 633L272 572L373 671L472 575L531 633L411 749L334 749Z"/>
<glyph unicode="&#x176;" horiz-adv-x="596" d="M610 709L476 709L301 403L126 709L-14 709L232 272L232 0L362 0L362 272ZM138 833L198 772L299 871L398 775L457 833L337 949L260 949Z"/>
<glyph unicode="&#x177;" horiz-adv-x="502" d="M516 520L389 520L259 144L123 520L-14 520L191 1L161 -72C148 -103 124 -111 101 -111C73 -111 64 -108 31 -102L31 -206C58 -213 86 -219 127 -219C218 -219 261 -157 287 -89ZM101 633L161 572L262 671L361 575L420 633L300 749L223 749Z"/>
<glyph unicode="&#x178;" horiz-adv-x="596" d="M610 709L476 709L301 403L126 709L-14 709L232 272L232 0L362 0L362 272ZM463 779L463 900L346 900L346 779ZM257 779L257 900L140 900L140 779Z"/>
<glyph unicode="&#x179;" horiz-adv-x="587" d="M570 0L570 117L177 117L565 582L565 709L21 709L21 592L406 592L15 127L15 0ZM423 876L367 967L183 829L223 764Z"/>
<glyph unicode="&#x17a;" horiz-adv-x="479" d="M454 0L454 103L180 103L452 407L452 520L32 520L32 417L305 417L30 110L30 0ZM379 678L323 769L139 631L179 566Z"/>
<glyph unicode="&#x17b;" horiz-adv-x="587" d="M570 0L570 117L177 117L565 582L565 709L21 709L21 592L406 592L15 127L15 0ZM349 791L349 912L232 912L232 791Z"/>
<glyph unicode="&#x17c;" horiz-adv-x="479" d="M454 0L454 103L180 103L452 407L452 520L32 520L32 417L305 417L30 110L30 0ZM298 601L298 722L181 722L181 601Z"/>
<glyph unicode="&#x17d;" horiz-adv-x="587" d="M570 0L570 117L177 117L565 582L565 709L21 709L21 592L406 592L15 127L15 0ZM257 772L334 772L454 873L400 935L295 849L188 936L135 873Z"/>
<glyph unicode="&#x17e;" horiz-adv-x="479" d="M454 0L454 103L180 103L452 407L452 520L32 520L32 417L305 417L30 110L30 0ZM210 572L287 572L407 688L348 746L249 650L148 749L88 688Z"/>
<glyph unicode="&#x192;" horiz-adv-x="542" d="M520 608L520 717C494 721 468 725 442 725C346 725 280 662 262 570L238 451L121 451L121 339L215 339L160 66C150 15 131 -10 76 -10C58 -10 39 -8 21 -4L21 -110C48 -118 76 -122 104 -122C201 -122 260 -64 279 29L341 339L496 339L496 451L366 451C371 481 376 512 383 542C396 596 422 614 477 614C492 614 506 611 520 608Z"/>
<glyph unicode="&#x218;" horiz-adv-x="604" d="M585 211C585 332 496 401 390 416C344 422 281 427 236 434C194 441 164 465 164 511C164 537 173 555 188 571C217 601 263 610 303 610C341 610 388 596 411 572C428 554 441 527 442 502L574 502C573 561 544 613 502 653C454 698 380 722 304 722C221 722 143 693 96 647C59 610 34 563 34 507C34 389 116 325 214 309C261 301 323 299 371 290C415 282 455 258 455 206C455 172 443 155 427 138C400 110 353 100 304 100C263 100 215 108 185 138C164 159 148 190 148 225L16 225C16 158 48 98 90 60C148 7 227 -13 302 -13C389 -13 472 9 526 63C561 98 585 145 585 211ZM361 -123L361 -42L255 -42L255 -131L307 -131C307 -169 277 -179 262 -184L283 -220C307 -213 361 -184 361 -123Z"/>
<glyph unicode="&#x219;" horiz-adv-x="493" d="M468 161C468 243 408 295 326 308C275 316 262 317 215 323C187 327 155 338 155 375C155 402 173 421 195 430C214 438 231 438 249 438C275 438 302 429 317 414C329 401 338 385 338 365L457 365C457 403 439 442 411 472C373 513 310 533 248 533C183 533 128 514 90 481C59 454 37 417 37 364C37 298 85 240 156 225C202 215 254 212 300 205C332 200 352 180 352 150C352 93 288 84 246 84C210 84 187 91 167 107C151 120 139 145 139 168L22 168C22 119 47 76 77 47C120 6 179 -13 245 -13C316 -13 381 5 423 47C450 74 468 111 468 161ZM299 -123L299 -42L193 -42L193 -131L245 -131C245 -169 215 -179 200 -184L221 -220C245 -213 299 -184 299 -123Z"/>
<glyph unicode="&#x21a;" horiz-adv-x="533" d="M541 589L541 709L-8 709L-8 589L202 589L202 0L331 0L331 589ZM319 -123L319 -42L213 -42L213 -131L265 -131C265 -169 235 -179 220 -184L241 -220C265 -213 319 -184 319 -123Z"/>
<glyph unicode="&#x21b;" horiz-adv-x="372" d="M358 7L358 112C324 108 303 107 277 107C237 107 219 124 219 164L219 417L350 417L350 520L219 520L219 683L94 652L94 520L-1 520L-1 417L94 417L94 153C94 53 146 -7 251 -7C288 -7 323 -2 358 7ZM239 -123L239 -42L133 -42L133 -131L185 -131C185 -169 155 -179 140 -184L161 -220C185 -213 239 -184 239 -123Z"/>
<glyph unicode="&#x2c6;" horiz-adv-x="337" d="M10 633L70 572L171 671L270 575L329 633L209 749L132 749Z"/>
<glyph unicode="&#x2c7;" horiz-adv-x="330" d="M126 572L203 572L323 688L264 746L165 650L64 749L4 688Z"/>
<glyph unicode="&#x2c9;" horiz-adv-x="277" d="M301 611L301 711L-19 711L-19 611Z"/>
<glyph unicode="&#x2d8;" horiz-adv-x="322" d="M332 747L238 747C231 688 208 663 163 663C118 663 96 688 89 747L-5 747C3 644 56 572 163 572C270 572 324 644 332 747Z"/>
<glyph unicode="&#x2d9;" horiz-adv-x="237" d="M179 601L179 722L62 722L62 601Z"/>
<glyph unicode="&#x2da;" horiz-adv-x="220" d="M234 710C234 778 180 831 112 831C44 831 -10 778 -10 710C-10 642 44 588 112 588C180 588 234 642 234 710ZM165 710C165 681 141 657 112 657C83 657 60 681 60 710C60 739 83 762 112 762C141 762 165 739 165 710Z"/>
<glyph unicode="&#x2db;" horiz-adv-x="170" d="M19 -91C19 -147 67 -195 131 -195L139 -195C163 -195 191 -188 191 -188L191 -106C191 -106 179 -108 160 -109L150 -109C128 -109 115 -95 115 -75C115 -47 153 -14 191 0L164 39C96 31 19 -15 19 -91Z"/>
<glyph unicode="&#x2dc;" horiz-adv-x="354" d="M355 672L304 736C289 721 263 702 241 702C204 702 174 744 120 744C74 744 36 715 5 684L56 620C71 637 95 653 119 653C153 653 186 612 240 612C285 612 325 641 355 672Z"/>
<glyph unicode="&#x2dd;" horiz-adv-x="482" d="M490 683L431 775L246 631L288 566ZM275 683L216 775L31 631L73 566Z"/>
<glyph unicode="&#x394;" horiz-adv-x="611" d="M625 0L376 709L235 709L-14 0ZM451 116L156 116L303 551Z"/>
<glyph unicode="&#x3a9;" horiz-adv-x="560" d="M525 364C525 417 486 457 432 457L369 457L369 519C369 573 330 613 276 613C222 613 183 573 183 519L183 448C167 459 148 465 128 465C74 465 35 425 35 371L35 123L284 123C338 123 377 162 377 216C377 235 371 255 360 270L432 270C486 270 525 310 525 364ZM508 364C508 319 477 287 432 287L200 287L200 519C200 564 231 596 276 596C321 596 353 564 353 519L353 440L432 440C477 440 508 409 508 364Z"/>
<glyph unicode="&#x3bc;" horiz-adv-x="570" d="M506 0L506 520L381 520L381 243C381 201 373 154 343 126C328 111 308 100 279 100C213 100 188 138 188 199L188 520L64 520L64 -202L188 -202L188 -2C205 -11 224 -13 244 -13C310 -13 367 19 392 70L402 0Z"/>
<glyph unicode="&#x3c0;" horiz-adv-x="608" d="M567 1L567 108C560 108 539 106 528 106C493 106 481 122 481 156L481 404L556 404L556 505L36 505L36 404L112 404L112 -2L236 -2L236 404L357 404L357 138C357 44 404 -7 500 -7C525 -7 543 -3 567 1Z"/>
<glyph unicode="&#x1e80;" horiz-adv-x="844" d="M841 709L723 709L622 216L479 698L371 698L225 216L126 709L3 709L146 0L275 0L423 489L571 0L700 0ZM561 830L377 968L321 877L521 765Z"/>
<glyph unicode="&#x1e81;" horiz-adv-x="743" d="M734 520L615 520L535 180L425 515L322 515L213 179L130 520L9 520L141 0L257 0L373 351L491 0L607 0ZM501 631L317 769L261 678L461 566Z"/>
<glyph unicode="&#x2007;" horiz-adv-x="542" />
<glyph unicode="&#x2008;" horiz-adv-x="265" />
<glyph unicode="&#x200b;" horiz-adv-x="0" />
<glyph unicode="&#x2013;" horiz-adv-x="631" d="M585 252L585 364L46 364L46 252Z"/>
<glyph unicode="&#x2014;" horiz-adv-x="1121" d="M1075 252L1075 363L46 363L46 252Z"/>
<glyph unicode="&#x2018;" horiz-adv-x="239" d="M191 414L191 560L120 560C120 610 132 637 184 662L152 720C69 685 47 630 47 549L47 414Z"/>
<glyph unicode="&#x2019;" horiz-adv-x="219" d="M182 573L182 709L37 709L37 562L109 562C109 512 96 485 44 460L77 402C160 437 182 492 182 573Z"/>
<glyph unicode="&#x201a;" horiz-adv-x="259" d="M203 11L203 150L56 150L56 0L129 0C129 -51 116 -79 63 -104L96 -163C181 -128 203 -72 203 11Z"/>
<glyph unicode="&#x201c;" horiz-adv-x="455" d="M405 413L405 559L334 559C334 609 347 636 399 661L367 719C284 684 261 629 261 548L261 413ZM193 413L193 559L121 559C121 609 134 636 186 661L154 719C71 684 50 629 50 548L50 413Z"/>
<glyph unicode="&#x201d;" horiz-adv-x="435" d="M395 574L395 709L252 709L252 563L324 563C324 513 311 486 259 461L291 403C374 438 395 493 395 574ZM184 574L184 709L40 709L40 563L111 563C111 513 98 486 46 461L78 403C161 438 184 493 184 574Z"/>
<glyph unicode="&#x201e;" horiz-adv-x="476" d="M420 11L420 150L273 150L273 0L346 0C346 -51 333 -79 280 -104L313 -163C398 -128 420 -72 420 11ZM203 11L203 150L56 150L56 0L129 0C129 -51 116 -79 63 -104L96 -163C181 -128 203 -72 203 11Z"/>
<glyph unicode="&#x2020;" horiz-adv-x="534" d="M508 415L508 520L324 520L324 709L210 709L210 520L26 520L26 415L210 415L210 -125L324 -125L324 415Z"/>
<glyph unicode="&#x2021;" horiz-adv-x="534" d="M508 64L508 169L324 169L324 415L508 415L508 520L324 520L324 709L210 709L210 520L26 520L26 415L210 415L210 169L26 169L26 64L210 64L210 -125L324 -125L324 64Z"/>
<glyph unicode="&#x2022;" horiz-adv-x="404" d="M343 292C343 370 280 433 202 433C124 433 61 370 61 292C61 214 124 151 202 151C280 151 343 214 343 292Z"/>
<glyph unicode="&#x2026;" horiz-adv-x="971" d="M893 0L893 146L748 146L748 0ZM558 0L558 146L413 146L413 0ZM223 0L223 146L78 146L78 0Z"/>
</font>
</defs>
</svg>
