<?xml version="1.0" encoding="UTF-8" standalone="no"?>
<!DOCTYPE svg PUBLIC "-//W3C//DTD SVG 1.1//EN" "http://www.w3.org/Graphics/SVG/1.1/DTD/svg11.dtd" >
<svg xmlns="http://www.w3.org/2000/svg">
<metadata>
This is a SVG font generated by Alphabet Type GmbH.
</metadata>
<defs>
<font id="AkkuratNestWebBookItalic" horiz-adv-x="518" >
<font-face units-per-em="1000" ascent="968" descent="-245" />
<missing-glyph horiz-adv-x="518" />
<glyph unicode="&#x20;" horiz-adv-x="217" />
<glyph unicode="&#x21;" horiz-adv-x="288" d="M264 709L179 709L141 500L112 221L158 221L226 500ZM160 92L68 92L51 0L143 0Z"/>
<glyph unicode="&#x22;" horiz-adv-x="410" d="M387 709L308 709L286 585L277 433L319 433L365 585ZM227 709L148 709L126 585L117 433L159 433L205 585Z"/>
<glyph unicode="&#x23;" horiz-adv-x="720" d="M690 501L563 501L624 695L564 695L503 501L316 501L377 695L317 695L255 501L119 501L108 441L236 441L178 253L43 253L32 194L158 194L97 0L158 0L219 194L406 194L345 0L405 0L466 194L603 194L614 253L485 253L544 441L680 441ZM484 441L425 253L238 253L297 441Z"/>
<glyph unicode="&#x24;" horiz-adv-x="542" d="M534 498C534 612 460 682 366 702L383 800L334 800L318 708C206 708 76 645 76 506C76 403 156 364 252 334C237 245 221 157 205 68C130 83 76 132 76 218C76 224 76 230 77 237L9 237C8 230 8 223 8 216C8 99 88 23 195 5L177 -90L227 -90L243 0C366 0 495 63 495 209C495 295 426 356 347 378L311 388C326 472 341 555 355 639C423 624 464 575 464 498ZM425 200C425 107 333 63 254 63C270 149 284 235 300 321L327 312C379 295 425 259 425 200ZM306 645L264 402C194 421 145 447 145 511C145 602 227 645 306 645Z"/>
<glyph unicode="&#x25;" horiz-adv-x="894" d="M811 212C811 297 758 364 668 364C544 364 490 242 490 137C490 53 544 -13 633 -13C755 -13 811 108 811 212ZM785 688L747 723L109 18L145 -18ZM401 570C401 655 348 722 258 722C134 722 80 601 80 495C80 411 134 345 223 345C344 345 401 466 401 570ZM750 211C750 141 719 43 638 43C577 43 551 84 551 140C551 211 582 308 663 308C724 308 750 267 750 211ZM340 569C340 499 307 401 228 401C167 401 140 442 140 498C140 569 172 666 253 666C313 666 340 625 340 569Z"/>
<glyph unicode="&#x26;" horiz-adv-x="697" d="M664 396L527 396C515 323 499 240 455 180L319 370C424 424 508 466 508 580C508 657 442 722 351 722C232 722 156 642 156 539C156 509 168 466 196 427L224 388C122 331 42 276 42 159C42 56 131 -13 229 -13C319 -13 397 27 448 76L502 0L584 0L491 129C538 183 568 267 581 337L655 337ZM441 573C440 511 393 472 339 444L286 416L252 463C235 485 225 517 225 546C225 615 276 663 345 663C402 663 441 621 441 573ZM412 126C365 77 310 51 235 51C166 51 111 93 111 166C111 255 176 296 258 341Z"/>
<glyph unicode="&#x27;" horiz-adv-x="222" d="M215 709L136 709L114 585L105 433L148 433L193 585Z"/>
<glyph unicode="&#x28;" horiz-adv-x="266" d="M333 733L297 771C169 670 81 506 53 349C46 309 43 268 43 226C43 102 74 -27 138 -131L184 -108C130 -4 102 101 102 214C102 254 105 295 113 338C141 501 215 626 333 733Z"/>
<glyph unicode="&#x29;" horiz-adv-x="265" d="M218 417C218 542 187 670 122 771L77 746C131 644 159 541 159 430C159 389 156 347 148 304C120 141 45 14 -73 -98L-36 -135C92 -29 181 139 208 297C215 336 218 377 218 417Z"/>
<glyph unicode="&#x2a;" horiz-adv-x="502" d="M490 521L477 583L310 524L343 696L273 696L257 524L107 584L79 524L233 478L103 343L150 303L272 445L343 302L401 339L317 475Z"/>
<glyph unicode="&#x2b;" horiz-adv-x="651" d="M592 274L592 331L349 331L349 583L291 583L291 331L48 331L48 274L291 274L291 5L349 5L349 274Z"/>
<glyph unicode="&#x2c;" horiz-adv-x="250" d="M133 103L26 103L8 0L66 0C56 -53 41 -81 -13 -101L1 -140C74 -115 102 -70 114 0Z"/>
<glyph unicode="&#x2d;" horiz-adv-x="404" d="M343 333L53 333L42 270L332 270Z"/>
<glyph unicode="&#x2e;" horiz-adv-x="248" d="M131 104L27 104L9 0L113 0Z"/>
<glyph unicode="&#x2f;" horiz-adv-x="366" d="M438 722L377 722L-60 -13L1 -13Z"/>
<glyph unicode="&#x30;" horiz-adv-x="542" d="M512 481C512 609 443 708 312 708C120 708 72 509 46 367C37 317 30 266 30 215C30 83 102 -13 230 -13C418 -13 470 186 496 328C505 378 512 430 512 481ZM444 482C444 433 435 381 427 334C408 225 376 50 234 50C135 50 98 122 98 213C98 263 106 312 115 361C134 469 167 646 308 646C407 646 444 572 444 482Z"/>
<glyph unicode="&#x31;" horiz-adv-x="542" d="M402 695L338 695L142 569L128 490L318 612L211 0L279 0Z"/>
<glyph unicode="&#x32;" horiz-adv-x="542" d="M503 547C503 647 419 708 320 708C206 708 119 625 102 515L172 515C185 592 244 646 315 646C375 646 432 614 432 545C432 490 402 441 363 403L10 65C10 65 2 21 -1 0L409 0L420 64L96 64L408 361C461 411 503 472 503 547Z"/>
<glyph unicode="&#x33;" horiz-adv-x="542" d="M494 539C494 647 402 708 302 708C194 708 88 633 77 518L147 518C161 594 219 646 297 646C364 646 424 604 424 532C424 436 350 393 262 393L223 393L212 329L251 329C326 329 381 286 381 208C381 116 319 49 226 49C143 49 86 97 86 182C86 191 87 198 88 208L19 208C18 198 17 188 17 178C17 56 108 -13 221 -13C345 -13 450 73 450 204C450 269 418 329 356 356C439 379 494 456 494 539Z"/>
<glyph unicode="&#x34;" horiz-adv-x="542" d="M494 217L399 217L436 428L367 428L330 217L78 217L442 695L365 695L8 225L-4 153L319 153L292 0L360 0L388 153L483 153Z"/>
<glyph unicode="&#x35;" horiz-adv-x="542" d="M105 210L37 210C36 200 35 190 35 180C35 61 122 -13 239 -13C391 -13 480 116 480 260C480 376 410 453 292 453C239 453 183 436 148 396L205 633L517 633L529 695L155 695L76 356L150 335C182 373 229 392 277 392C364 392 411 337 411 253C411 158 354 49 244 49C161 49 104 101 104 186C104 193 104 202 105 210Z"/>
<glyph unicode="&#x36;" horiz-adv-x="542" d="M512 532C512 644 421 708 324 708C141 708 82 514 56 363C48 315 41 268 41 221C41 102 99 -13 241 -13C393 -13 482 123 482 257C482 374 406 454 287 454C223 454 158 422 126 372C146 482 184 645 319 645C381 645 443 605 443 532ZM413 250C413 153 355 49 247 49C159 49 112 114 112 200C112 294 169 393 276 393C364 393 413 335 413 250Z"/>
<glyph unicode="&#x37;" horiz-adv-x="542" d="M542 695L99 695L88 632L457 632L41 0L117 0L530 630Z"/>
<glyph unicode="&#x38;" horiz-adv-x="542" d="M508 537C508 644 410 708 311 708C198 708 93 628 93 510C93 454 123 399 170 371C81 345 19 264 19 173C19 54 121 -13 229 -13C353 -13 464 74 464 200C464 265 429 328 375 354C455 378 508 454 508 537ZM439 533C439 451 377 391 295 391C225 391 162 433 162 508C162 590 225 649 306 649C374 649 439 607 439 533ZM396 204C396 113 324 47 233 47C156 47 89 96 89 177C89 269 159 334 250 334C328 334 396 287 396 204Z"/>
<glyph unicode="&#x39;" horiz-adv-x="542" d="M500 480C500 598 442 708 302 708C146 708 60 571 60 439C60 321 144 242 254 242C318 242 385 274 414 323C394 211 359 50 226 50C154 50 99 98 99 166L99 176L31 176C31 175 30 169 30 164C30 57 121 -12 221 -12C405 -12 459 179 485 333C493 382 500 432 500 480ZM430 501C430 405 372 302 265 302C184 302 128 356 128 446C128 541 188 646 295 646C377 646 430 590 430 501Z"/>
<glyph unicode="&#x3a;" horiz-adv-x="268" d="M213 503L116 503L98 404L195 404ZM142 97L45 97L27 -1L124 -1Z"/>
<glyph unicode="&#x3b;" horiz-adv-x="268" d="M212 502L115 502L98 403L195 403ZM141 97L44 97L27 0L80 0C71 -49 57 -77 6 -96L18 -132C87 -109 112 -67 124 0Z"/>
<glyph unicode="&#x3c;" horiz-adv-x="449" d="M391 21L108 304L390 587L351 626L28 304L352 -18Z"/>
<glyph unicode="&#x3d;" horiz-adv-x="661" d="M556 358L556 420L82 420L82 358ZM556 135L556 196L82 196L82 135Z"/>
<glyph unicode="&#x3e;" horiz-adv-x="449" d="M426 304L103 626L64 587L346 304L63 21L102 -18Z"/>
<glyph unicode="&#x3f;" horiz-adv-x="462" d="M465 551C465 649 384 721 270 721C140 721 55 634 35 521L108 521C122 601 179 657 266 657C333 657 393 618 393 548C393 428 263 397 211 342C179 308 164 265 155 196L220 196C231 268 254 307 316 344C392 389 465 447 465 551ZM217 94L124 94L108 0L201 0Z"/>
<glyph unicode="&#x40;" horiz-adv-x="889" d="M839 405C839 596 685 722 500 722C242 722 59 521 59 274C59 52 223 -87 432 -87C505 -87 590 -69 650 -37L661 25C596 -7 512 -27 435 -27C255 -27 126 92 126 274C126 475 271 661 495 661C649 661 775 563 775 403C775 309 730 168 625 168C596 168 581 186 581 214C581 223 583 233 585 242L649 498L597 498L573 448C557 485 514 508 472 508C341 508 266 383 266 261C266 190 315 112 401 112C453 112 503 134 533 179C538 142 573 112 619 112C768 112 839 280 839 405ZM548 354C548 284 505 169 415 169C356 169 332 215 332 266C332 340 381 452 466 452C524 452 548 402 548 354Z"/>
<glyph unicode="&#x41;" horiz-adv-x="583" d="M530 0L392 709L315 709L-70 0L6 0L100 177L426 177L460 0ZM414 244L136 244L341 628Z"/>
<glyph unicode="&#x42;" horiz-adv-x="636" d="M609 544C609 649 522 709 418 709L152 709L27 0L315 0C450 0 571 69 571 218C571 282 533 343 474 365C552 381 609 463 609 544ZM535 539C535 439 458 401 366 401L168 401L211 645L406 645C472 645 535 611 535 539ZM499 220C499 110 412 65 312 65L108 65L156 337L356 337C430 337 499 301 499 220Z"/>
<glyph unicode="&#x43;" horiz-adv-x="587" d="M589 487C589 615 492 722 353 722C117 722 28 453 28 250C28 98 121 -13 273 -13C405 -13 513 83 540 206L466 206C446 123 373 55 278 55C163 55 101 134 101 252C101 420 171 654 349 654C446 654 516 587 516 487Z"/>
<glyph unicode="&#x44;" horiz-adv-x="642" d="M611 462C611 604 527 709 379 709L152 709L27 0L274 0C355 0 422 24 474 70C572 158 611 333 611 462ZM539 456C539 351 505 189 425 118C389 86 337 66 284 66L109 66L211 642L371 642C485 642 539 562 539 456Z"/>
<glyph unicode="&#x45;" horiz-adv-x="589" d="M610 709L152 709L27 0L490 0L501 66L109 66L158 338L500 338L512 405L169 405L211 643L599 643Z"/>
<glyph unicode="&#x46;" horiz-adv-x="552" d="M600 709L152 709L27 0L98 0L155 324L496 324L507 390L167 390L212 643L589 643Z"/>
<glyph unicode="&#x47;" horiz-adv-x="636" d="M528 655C491 692 431 722 355 722C115 722 28 454 28 250C28 99 118 -13 273 -13C347 -13 423 20 467 82L463 0L515 0L581 371L317 371L305 305L503 305C483 185 422 55 278 55C163 55 101 134 101 252C101 418 168 653 350 653C463 653 522 582 522 494L594 494C594 553 571 612 528 655Z"/>
<glyph unicode="&#x48;" horiz-adv-x="688" d="M661 709L590 709L536 406L170 406L223 709L152 709L27 0L98 0L158 337L524 337L464 0L535 0Z"/>
<glyph unicode="&#x49;" horiz-adv-x="252" d="M225 709L152 709L27 0L99 0Z"/>
<glyph unicode="&#x4a;" horiz-adv-x="478" d="M461 709L390 709L299 193C286 119 235 55 158 55C88 55 41 101 41 173C41 185 43 198 45 210L-25 210C-27 197 -29 180 -29 166C-29 56 52 -13 151 -13C270 -13 348 73 368 183Z"/>
<glyph unicode="&#x4b;" horiz-adv-x="628" d="M668 709L577 709L151 303L223 709L152 709L27 0L98 0L133 198L333 389L490 0L567 0L388 441Z"/>
<glyph unicode="&#x4c;" horiz-adv-x="510" d="M464 66L110 66L223 709L152 709L27 0L452 0Z"/>
<glyph unicode="&#x4d;" horiz-adv-x="852" d="M825 709L720 709L379 105L249 709L152 709L27 0L96 0L202 616L336 10L394 10L741 616L630 0L700 0Z"/>
<glyph unicode="&#x4e;" horiz-adv-x="708" d="M681 709L610 709L504 104L230 709L152 709L27 0L98 0L203 604L477 0L555 0Z"/>
<glyph unicode="&#x4f;" horiz-adv-x="627" d="M596 457C596 604 507 722 351 722C122 722 28 454 28 250C28 101 120 -13 275 -13C508 -13 596 256 596 457ZM523 455C523 291 456 55 278 55C162 55 101 140 101 252C101 417 174 654 348 654C463 654 523 568 523 455Z"/>
<glyph unicode="&#x50;" horiz-adv-x="591" d="M607 525C607 645 514 709 402 709L152 709L27 0L98 0L148 283L339 283C489 283 607 364 607 525ZM533 521C533 406 454 348 345 348L160 348L212 643L389 643C467 643 533 607 533 521Z"/>
<glyph unicode="&#x51;" horiz-adv-x="627" d="M596 457C596 605 507 722 352 722C121 722 29 453 29 250C29 102 121 -13 275 -13C323 -13 367 -1 405 20L456 -58L508 -22L455 56C560 156 596 330 596 457ZM523 455C523 352 490 189 417 116L339 235L288 199L367 78C341 63 311 55 279 55C163 55 101 140 101 252C101 417 174 654 348 654C465 654 523 567 523 455Z"/>
<glyph unicode="&#x52;" horiz-adv-x="631" d="M618 527C618 641 525 709 409 709L152 709L27 0L98 0C115 100 133 199 151 299L371 299L466 0L541 0C508 103 475 206 443 310C543 333 618 406 618 527ZM543 522C543 414 463 363 358 363L162 363L212 644L400 644C484 644 543 602 543 522Z"/>
<glyph unicode="&#x53;" horiz-adv-x="594" d="M570 498C570 635 462 721 334 721C202 721 84 639 84 510C84 418 150 365 233 343L351 312C431 291 457 241 457 195C457 99 362 53 277 53C175 53 83 101 83 231L10 231C10 61 137 -13 271 -13C403 -13 531 56 531 204C531 285 475 354 374 380L253 411C200 424 158 458 158 517C158 608 243 655 325 655C425 655 497 592 497 498Z"/>
<glyph unicode="&#x54;" horiz-adv-x="506" d="M569 709L62 709L50 642L268 642L154 0L226 0L339 642L557 642Z"/>
<glyph unicode="&#x55;" horiz-adv-x="664" d="M652 709L581 709L505 283C484 164 433 54 293 54C187 54 128 110 128 209C128 227 130 245 133 263L211 709L140 709L62 269C58 248 57 227 57 207C57 75 148 -13 288 -13C451 -13 543 98 570 249Z"/>
<glyph unicode="&#x56;" horiz-adv-x="538" d="M610 709L533 709L217 93L116 709L46 709L167 0L237 0Z"/>
<glyph unicode="&#x57;" horiz-adv-x="829" d="M871 709L804 709L578 106L504 698L440 698L165 104L146 709L80 709L103 0L181 0L456 596L528 0L601 0Z"/>
<glyph unicode="&#x58;" horiz-adv-x="548" d="M604 709L524 709L280 410L141 709L67 709L231 358L-61 0L21 0L266 304L405 0L480 0L315 358Z"/>
<glyph unicode="&#x59;" horiz-adv-x="514" d="M590 709L510 709L248 352L110 709L38 709L203 284L152 0L223 0L273 284Z"/>
<glyph unicode="&#x5a;" horiz-adv-x="576" d="M594 709L100 709L88 643L497 643L-17 72L-30 0L480 0L492 65L65 65L581 636Z"/>
<glyph unicode="&#x5b;" horiz-adv-x="285" d="M349 759L167 759L13 -115L195 -115L204 -63L79 -63L215 708L340 708Z"/>
<glyph unicode="&#x5c;" horiz-adv-x="367" d="M294 -13L113 722L59 722L240 -13Z"/>
<glyph unicode="&#x5d;" horiz-adv-x="285" d="M260 759L78 759L69 708L194 708L58 -63L-67 -63L-76 -115L106 -115Z"/>
<glyph unicode="&#x5e;" horiz-adv-x="496" d="M452 405L289 722L224 722L60 405L131 405L256 651L380 405Z"/>
<glyph unicode="&#x5f;" horiz-adv-x="506" d="M433 -52L433 0L-47 0L-47 -52Z"/>
<glyph unicode="&#x60;" horiz-adv-x="210" d="M241 592L98 712L55 656L213 557Z"/>
<glyph unicode="&#x61;" horiz-adv-x="536" d="M486 503L429 503L405 428C386 472 332 516 262 516C97 516 13 347 13 200C13 83 77 -13 193 -13C256 -13 322 28 349 80L344 0L397 0ZM380 307C380 197 316 48 202 48C107 48 81 132 81 203C81 312 140 455 261 455C350 455 380 382 380 307Z"/>
<glyph unicode="&#x62;" horiz-adv-x="548" d="M497 298C497 407 435 516 313 516C255 516 194 490 163 444L212 722L145 722L17 0L75 0L100 85C125 27 192 -13 255 -13C422 -13 497 152 497 298ZM429 296C429 191 382 48 258 48C167 48 124 121 124 203C124 307 174 455 298 455C389 455 429 376 429 296Z"/>
<glyph unicode="&#x63;" horiz-adv-x="482" d="M450 327L450 338C450 446 369 516 263 516C93 516 13 345 13 194C13 72 92 -13 211 -13C312 -13 400 56 421 152L352 152C331 92 281 48 215 48C126 48 82 113 82 196C82 305 131 455 258 455C330 455 380 406 380 334L380 327Z"/>
<glyph unicode="&#x64;" horiz-adv-x="548" d="M536 722L468 722L414 417C396 476 332 516 261 516C98 516 15 346 15 202C15 92 80 -13 199 -13C259 -13 322 20 355 75L351 0L408 0ZM388 299C388 192 336 48 214 48C123 48 84 122 84 203C84 312 142 455 257 455C351 455 388 383 388 299Z"/>
<glyph unicode="&#x65;" horiz-adv-x="504" d="M461 306C461 421 388 516 266 516C94 516 13 353 13 208C13 87 86 -13 214 -13C309 -13 402 48 426 139L355 139C333 85 280 48 221 48C127 48 81 116 81 204C81 213 81 222 82 232L452 232C458 258 461 277 461 306ZM393 311C393 304 393 298 392 291L91 291C109 375 167 456 261 456C347 456 393 391 393 311Z"/>
<glyph unicode="&#x66;" horiz-adv-x="325" d="M400 704C369 714 342 722 302 722C219 722 163 668 151 597L134 503L38 503L28 444L124 444L45 0L113 0L191 444L343 444L353 503L202 503L217 587C225 634 254 663 303 663C336 663 362 655 389 646Z"/>
<glyph unicode="&#x67;" horiz-adv-x="480" d="M504 547C494 549 482 551 471 551C425 551 387 525 367 486C335 506 296 516 256 516C139 516 52 432 52 322C52 278 69 241 96 213C48 189 15 158 15 109C15 80 30 58 54 42C0 25 -38 -27 -38 -82C-38 -199 89 -230 177 -230C288 -230 416 -186 416 -66C416 10 353 53 278 61L123 78C99 81 77 95 77 120C77 150 112 175 140 181C167 167 199 160 234 160C354 160 439 246 439 354C439 392 427 426 404 453C415 477 440 494 468 494C476 494 487 492 494 490ZM371 351C371 274 314 217 238 217C169 217 118 255 118 324C118 398 174 459 251 459C316 459 371 420 371 351ZM348 -70C348 -143 264 -171 180 -171C103 -171 23 -144 23 -74C23 -29 53 10 114 19L242 7C298 2 348 -23 348 -70Z"/>
<glyph unicode="&#x68;" horiz-adv-x="549" d="M480 375C480 455 427 516 333 516C270 516 201 483 161 429L212 722L145 722L17 0L85 0L129 248C145 341 206 454 316 454C382 454 411 415 411 360C411 350 408 327 406 316L350 0L417 0L474 320C477 336 480 359 480 375Z"/>
<glyph unicode="&#x69;" horiz-adv-x="226" d="M221 715L136 715L121 630L206 630ZM177 503L107 503L17 0L87 0Z"/>
<glyph unicode="&#x6a;" horiz-adv-x="232" d="M225 715L140 715L125 630L210 630ZM180 503L112 503L8 -82C1 -122 -22 -151 -62 -151C-86 -151 -116 -140 -136 -129L-146 -187C-117 -203 -85 -211 -51 -211C23 -211 62 -161 75 -90Z"/>
<glyph unicode="&#x6b;" horiz-adv-x="507" d="M512 503L424 503L126 229L213 722L145 722L17 0L85 0L109 131L245 257L370 0L444 0L297 305Z"/>
<glyph unicode="&#x6c;" horiz-adv-x="250" d="M211 722L144 722L36 117C33 100 32 92 32 86C32 33 67 -6 121 -6C141 -6 161 -1 177 5C180 25 183 44 187 63C173 59 155 55 142 55C117 55 100 66 100 92C100 97 101 102 102 108Z"/>
<glyph unicode="&#x6d;" horiz-adv-x="838" d="M769 383C769 465 714 516 628 516C551 516 485 469 452 415C445 473 393 515 317 515C252 515 193 482 158 427L163 503L106 503L17 0L85 0L131 259C149 360 208 454 299 454C367 454 389 415 389 369C389 355 388 340 385 324L328 0L395 0L449 296C460 357 521 454 609 454C676 454 699 418 699 369C699 355 698 340 695 324L638 0L705 0L764 334C767 351 769 368 769 383Z"/>
<glyph unicode="&#x6e;" horiz-adv-x="549" d="M480 375C480 455 427 516 333 516C268 516 195 479 158 422C159 449 161 476 163 503L106 503L17 0L85 0L129 248C145 341 207 454 316 454C382 454 411 415 411 360C411 350 408 327 406 316L350 0L417 0L474 320C477 336 480 359 480 375Z"/>
<glyph unicode="&#x6f;" horiz-adv-x="510" d="M460 306C460 423 382 516 265 516C92 516 13 344 13 197C13 78 90 -13 208 -13C380 -13 460 158 460 306ZM391 303C391 198 340 48 214 48C121 48 82 120 82 199C82 306 134 455 259 455C350 455 391 384 391 303Z"/>
<glyph unicode="&#x70;" horiz-adv-x="547" d="M497 298C497 408 430 516 313 516C257 516 193 489 160 440L163 503L106 503C65 266 22 28 -19 -208L48 -208L100 86C124 25 193 -13 256 -13C423 -13 497 152 497 298ZM428 296C428 191 384 48 259 48C168 48 125 121 125 203C125 300 170 456 299 456C390 456 428 376 428 296Z"/>
<glyph unicode="&#x71;" horiz-adv-x="541" d="M491 503L433 503L409 417C392 475 329 516 258 516C92 516 13 342 13 200C13 90 78 -13 197 -13C253 -13 311 10 344 54L298 -208L366 -208ZM385 299C385 194 336 47 212 47C121 47 81 122 81 203C81 308 137 455 254 455C348 455 385 383 385 299Z"/>
<glyph unicode="&#x72;" horiz-adv-x="353" d="M373 502C356 506 338 508 321 508C255 508 190 478 157 418L163 503L107 503L17 0L84 0L129 245C147 343 203 444 311 444C330 444 346 440 362 435Z"/>
<glyph unicode="&#x73;" horiz-adv-x="477" d="M433 356C433 462 343 516 249 516C133 516 59 446 59 358C59 288 112 258 171 241L249 219C298 205 338 186 338 141C338 76 269 46 214 46C142 46 70 79 70 161C70 163 71 164 71 166L3 166C2 160 2 155 2 150C2 48 96 -13 209 -13C316 -13 406 49 406 149C406 206 368 255 298 274L179 306C150 314 126 335 126 369C126 428 188 458 242 458C304 458 364 423 364 356Z"/>
<glyph unicode="&#x74;" horiz-adv-x="347" d="M351 503L199 503L226 656L155 636L131 503L31 503L21 443L121 443L69 149C66 132 64 116 64 100C64 34 112 -7 181 -7C213 -7 250 1 278 15L289 75C269 66 226 53 200 53C160 53 133 69 133 111C133 120 134 135 137 153L188 443L340 443Z"/>
<glyph unicode="&#x75;" horiz-adv-x="545" d="M492 503L424 503L380 254C363 160 309 49 203 49C137 49 106 90 106 148C106 159 107 171 109 184L166 503L98 503L41 180C38 164 37 150 37 135C37 44 95 -13 185 -13C247 -13 315 21 351 78L346 0L403 0Z"/>
<glyph unicode="&#x76;" horiz-adv-x="443" d="M467 503L393 503L169 85L85 503L17 503L121 0L192 0Z"/>
<glyph unicode="&#x77;" horiz-adv-x="723" d="M726 503L658 503L482 92L414 496L353 496L144 91L116 503L50 503L88 0L160 0L370 406L438 0L506 0Z"/>
<glyph unicode="&#x78;" horiz-adv-x="455" d="M473 503L390 503L214 302L108 503L35 503L165 258L-58 0L24 0L204 210L313 0L387 0L251 254Z"/>
<glyph unicode="&#x79;" horiz-adv-x="460" d="M485 503L411 503L182 83L92 503L21 503L134 2L76 -103C59 -132 38 -152 1 -152C-26 -152 -54 -139 -74 -125L-84 -181C-60 -198 -24 -212 9 -212C67 -212 107 -178 135 -128Z"/>
<glyph unicode="&#x7a;" horiz-adv-x="460" d="M448 503L65 503L54 442L354 442L-12 65L-24 0L364 0L376 61L69 61L436 438Z"/>
<glyph unicode="&#x7b;" horiz-adv-x="319" d="M390 760L364 760C268 760 206 707 189 612L158 436C149 384 88 354 41 352L30 293C75 290 114 264 117 222C117 215 117 208 116 203L88 39C86 26 84 12 84 0C84 -77 132 -117 209 -117L236 -117L245 -65C180 -65 143 -52 143 10C143 20 144 30 146 41L173 200C174 205 176 218 176 223C176 270 147 308 101 322C162 333 205 378 215 436L245 606C256 667 285 707 355 707L381 707Z"/>
<glyph unicode="&#x7c;" horiz-adv-x="232" d="M144 -117L144 759L88 759L88 -117Z"/>
<glyph unicode="&#x7d;" horiz-adv-x="319" d="M285 350C236 353 197 378 197 425C197 430 198 434 199 439L229 611C231 625 232 638 232 649C232 721 188 760 106 760L79 760L70 707C144 707 173 691 173 634C173 625 171 613 169 601L142 443C141 436 140 430 140 423C140 376 168 334 216 322C156 310 110 264 100 206L70 36C60 -21 30 -65 -39 -65L-65 -65L-74 -117L-48 -117C59 -117 108 -69 127 36L156 199C165 253 216 289 274 290Z"/>
<glyph unicode="&#x7e;" horiz-adv-x="598" d="M523 311L485 357C447 323 418 312 384 312C321 312 263 369 194 369C143 369 102 349 50 300L88 253C125 288 155 301 189 301C252 301 310 241 379 241C431 241 471 261 523 311Z"/>
<glyph unicode="&#xa0;" horiz-adv-x="217" />
<glyph unicode="&#xa1;" horiz-adv-x="288" d="M229 504L137 504L120 411L212 411ZM168 283L122 283L53 4L16 -205L101 -205L138 4Z"/>
<glyph unicode="&#xa2;" horiz-adv-x="542" d="M489 426L489 437C489 532 425 598 340 612L357 709L306 709L289 615C126 606 52 438 52 293C52 192 105 117 196 92L180 0L231 0L246 86C348 86 438 153 460 251L391 251C372 194 319 147 257 147L329 550C382 537 419 496 419 433L419 426ZM278 552L207 154C149 176 121 228 121 295C121 398 163 535 278 552Z"/>
<glyph unicode="&#xa3;" horiz-adv-x="542" d="M531 557C531 641 470 710 371 710C261 710 182 639 161 517L140 398L59 398L48 339L130 339L97 153C87 98 54 69 3 67L-9 0L316 0C416 0 487 53 504 156L438 156C428 105 393 62 328 62L105 62L105 64C142 76 158 115 164 147L198 339L369 339L380 398L208 398L229 516C240 578 278 649 363 649C428 649 463 610 463 551C463 545 462 537 461 531L528 531C530 539 531 548 531 557Z"/>
<glyph unicode="&#xa4;" horiz-adv-x="542" d="M520 41L441 110C472 149 490 200 490 253C490 306 472 356 442 395L520 461L467 514L400 436C363 464 317 481 266 481C214 481 169 465 131 436L64 514L11 461L89 395C60 356 42 306 42 253C42 200 61 149 91 110L11 41L64 -10L133 69C170 41 215 25 266 25C316 25 361 41 398 69L468 -10ZM425 253C425 162 363 86 266 86C168 86 106 165 106 253C106 346 166 419 266 419C361 419 425 344 425 253Z"/>
<glyph unicode="&#xa5;" horiz-adv-x="542" d="M567 695L489 695L240 355L107 695L37 695L173 349L40 349L31 299L198 299L181 202L14 202L6 151L172 151L145 0L213 0L240 151L422 151L431 202L248 202L266 299L448 299L457 349L308 349Z"/>
<glyph unicode="&#xa6;" horiz-adv-x="239" d="M154 444L154 759L92 759L92 444ZM154 -50L154 263L92 263L92 -50Z"/>
<glyph unicode="&#xa7;" horiz-adv-x="522" d="M482 564C482 653 407 710 321 710C218 710 134 640 134 535C134 505 144 473 161 448C96 416 49 362 49 287C49 247 64 212 91 183L263 -2C282 -22 294 -48 294 -77C294 -141 243 -184 181 -184C123 -184 82 -150 82 -91C82 -81 83 -70 85 -60L18 -60C16 -72 14 -85 14 -97C14 -185 85 -244 175 -244C276 -244 362 -175 362 -69C362 -38 353 -7 335 18C400 50 447 104 447 180C447 219 432 255 405 283L233 468C214 488 202 515 202 543C202 607 254 651 315 651C372 651 414 616 414 558C414 548 413 537 411 527L478 527C480 539 482 552 482 564ZM381 168C381 116 348 78 302 57L142 230C125 249 115 273 115 299C115 351 148 389 195 409L354 236C371 217 381 194 381 168Z"/>
<glyph unicode="&#xa8;" horiz-adv-x="259" d="M316 688L240 688L226 611L303 611ZM136 688L60 688L46 611L122 611Z"/>
<glyph unicode="&#xa9;" horiz-adv-x="840" d="M782 354C782 559 625 722 420 722C214 722 57 558 57 354C57 149 214 -13 420 -13C625 -13 782 150 782 354ZM725 354C725 177 598 41 420 41C242 41 115 176 115 354C115 531 242 668 420 668C598 668 725 532 725 354ZM591 301L528 301C522 243 478 212 426 212C343 212 313 283 313 354C313 426 350 497 427 497C480 497 522 465 528 408L591 408C584 496 515 553 427 553C316 553 249 459 249 354C249 252 312 155 426 155C512 155 584 211 591 301Z"/>
<glyph unicode="&#xaa;" horiz-adv-x="456" d="M419 316L419 359C417 358 410 357 405 357C386 357 380 367 380 390L380 569C380 661 330 709 237 709C155 709 91 668 87 585L141 585C143 632 176 662 237 662C301 662 327 630 327 580L327 549L200 541C110 535 68 481 68 423C68 354 120 304 201 304C259 304 307 333 328 373C330 338 348 310 388 310C400 310 407 311 419 316ZM327 485C327 416 287 351 208 351C153 351 123 380 123 424C123 484 181 497 240 500L327 504Z"/>
<glyph unicode="&#xab;" horiz-adv-x="506" d="M488 485L449 518L248 297L372 70L420 99L327 293ZM268 485L229 518L27 297L151 70L200 99L107 293Z"/>
<glyph unicode="&#xac;" horiz-adv-x="591" d="M518 109L518 333L43 333L43 271L455 271L455 109Z"/>
<glyph unicode="&#xad;" horiz-adv-x="404" d="M343 333L53 333L42 270L332 270Z"/>
<glyph unicode="&#xae;" horiz-adv-x="838" d="M781 354C781 559 624 721 418 721C213 721 56 558 56 354C56 149 213 -13 418 -13C624 -13 781 150 781 354ZM723 354C723 177 596 41 418 41C240 41 113 176 113 354C113 531 240 667 418 667C596 667 723 532 723 354ZM568 430C568 502 514 552 434 552L295 552L295 164L352 164L352 308L438 308C460 260 482 212 503 164L567 164L495 319C544 339 568 381 568 430ZM509 431C509 391 484 363 434 363L352 363L352 497L434 497C482 497 509 469 509 431Z"/>
<glyph unicode="&#xaf;" horiz-adv-x="265" d="M327 649L57 649L47 592L317 592Z"/>
<glyph unicode="&#xb0;" horiz-adv-x="438" d="M419 557C419 651 346 722 253 722C161 722 88 651 88 557C88 464 161 392 253 392C346 392 419 464 419 557ZM358 557C358 496 313 450 253 450C193 450 148 496 148 557C148 619 193 665 253 665C313 665 358 619 358 557Z"/>
<glyph unicode="&#xb1;" horiz-adv-x="538" d="M479 342L479 399L293 399L293 587L234 587L234 399L47 399L47 342L234 342L234 150L293 150L293 342ZM479 0L479 56L47 56L47 0Z"/>
<glyph unicode="&#xb2;" horiz-adv-x="406" d="M367 618C367 674 318 716 258 716C174 716 117 662 102 586L162 586C170 630 201 662 250 662C284 662 307 640 307 611C307 577 279 553 254 534L75 397L66 347L333 347L342 402L165 402L276 485C322 519 367 554 367 618Z"/>
<glyph unicode="&#xb3;" horiz-adv-x="410" d="M382 621C382 678 328 716 265 716C185 716 129 678 111 605L172 605C183 646 215 668 259 668C294 668 322 647 322 615C322 572 285 555 247 555L220 555L211 506C246 506 302 505 302 455C302 406 255 386 214 386C175 386 139 408 139 449C139 453 140 458 140 462L84 462C83 457 83 452 83 447C83 379 140 336 208 336C283 336 361 377 361 459C361 488 341 522 312 530C353 541 382 579 382 621Z"/>
<glyph unicode="&#xb4;" horiz-adv-x="212" d="M263 657L235 715L50 596L68 558Z"/>
<glyph unicode="&#xb5;" horiz-adv-x="560" d="M470 0L470 503L402 503L402 246C402 147 363 50 256 50C171 50 138 98 138 179L138 503L70 503L70 -200L138 -200L138 25C157 5 193 -12 245 -12C309 -12 377 23 404 84L411 0Z"/>
<glyph unicode="&#xb6;" horiz-adv-x="634" d="M637 708L306 708C183 708 86 624 86 504C86 418 155 345 240 342L157 -125L219 -125L356 650L481 650L345 -125L406 -125L542 650L627 650Z"/>
<glyph unicode="&#xb7;" horiz-adv-x="260" d="M177 355L74 355L56 251L159 251Z"/>
<glyph unicode="&#xb8;" horiz-adv-x="143" d="M94 -53L31 -53L-68 -187L-3 -221Z"/>
<glyph unicode="&#xb9;" horiz-adv-x="300" d="M258 709L203 709L92 637L80 571L187 640L135 345L194 345Z"/>
<glyph unicode="&#xba;" horiz-adv-x="456" d="M416 506C416 568 404 622 363 663C335 690 297 708 248 708C200 708 161 690 134 663C93 622 80 568 80 506C80 443 93 389 134 348C161 321 200 303 248 303C297 303 335 321 363 348C404 389 416 443 416 506ZM360 506C360 459 354 413 323 382C306 364 281 353 248 353C215 353 190 364 173 382C142 413 136 459 136 506C136 553 142 598 173 629C190 647 215 659 248 659C281 659 306 647 323 629C354 598 360 553 360 506Z"/>
<glyph unicode="&#xbb;" horiz-adv-x="497" d="M463 292L338 518L290 489L383 296L223 104L261 71ZM243 292L118 518L69 489L163 296L2 104L41 71Z"/>
<glyph unicode="&#xbc;" horiz-adv-x="821" d="M728 129L667 129L681 210L623 210L609 129L491 129L687 370L619 370L428 137L417 78L600 78L587 0L644 0L657 78L719 78ZM750 689L710 722L70 18L109 -17ZM292 709L237 709L125 637L114 571L221 640L168 345L227 345Z"/>
<glyph unicode="&#xbd;" horiz-adv-x="868" d="M750 689L710 722L70 18L109 -17ZM292 709L237 709L125 637L114 571L221 640L168 345L227 345ZM764 271C764 327 715 369 655 369C571 369 514 315 499 239L559 239C567 283 598 315 647 315C681 315 704 293 704 264C704 230 676 206 651 187L472 50L463 0L730 0L739 55L562 55L673 138C719 172 764 207 764 271Z"/>
<glyph unicode="&#xbe;" horiz-adv-x="873" d="M803 689L763 722L123 18C136 6 162 -16 162 -16ZM780 129L719 129C723 156 728 183 733 210L675 210C671 183 666 156 661 129L543 129L740 370L672 370L480 137L469 78L652 78L638 0L696 0L709 78L771 78ZM382 621C382 678 328 716 265 716C185 716 129 678 111 605L172 605C183 646 215 668 259 668C294 668 322 647 322 615C322 572 285 555 247 555L220 555L211 506C246 506 302 505 302 455C302 406 255 386 214 386C175 386 139 408 139 449C139 453 140 458 140 462L84 462C83 457 83 452 83 447C83 379 140 336 208 336C283 336 361 377 361 459C361 488 341 522 312 530C353 541 382 579 382 621Z"/>
<glyph unicode="&#xbf;" horiz-adv-x="462" d="M-19 -48C-19 -146 62 -218 176 -218C306 -218 391 -131 411 -18L338 -18C324 -98 267 -154 180 -154C113 -154 53 -115 53 -45C53 75 183 106 235 161C267 195 282 238 291 307L226 307C215 235 192 196 130 159C54 114 -19 56 -19 -48ZM229 409L322 409L338 503L245 503Z"/>
<glyph unicode="&#xc0;" horiz-adv-x="583" d="M530 0L392 709L315 709L-70 0L6 0L100 177L426 177L460 0ZM414 244L136 244L341 628ZM458 809L315 928L272 873L430 773Z"/>
<glyph unicode="&#xc1;" horiz-adv-x="583" d="M530 0L392 709L315 709L-70 0L6 0L100 177L426 177L460 0ZM414 244L136 244L341 628ZM464 860L436 918L251 799L270 761Z"/>
<glyph unicode="&#xc2;" horiz-adv-x="583" d="M530 0L392 709L315 709L-70 0L6 0L100 177L426 177L460 0ZM414 244L136 244L341 628ZM210 804L244 761L375 861L465 761L510 800L407 913L354 913Z"/>
<glyph unicode="&#xc3;" horiz-adv-x="583" d="M530 0L392 709L315 709L-70 0L6 0L100 177L426 177L460 0ZM414 244L136 244L341 628ZM518 833L493 868C476 852 457 841 433 841C390 841 361 884 309 884C270 884 240 863 213 838L239 803C256 818 273 829 297 829C340 829 369 787 422 787C461 787 492 808 518 833Z"/>
<glyph unicode="&#xc4;" horiz-adv-x="583" d="M530 0L392 709L315 709L-70 0L6 0L100 177L426 177L460 0ZM414 244L136 244L341 628ZM502 868L426 868L412 791L489 791ZM322 868L246 868L232 791L308 791Z"/>
<glyph unicode="&#xc5;" horiz-adv-x="583" d="M529 0L400 669C449 684 477 727 477 776C477 838 433 890 360 890C290 890 243 837 243 776C243 734 264 698 299 679L-69 0L6 0L100 177L426 177L460 0ZM426 777C426 742 406 709 357 709C320 709 294 741 294 776C294 812 319 844 360 844C399 844 426 813 426 777ZM414 244L136 244L341 628C366 500 389 372 414 244Z"/>
<glyph unicode="&#xc6;" horiz-adv-x="866" d="M892 709L364 709L-79 0L0 0L119 193L390 193L355 0L769 0L781 66L438 66L487 345L779 345L791 412L499 412L540 643L880 643ZM469 645L402 259L160 259L397 645Z"/>
<glyph unicode="&#xc7;" horiz-adv-x="587" d="M589 487C589 615 492 722 353 722C117 722 28 453 28 250C28 98 121 -13 273 -13C405 -13 513 83 540 206L466 206C446 123 373 55 278 55C163 55 101 134 101 252C101 420 171 654 349 654C446 654 516 587 516 487ZM285 -51L222 -51L123 -185L188 -219Z"/>
<glyph unicode="&#xc8;" horiz-adv-x="589" d="M610 709L152 709L27 0L490 0L501 66L109 66L158 338L500 338L512 405L169 405L211 643L599 643ZM479 801L336 920L293 865L451 765Z"/>
<glyph unicode="&#xc9;" horiz-adv-x="589" d="M610 709L152 709L27 0L490 0L501 66L109 66L158 338L500 338L512 405L169 405L211 643L599 643ZM519 860L491 918L306 799L325 761Z"/>
<glyph unicode="&#xca;" horiz-adv-x="589" d="M610 709L152 709L27 0L490 0L501 66L109 66L158 338L500 338L512 405L169 405L211 643L599 643ZM235 804L269 761L400 861L490 761L535 800L432 913L379 913Z"/>
<glyph unicode="&#xcb;" horiz-adv-x="589" d="M610 709L152 709L27 0L490 0L501 66L109 66L158 338L500 338L512 405L169 405L211 643L599 643ZM535 878L459 878L445 801L522 801ZM355 878L279 878L265 801L341 801Z"/>
<glyph unicode="&#xcc;" horiz-adv-x="252" d="M225 709L152 709L27 0L99 0ZM294 809L151 928L108 873L266 773Z"/>
<glyph unicode="&#xcd;" horiz-adv-x="252" d="M223 709L150 709L25 0L97 0ZM311 862L283 920L98 801L117 763Z"/>
<glyph unicode="&#xce;" horiz-adv-x="252" d="M225 709L152 709L27 0L99 0ZM49 804L83 761L214 861L304 761L349 800L246 913L193 913Z"/>
<glyph unicode="&#xcf;" horiz-adv-x="252" d="M331 878L254 878L241 801L317 801ZM175 878L99 878L86 801L162 801ZM223 709L150 709L25 0L97 0Z"/>
<glyph unicode="&#xd0;" horiz-adv-x="642" d="M611 462C611 604 527 709 380 709L153 709L97 395L34 395L24 341L88 341L27 0L275 0C356 0 422 24 474 70C573 158 611 333 611 462ZM540 456C540 351 505 189 426 118C390 86 337 66 285 66L110 66L159 341L327 341L337 395L168 395L212 642L372 642C486 642 540 562 540 456Z"/>
<glyph unicode="&#xd1;" horiz-adv-x="708" d="M681 709L610 709L504 104L230 709L152 709L27 0L98 0L203 604L477 0L555 0ZM575 817L550 852C533 836 514 825 490 825C447 825 418 868 366 868C327 868 297 847 270 822L296 787C313 802 330 813 354 813C397 813 426 771 479 771C518 771 549 792 575 817Z"/>
<glyph unicode="&#xd2;" horiz-adv-x="627" d="M596 457C596 604 507 722 351 722C122 722 28 454 28 250C28 101 120 -13 275 -13C508 -13 596 256 596 457ZM523 455C523 291 456 55 278 55C162 55 101 140 101 252C101 417 174 654 348 654C463 654 523 568 523 455ZM491 807L348 926L305 871L463 771Z"/>
<glyph unicode="&#xd3;" horiz-adv-x="627" d="M596 457C596 604 507 722 351 722C122 722 28 454 28 250C28 101 120 -13 275 -13C508 -13 596 256 596 457ZM523 455C523 291 456 55 278 55C162 55 101 140 101 252C101 417 174 654 348 654C463 654 523 568 523 455ZM495 863L467 921L282 802L301 764Z"/>
<glyph unicode="&#xd4;" horiz-adv-x="627" d="M596 457C596 604 507 722 351 722C122 722 28 454 28 250C28 101 120 -13 275 -13C508 -13 596 256 596 457ZM523 455C523 291 456 55 278 55C162 55 101 140 101 252C101 417 174 654 348 654C463 654 523 568 523 455ZM234 804L268 761L399 861L489 761L534 800L431 913L378 913Z"/>
<glyph unicode="&#xd5;" horiz-adv-x="627" d="M596 457C596 604 507 722 351 722C122 722 28 454 28 250C28 101 120 -13 275 -13C508 -13 596 256 596 457ZM523 455C523 291 456 55 278 55C162 55 101 140 101 252C101 417 174 654 348 654C463 654 523 568 523 455ZM545 833L520 868C503 852 484 841 460 841C417 841 388 884 336 884C297 884 267 863 240 838L266 803C283 818 300 829 324 829C367 829 396 787 449 787C488 787 519 808 545 833Z"/>
<glyph unicode="&#xd6;" horiz-adv-x="627" d="M596 457C596 604 507 722 351 722C122 722 28 454 28 250C28 101 120 -13 275 -13C508 -13 596 256 596 457ZM523 455C523 291 456 55 278 55C162 55 101 140 101 252C101 417 174 654 348 654C463 654 523 568 523 455ZM531 869L455 869L441 792L518 792ZM351 869L275 869L261 792L337 792Z"/>
<glyph unicode="&#xd7;" horiz-adv-x="647" d="M594 69L365 297L594 525L551 567L323 340L96 567L53 525L281 297L53 69L96 27L323 255L551 27Z"/>
<glyph unicode="&#xd8;" horiz-adv-x="628" d="M597 459C597 534 573 604 528 650L587 746L545 768L491 682C453 707 406 722 351 722C122 722 28 454 28 250C28 173 53 103 98 57C76 23 55 -12 33 -47L75 -69L136 27C173 2 221 -13 275 -13C508 -13 597 257 597 459ZM524 457C524 292 456 55 278 55C235 55 200 67 173 87L487 586C512 553 524 508 524 457ZM453 622L139 121C114 155 101 200 101 252C101 417 174 654 348 654C391 654 426 642 453 622Z"/>
<glyph unicode="&#xd9;" horiz-adv-x="664" d="M652 709L581 709L505 283C484 164 433 54 293 54C187 54 128 110 128 209C128 227 130 245 133 263L211 709L140 709L62 269C58 248 57 227 57 207C57 75 148 -13 288 -13C451 -13 543 98 570 249ZM488 802L345 921L302 866L460 766Z"/>
<glyph unicode="&#xda;" horiz-adv-x="664" d="M652 709L581 709L505 283C484 164 433 54 293 54C187 54 128 110 128 209C128 227 130 245 133 263L211 709L140 709L62 269C58 248 57 227 57 207C57 75 148 -13 288 -13C451 -13 543 98 570 249ZM519 860L491 918L306 799L325 761Z"/>
<glyph unicode="&#xdb;" horiz-adv-x="664" d="M652 709L581 709L505 283C484 164 433 54 293 54C187 54 128 110 128 209C128 227 130 245 133 263L211 709L140 709L62 269C58 248 57 227 57 207C57 75 148 -13 288 -13C451 -13 543 98 570 249ZM258 804L292 761L423 861L513 761L558 800L455 913L402 913Z"/>
<glyph unicode="&#xdc;" horiz-adv-x="664" d="M652 709L581 709L505 283C484 164 433 54 293 54C187 54 128 110 128 209C128 227 130 245 133 263L211 709L140 709L62 269C58 248 57 227 57 207C57 75 148 -13 288 -13C451 -13 543 98 570 249ZM545 869L469 869L455 792L532 792ZM365 869L289 869L275 792L351 792Z"/>
<glyph unicode="&#xdd;" horiz-adv-x="514" d="M590 709L510 709L248 352L110 709L38 709L203 284L152 0L223 0L273 284ZM432 852L404 910L219 791L238 753Z"/>
<glyph unicode="&#xde;" horiz-adv-x="565" d="M562 389C562 509 469 573 357 573L198 573L221 709L150 709L25 0L96 0L122 147L293 147C443 147 562 229 562 389ZM488 386C488 271 409 213 299 213L134 213L186 508L344 508C421 508 488 471 488 386Z"/>
<glyph unicode="&#xdf;" horiz-adv-x="566" d="M524 562C524 658 447 725 346 725C226 725 147 644 127 525L123 501L35 501L24 439L112 439L35 0L102 0L195 522C209 600 258 665 339 665C403 665 454 627 454 558C454 484 403 418 325 418L278 418L267 357L301 357C376 357 444 309 444 223C444 120 377 52 274 52C245 52 214 57 186 64L176 5C209 -4 244 -10 278 -10C413 -10 514 87 514 220C514 297 470 364 396 386C475 401 524 486 524 562Z"/>
<glyph unicode="&#xe0;" horiz-adv-x="536" d="M486 503L429 503L405 428C386 472 332 516 262 516C97 516 13 347 13 200C13 83 77 -13 193 -13C256 -13 322 28 349 80L344 0L397 0ZM380 307C380 197 316 48 202 48C107 48 81 132 81 203C81 312 140 455 261 455C350 455 380 382 380 307ZM387 592L244 712L201 656L359 557Z"/>
<glyph unicode="&#xe1;" horiz-adv-x="536" d="M486 503L429 503L405 428C386 472 332 516 262 516C97 516 13 347 13 200C13 83 77 -13 193 -13C256 -13 322 28 349 80L344 0L397 0ZM380 307C380 197 316 48 202 48C107 48 81 132 81 203C81 312 140 455 261 455C350 455 380 382 380 307ZM409 661L381 719L196 600L214 562Z"/>
<glyph unicode="&#xe2;" horiz-adv-x="536" d="M486 503L429 503L405 428C386 472 332 516 262 516C97 516 13 347 13 200C13 83 77 -13 193 -13C256 -13 322 28 349 80L344 0L397 0ZM380 307C380 197 316 48 202 48C107 48 81 132 81 203C81 312 140 455 261 455C350 455 380 382 380 307ZM152 604L187 565L300 662L374 567L419 602L331 717L280 717Z"/>
<glyph unicode="&#xe3;" horiz-adv-x="536" d="M486 503L429 503L405 428C386 472 332 516 262 516C97 516 13 347 13 200C13 83 77 -13 193 -13C256 -13 322 28 349 80L344 0L397 0ZM380 307C380 197 316 48 202 48C107 48 81 132 81 203C81 312 140 455 261 455C350 455 380 382 380 307ZM460 645L435 680C418 664 399 653 375 653C332 653 303 696 251 696C212 696 182 675 155 650L181 615C198 630 215 641 239 641C282 641 311 599 364 599C403 599 434 620 460 645Z"/>
<glyph unicode="&#xe4;" horiz-adv-x="536" d="M486 503L429 503L405 428C386 472 332 516 262 516C97 516 13 347 13 200C13 83 77 -13 193 -13C256 -13 322 28 349 80L344 0L397 0ZM380 307C380 197 316 48 202 48C107 48 81 132 81 203C81 312 140 455 261 455C350 455 380 382 380 307ZM448 689L372 689L358 612L435 612ZM268 689L192 689L178 612L254 612Z"/>
<glyph unicode="&#xe5;" horiz-adv-x="536" d="M418 670C418 728 377 776 309 776C241 776 201 728 201 670C201 612 245 564 309 564C373 564 418 612 418 670ZM370 670C370 636 347 608 309 608C272 608 247 636 247 670C247 704 272 733 309 733C347 733 370 704 370 670ZM486 503L429 503L405 428C386 472 332 516 262 516C97 516 13 347 13 200C13 83 77 -13 193 -13C256 -13 322 28 349 80L344 0L397 0ZM380 307C380 197 316 48 202 48C107 48 81 132 81 203C81 312 140 455 261 455C350 455 380 382 380 307Z"/>
<glyph unicode="&#xe6;" horiz-adv-x="824" d="M779 306C779 417 713 516 591 516C513 516 452 477 416 427C398 485 332 516 273 516C170 516 84 462 59 359L125 359C142 422 195 457 266 457C332 457 365 415 365 361C365 334 360 314 356 291L191 291C83 291 -1 222 -1 119C-1 41 70 -13 150 -13C236 -13 317 22 364 113C388 37 455 -13 540 -13C630 -13 721 47 745 139L676 139C654 85 604 47 546 47C455 47 410 117 410 204C410 213 410 222 411 232L772 232C776 257 779 277 779 306ZM713 311C713 304 713 298 712 291L420 291C440 379 494 456 585 456C670 456 713 392 713 311ZM347 234C329 143 268 47 161 47C112 47 67 73 67 127C67 193 122 234 193 234Z"/>
<glyph unicode="&#xe7;" horiz-adv-x="482" d="M450 327L450 338C450 446 369 516 263 516C93 516 13 345 13 194C13 72 92 -13 211 -13C312 -13 400 56 421 152L352 152C331 92 281 48 215 48C126 48 82 113 82 196C82 305 131 455 258 455C330 455 380 406 380 334L380 327ZM224 -53L161 -53L62 -187L127 -221Z"/>
<glyph unicode="&#xe8;" horiz-adv-x="504" d="M461 306C461 421 388 516 266 516C94 516 13 353 13 208C13 87 86 -13 214 -13C309 -13 402 48 426 139L355 139C333 85 280 48 221 48C127 48 81 116 81 204C81 213 81 222 82 232L452 232C458 258 461 277 461 306ZM393 311C393 304 393 298 392 291L91 291C109 375 167 456 261 456C347 456 393 391 393 311ZM397 592L254 712L211 656L369 557Z"/>
<glyph unicode="&#xe9;" horiz-adv-x="504" d="M461 306C461 421 388 516 266 516C94 516 13 353 13 208C13 87 86 -13 214 -13C309 -13 402 48 426 139L355 139C333 85 280 48 221 48C127 48 81 116 81 204C81 213 81 222 82 232L452 232C458 258 461 277 461 306ZM393 311C393 304 393 298 392 291L91 291C109 375 167 456 261 456C347 456 393 391 393 311ZM411 660L383 718L198 599L216 561Z"/>
<glyph unicode="&#xea;" horiz-adv-x="504" d="M461 306C461 421 388 516 266 516C94 516 13 353 13 208C13 87 86 -13 214 -13C309 -13 402 48 426 139L355 139C333 85 280 48 221 48C127 48 81 116 81 204C81 213 81 222 82 232L452 232C458 258 461 277 461 306ZM393 311C393 304 393 298 392 291L91 291C109 375 167 456 261 456C347 456 393 391 393 311ZM142 604L177 565L290 662L364 567L409 602L321 717L270 717Z"/>
<glyph unicode="&#xeb;" horiz-adv-x="504" d="M461 306C461 421 388 516 266 516C94 516 13 353 13 208C13 87 86 -13 214 -13C309 -13 402 48 426 139L355 139C333 85 280 48 221 48C127 48 81 116 81 204C81 213 81 222 82 232L452 232C458 258 461 277 461 306ZM393 311C393 304 393 298 392 291L91 291C109 375 167 456 261 456C347 456 393 391 393 311ZM439 688L363 688L349 611L426 611ZM259 688L183 688L169 611L245 611Z"/>
<glyph unicode="&#xec;" horiz-adv-x="226" d="M244 616L108 730L67 676L218 582ZM177 503L107 503L17 0L87 0Z"/>
<glyph unicode="&#xed;" horiz-adv-x="226" d="M266 677L239 733L63 620L81 583ZM177 503L107 503L17 0L87 0Z"/>
<glyph unicode="&#xee;" horiz-adv-x="226" d="M22 604L57 565L170 662L244 567L289 602L201 717L150 717ZM177 503L107 503L17 0L87 0Z"/>
<glyph unicode="&#xef;" horiz-adv-x="226" d="M289 700L213 700L199 622L276 622ZM134 700L58 700L44 622L120 622ZM177 503L107 503L17 0L87 0Z"/>
<glyph unicode="&#xf0;" horiz-adv-x="515" d="M464 306C464 336 457 369 447 396L373 593L446 593L455 642L353 642C342 669 333 695 322 722L256 722L286 642L190 642L181 593L305 593L341 498C322 509 296 516 269 516C95 516 17 344 17 197C17 77 94 -13 212 -13C385 -13 464 158 464 306ZM395 303C395 198 344 48 218 48C128 48 86 118 86 199C86 306 138 455 263 455C353 455 395 384 395 303Z"/>
<glyph unicode="&#xf1;" horiz-adv-x="549" d="M480 375C480 455 427 516 333 516C268 516 195 479 158 422C159 449 161 476 163 503L106 503L17 0L85 0L129 248C145 341 207 454 316 454C382 454 411 415 411 360C411 350 408 327 406 316L350 0L417 0L474 320C477 336 480 359 480 375ZM480 647L455 682C438 666 419 655 395 655C352 655 323 698 271 698C232 698 202 677 175 652L201 617C218 632 235 643 259 643C302 643 331 601 384 601C423 601 454 622 480 647Z"/>
<glyph unicode="&#xf2;" horiz-adv-x="510" d="M460 306C460 423 382 516 265 516C92 516 13 344 13 197C13 78 90 -13 208 -13C380 -13 460 158 460 306ZM391 303C391 198 340 48 214 48C121 48 82 120 82 199C82 306 134 455 259 455C350 455 391 384 391 303ZM389 592L246 712L203 656L361 557Z"/>
<glyph unicode="&#xf3;" horiz-adv-x="510" d="M460 306C460 423 382 516 265 516C92 516 13 344 13 197C13 78 90 -13 208 -13C380 -13 460 158 460 306ZM391 303C391 198 340 48 214 48C121 48 82 120 82 199C82 306 134 455 259 455C350 455 391 384 391 303ZM414 661L386 719L201 600L219 562Z"/>
<glyph unicode="&#xf4;" horiz-adv-x="510" d="M460 306C460 423 382 516 265 516C92 516 13 344 13 197C13 78 90 -13 208 -13C380 -13 460 158 460 306ZM391 303C391 198 340 48 214 48C121 48 82 120 82 199C82 306 134 455 259 455C350 455 391 384 391 303ZM152 604L187 565L300 662L374 567L419 602L331 717L280 717Z"/>
<glyph unicode="&#xf5;" horiz-adv-x="510" d="M460 306C460 423 382 516 265 516C92 516 13 344 13 197C13 78 90 -13 208 -13C380 -13 460 158 460 306ZM391 303C391 198 340 48 214 48C121 48 82 120 82 199C82 306 134 455 259 455C350 455 391 384 391 303ZM462 648L437 683C420 667 401 656 377 656C334 656 305 699 253 699C214 699 184 678 157 653L183 618C200 633 217 644 241 644C284 644 313 602 366 602C405 602 436 623 462 648Z"/>
<glyph unicode="&#xf6;" horiz-adv-x="510" d="M460 306C460 423 382 516 265 516C92 516 13 344 13 197C13 78 90 -13 208 -13C380 -13 460 158 460 306ZM391 303C391 198 340 48 214 48C121 48 82 120 82 199C82 306 134 455 259 455C350 455 391 384 391 303ZM443 688L367 688L353 611L430 611ZM263 688L187 688L173 611L249 611Z"/>
<glyph unicode="&#xf7;" horiz-adv-x="621" d="M352 457L352 558L256 558L256 457ZM554 269L554 331L59 331L59 269ZM352 48L352 149L256 149L256 48Z"/>
<glyph unicode="&#xf8;" horiz-adv-x="512" d="M460 306C460 366 438 424 399 463L459 557C446 564 433 572 421 580L364 490C335 506 301 516 265 516C92 516 13 344 13 197C13 150 26 84 76 36L19 -54L57 -77C76 -48 95 -19 113 10C140 -4 173 -13 208 -13C381 -13 460 158 460 306ZM391 303C391 198 340 48 214 48C187 48 165 54 147 64L362 403L371 386C383 363 391 335 391 303ZM329 436L113 94C89 133 82 165 82 199C82 306 132 455 259 455C287 455 311 448 329 436Z"/>
<glyph unicode="&#xf9;" horiz-adv-x="545" d="M492 503L424 503L380 254C363 160 309 49 203 49C137 49 106 90 106 148C106 159 107 171 109 184L166 503L98 503L41 180C38 164 37 150 37 135C37 44 95 -13 185 -13C247 -13 315 21 351 78L346 0L403 0ZM397 592L254 712L211 656L369 557Z"/>
<glyph unicode="&#xfa;" horiz-adv-x="545" d="M492 503L424 503L380 254C363 160 309 49 203 49C137 49 106 90 106 148C106 159 107 171 109 184L166 503L98 503L41 180C38 164 37 150 37 135C37 44 95 -13 185 -13C247 -13 315 21 351 78L346 0L403 0ZM428 659L400 717L215 598L233 560Z"/>
<glyph unicode="&#xfb;" horiz-adv-x="545" d="M492 503L424 503L380 254C363 160 309 49 203 49C137 49 106 90 106 148C106 159 107 171 109 184L166 503L98 503L41 180C38 164 37 150 37 135C37 44 95 -13 185 -13C247 -13 315 21 351 78L346 0L403 0ZM174 604L209 565L322 662L396 567L441 602L353 717L302 717Z"/>
<glyph unicode="&#xfc;" horiz-adv-x="545" d="M492 503L424 503L380 254C363 160 309 49 203 49C137 49 106 90 106 148C106 159 107 171 109 184L166 503L98 503L41 180C38 164 37 150 37 135C37 44 95 -13 185 -13C247 -13 315 21 351 78L346 0L403 0ZM454 688L378 688L364 611L441 611ZM274 688L198 688L184 611L260 611Z"/>
<glyph unicode="&#xfd;" horiz-adv-x="460" d="M485 503L411 503L182 83L92 503L21 503L134 2L76 -103C59 -132 38 -152 1 -152C-26 -152 -54 -139 -74 -125L-84 -181C-60 -198 -24 -212 9 -212C67 -212 107 -178 135 -128ZM392 654L364 712L179 593L197 555Z"/>
<glyph unicode="&#xfe;" horiz-adv-x="547" d="M496 298C496 406 431 516 312 516C258 516 194 490 163 443L212 722L145 722L-19 -208L47 -208L100 85C126 25 191 -13 255 -13C422 -13 496 152 496 298ZM428 296C428 191 384 48 259 48C168 48 125 121 125 203C125 300 170 456 299 456C390 456 428 376 428 296Z"/>
<glyph unicode="&#xff;" horiz-adv-x="460" d="M485 503L411 503L182 83L92 503L21 503L134 2L76 -103C59 -132 38 -152 1 -152C-26 -152 -54 -139 -74 -125L-84 -181C-60 -198 -24 -212 9 -212C67 -212 107 -178 135 -128ZM402 688L326 688L312 611L389 611ZM222 688L146 688L132 611L208 611Z"/>
<glyph unicode="&#x100;" horiz-adv-x="583" d="M530 0L392 709L315 709L-70 0L6 0L100 177L426 177L460 0ZM414 244L136 244L341 628ZM501 838L231 838L221 781L491 781Z"/>
<glyph unicode="&#x101;" horiz-adv-x="536" d="M486 503L429 503L405 428C386 472 332 516 262 516C97 516 13 347 13 200C13 83 77 -13 193 -13C256 -13 322 28 349 80L344 0L397 0ZM380 307C380 197 316 48 202 48C107 48 81 132 81 203C81 312 140 455 261 455C350 455 380 382 380 307ZM447 649L177 649L167 592L437 592Z"/>
<glyph unicode="&#x102;" horiz-adv-x="583" d="M530 0L392 709L315 709L-70 0L6 0L100 177L426 177L460 0ZM414 244L136 244L341 628ZM539 910L481 910C464 852 425 813 365 813C314 813 282 847 282 899L282 910L229 910C228 903 227 896 227 889C227 812 283 761 358 761C449 761 517 821 539 910Z"/>
<glyph unicode="&#x103;" horiz-adv-x="536" d="M486 503L429 503L405 428C386 472 332 516 262 516C97 516 13 347 13 200C13 83 77 -13 193 -13C256 -13 322 28 349 80L344 0L397 0ZM380 307C380 197 316 48 202 48C107 48 81 132 81 203C81 312 140 455 261 455C350 455 380 382 380 307ZM472 709L414 709C397 651 358 612 298 612C247 612 215 646 215 698L215 709L162 709C161 702 160 695 160 688C160 611 216 560 291 560C382 560 450 620 472 709Z"/>
<glyph unicode="&#x104;" horiz-adv-x="583" d="M377 -120C377 -165 406 -192 450 -192C481 -192 491 -188 496 -186L504 -138C501 -138 491 -139 479 -139C454 -139 442 -130 442 -103C442 -61 490 -15 530 0L392 709L315 709L-69 0L6 0L100 177L426 177L460 0L462 0C420 -25 377 -75 377 -120ZM414 244L136 244L341 628C366 500 389 372 414 244Z"/>
<glyph unicode="&#x105;" horiz-adv-x="536" d="M246 -120C246 -165 274 -192 318 -192C349 -192 359 -187 365 -186L373 -138C369 -138 359 -139 347 -139C322 -139 311 -130 311 -103C311 -61 359 -15 397 0L486 503L429 503L405 428C386 472 331 516 262 516C97 516 13 347 13 200C13 85 75 -13 193 -13C256 -13 322 28 349 80L345 7C288 -20 246 -75 246 -120ZM380 307C380 197 316 48 202 48C107 48 81 132 81 203C81 312 140 455 261 455C350 455 380 382 380 307Z"/>
<glyph unicode="&#x106;" horiz-adv-x="587" d="M589 487C589 615 492 722 353 722C117 722 28 453 28 250C28 98 121 -13 273 -13C405 -13 513 83 540 206L466 206C446 123 373 55 278 55C163 55 101 134 101 252C101 420 171 654 349 654C446 654 516 587 516 487ZM521 860L493 918L308 799L327 761Z"/>
<glyph unicode="&#x107;" horiz-adv-x="482" d="M450 327L450 338C450 446 369 516 263 516C93 516 13 345 13 194C13 72 92 -13 211 -13C312 -13 400 56 421 152L352 152C331 92 281 48 215 48C126 48 82 113 82 196C82 305 131 455 258 455C330 455 380 406 380 334L380 327ZM435 657L407 715L222 596L240 558Z"/>
<glyph unicode="&#x108;" horiz-adv-x="587" d="M589 487C589 615 492 722 353 722C117 722 28 453 28 250C28 98 121 -13 273 -13C405 -13 513 83 540 206L466 206C446 123 373 55 278 55C163 55 101 134 101 252C101 420 171 654 349 654C446 654 516 587 516 487ZM233 804L267 761L398 861L488 761L533 800L430 913L377 913Z"/>
<glyph unicode="&#x109;" horiz-adv-x="482" d="M450 327L450 338C450 446 369 516 263 516C93 516 13 345 13 194C13 72 92 -13 211 -13C312 -13 400 56 421 152L352 152C331 92 281 48 215 48C126 48 82 113 82 196C82 305 131 455 258 455C330 455 380 406 380 334L380 327ZM163 604L198 565L311 662L385 567L430 602L342 717L291 717Z"/>
<glyph unicode="&#x10a;" horiz-adv-x="587" d="M589 487C589 615 492 722 353 722C117 722 28 453 28 250C28 98 121 -13 273 -13C405 -13 513 83 540 206L466 206C446 123 373 55 278 55C163 55 101 134 101 252C101 420 171 654 349 654C446 654 516 587 516 487ZM431 878L355 878L341 801L417 801Z"/>
<glyph unicode="&#x10b;" horiz-adv-x="482" d="M450 327L450 338C450 446 369 516 263 516C93 516 13 345 13 194C13 72 92 -13 211 -13C312 -13 400 56 421 152L352 152C331 92 281 48 215 48C126 48 82 113 82 196C82 305 131 455 258 455C330 455 380 406 380 334L380 327ZM341 688L265 688L252 611L328 611Z"/>
<glyph unicode="&#x10c;" horiz-adv-x="587" d="M589 487C589 615 492 722 353 722C117 722 28 453 28 250C28 98 121 -13 273 -13C405 -13 513 83 540 206L466 206C446 123 373 55 278 55C163 55 101 134 101 252C101 420 171 654 349 654C446 654 516 587 516 487ZM537 870L503 913L372 813L282 913L237 873L340 761L393 761Z"/>
<glyph unicode="&#x10d;" horiz-adv-x="482" d="M450 327L450 338C450 446 369 516 263 516C93 516 13 345 13 194C13 72 92 -13 211 -13C312 -13 400 56 421 152L352 152C331 92 281 48 215 48C126 48 82 113 82 196C82 305 131 455 258 455C330 455 380 406 380 334L380 327ZM438 677L403 716L291 619L219 714L172 679L260 564L311 564Z"/>
<glyph unicode="&#x10e;" horiz-adv-x="642" d="M611 462C611 604 527 709 379 709L152 709L27 0L274 0C355 0 422 24 474 70C572 158 611 333 611 462ZM539 456C539 351 505 189 425 118C389 86 337 66 284 66L109 66L211 642L371 642C485 642 539 562 539 456ZM531 870L497 913L366 813L276 913L231 873L334 761L387 761Z"/>
<glyph unicode="&#x10f;" horiz-adv-x="548" d="M536 722L468 722L414 417C396 476 332 516 261 516C98 516 15 346 15 202C15 92 80 -13 199 -13C259 -13 322 20 355 75L351 0L408 0ZM388 299C388 192 336 48 214 48C123 48 84 122 84 203C84 312 142 455 257 455C351 455 388 383 388 299ZM636 722L571 722L555 631L584 631L583 625C579 601 571 585 543 569L552 540C601 564 615 601 621 637Z"/>
<glyph unicode="&#x110;" horiz-adv-x="642" d="M611 462C611 604 527 709 380 709L153 709L97 395L34 395L24 341L88 341L27 0L275 0C356 0 422 24 474 70C573 158 611 333 611 462ZM540 456C540 351 505 189 426 118C390 86 337 66 285 66L110 66L159 341L327 341L337 395L168 395L212 642L372 642C486 642 540 562 540 456Z"/>
<glyph unicode="&#x111;" horiz-adv-x="548" d="M580 620L518 620L536 722L468 722L450 620L296 620L287 565L440 565L414 417C396 476 332 516 261 516C96 516 15 344 15 200C15 91 81 -13 199 -13C260 -13 320 18 355 75L351 0L408 0L508 565L571 565ZM388 299C388 192 336 48 214 48C123 48 84 122 84 203C84 312 142 455 257 455C351 455 388 383 388 299Z"/>
<glyph unicode="&#x112;" horiz-adv-x="589" d="M610 709L152 709L27 0L490 0L501 66L109 66L158 338L500 338L512 405L169 405L211 643L599 643ZM533 838L263 838L253 781L523 781Z"/>
<glyph unicode="&#x113;" horiz-adv-x="504" d="M461 306C461 421 388 516 266 516C94 516 13 353 13 208C13 87 86 -13 214 -13C309 -13 402 48 426 139L355 139C333 85 280 48 221 48C127 48 81 116 81 204C81 213 81 222 82 232L452 232C458 258 461 277 461 306ZM393 311C393 304 393 298 392 291L91 291C109 375 167 456 261 456C347 456 393 391 393 311ZM427 649L157 649L147 592L417 592Z"/>
<glyph unicode="&#x116;" horiz-adv-x="589" d="M610 709L152 709L27 0L490 0L501 66L109 66L158 338L500 338L512 405L169 405L211 643L599 643ZM435 878L359 878L345 801L421 801Z"/>
<glyph unicode="&#x117;" horiz-adv-x="504" d="M461 306C461 421 388 516 266 516C94 516 13 353 13 208C13 87 86 -13 214 -13C309 -13 402 48 426 139L355 139C333 85 280 48 221 48C127 48 81 116 81 204C81 213 81 222 82 232L452 232C458 258 461 277 461 306ZM393 311C393 304 393 298 392 291L91 291C109 375 167 456 261 456C347 456 393 391 393 311ZM331 688L255 688L242 611L318 611Z"/>
<glyph unicode="&#x118;" horiz-adv-x="589" d="M339 -120C339 -165 367 -192 411 -192C442 -192 452 -187 458 -186L466 -138C462 -138 452 -139 440 -139C415 -139 404 -130 404 -103C404 -61 452 -15 490 0C494 22 498 44 501 66L109 66C126 156 141 247 158 338L500 338L512 405L169 405L211 643L599 643L610 709L152 709C110 473 68 236 27 0L424 0C381 -25 339 -75 339 -120Z"/>
<glyph unicode="&#x119;" horiz-adv-x="504" d="M461 306C461 421 388 516 266 516C94 516 13 353 13 208C13 78 91 -13 214 -13C240 -13 265 -8 288 -1C260 -35 235 -76 235 -120C235 -167 269 -192 313 -192C338 -192 350 -188 356 -186L364 -138C360 -138 350 -139 338 -139C313 -139 300 -130 300 -103C300 1 405 59 426 139L355 139C333 85 280 48 221 48C129 48 81 111 81 204C81 213 81 222 82 232L452 232C458 258 461 277 461 306ZM393 311C393 304 393 298 392 291L91 291C109 375 167 456 261 456C347 456 393 391 393 311Z"/>
<glyph unicode="&#x11a;" horiz-adv-x="589" d="M610 709L152 709L27 0L490 0L501 66L109 66L158 338L500 338L512 405L169 405L211 643L599 643ZM557 870L523 913L392 813L302 913L257 873L360 761L413 761Z"/>
<glyph unicode="&#x11b;" horiz-adv-x="504" d="M461 306C461 421 388 516 266 516C94 516 13 353 13 208C13 87 86 -13 214 -13C309 -13 402 48 426 139L355 139C333 85 280 48 221 48C127 48 81 116 81 204C81 213 81 222 82 232L452 232C458 258 461 277 461 306ZM393 311C393 304 393 298 392 291L91 291C109 375 167 456 261 456C347 456 393 391 393 311ZM437 677L402 716L290 619L218 714L171 679L259 564L310 564Z"/>
<glyph unicode="&#x11c;" horiz-adv-x="636" d="M528 655C491 692 431 722 355 722C115 722 28 454 28 250C28 99 118 -13 273 -13C347 -13 423 20 467 82L463 0L515 0L581 371L317 371L305 305L503 305C483 185 422 55 278 55C163 55 101 134 101 252C101 418 168 653 350 653C463 653 522 582 522 494L594 494C594 553 571 612 528 655ZM228 804L262 761L393 861L483 761L528 800L425 913L372 913Z"/>
<glyph unicode="&#x11d;" horiz-adv-x="480" d="M504 547C494 549 482 551 471 551C425 551 387 525 367 486C335 506 296 516 256 516C139 516 52 432 52 322C52 278 69 241 96 213C48 189 15 158 15 109C15 80 30 58 54 42C0 25 -38 -27 -38 -82C-38 -199 89 -230 177 -230C288 -230 416 -186 416 -66C416 10 353 53 278 61L123 78C99 81 77 95 77 120C77 150 112 175 140 181C167 167 199 160 234 160C354 160 439 246 439 354C439 392 427 426 404 453C415 477 440 494 468 494C476 494 487 492 494 490ZM371 351C371 274 314 217 238 217C169 217 118 255 118 324C118 398 174 459 251 459C316 459 371 420 371 351ZM348 -70C348 -143 264 -171 180 -171C103 -171 23 -144 23 -74C23 -29 53 10 114 19L242 7C298 2 348 -23 348 -70ZM139 604L174 565L287 662L361 567L406 602L318 717L267 717Z"/>
<glyph unicode="&#x11e;" horiz-adv-x="636" d="M528 655C491 692 431 722 355 722C115 722 28 454 28 250C28 99 118 -13 273 -13C347 -13 423 20 467 82L463 0L515 0L581 371L317 371L305 305L503 305C483 185 422 55 278 55C163 55 101 134 101 252C101 418 168 653 350 653C463 653 522 582 522 494L594 494C594 553 571 612 528 655ZM548 910L490 910C473 852 434 813 374 813C323 813 291 847 291 899L291 910L238 910C237 903 236 896 236 889C236 812 292 761 367 761C458 761 526 821 548 910Z"/>
<glyph unicode="&#x11f;" horiz-adv-x="480" d="M504 547C494 549 482 551 471 551C425 551 387 525 367 486C335 506 296 516 256 516C139 516 52 432 52 322C52 278 69 241 96 213C48 189 15 158 15 109C15 80 30 58 54 42C0 25 -38 -27 -38 -82C-38 -199 89 -230 177 -230C288 -230 416 -186 416 -66C416 10 353 53 278 61L123 78C99 81 77 95 77 120C77 150 112 175 140 181C167 167 199 160 234 160C354 160 439 246 439 354C439 392 427 426 404 453C415 477 440 494 468 494C476 494 487 492 494 490ZM371 351C371 274 314 217 238 217C169 217 118 255 118 324C118 398 174 459 251 459C316 459 371 420 371 351ZM348 -70C348 -143 264 -171 180 -171C103 -171 23 -144 23 -74C23 -29 53 10 114 19L242 7C298 2 348 -23 348 -70ZM452 709L394 709C377 651 338 612 278 612C227 612 195 646 195 698L195 709L142 709C141 702 140 695 140 688C140 611 196 560 271 560C362 560 430 620 452 709Z"/>
<glyph unicode="&#x120;" horiz-adv-x="636" d="M528 655C491 692 431 722 355 722C115 722 28 454 28 250C28 99 118 -13 273 -13C347 -13 423 20 467 82L463 0L515 0L581 371L317 371L305 305L503 305C483 185 422 55 278 55C163 55 101 134 101 252C101 418 168 653 350 653C463 653 522 582 522 494L594 494C594 553 571 612 528 655ZM430 878L354 878L340 801L416 801Z"/>
<glyph unicode="&#x121;" horiz-adv-x="480" d="M504 547C494 549 482 551 471 551C425 551 387 525 367 486C335 506 296 516 256 516C139 516 52 432 52 322C52 278 69 241 96 213C48 189 15 158 15 109C15 80 30 58 54 42C0 25 -38 -27 -38 -82C-38 -199 89 -230 177 -230C288 -230 416 -186 416 -66C416 10 353 53 278 61L123 78C99 81 77 95 77 120C77 150 112 175 140 181C167 167 199 160 234 160C354 160 439 246 439 354C439 392 427 426 404 453C415 477 440 494 468 494C476 494 487 492 494 490ZM371 351C371 274 314 217 238 217C169 217 118 255 118 324C118 398 174 459 251 459C316 459 371 420 371 351ZM348 -70C348 -143 264 -171 180 -171C103 -171 23 -144 23 -74C23 -29 53 10 114 19L242 7C298 2 348 -23 348 -70ZM334 688L258 688L245 611L321 611Z"/>
<glyph unicode="&#x122;" horiz-adv-x="636" d="M528 655C491 692 431 722 355 722C115 722 28 454 28 250C28 99 118 -13 273 -13C347 -13 423 20 467 82L463 0L515 0L581 371L317 371L305 305L503 305C483 185 422 55 278 55C163 55 101 134 101 252C101 418 168 653 350 653C463 653 522 582 522 494L594 494C594 553 571 612 528 655ZM298 -52L231 -52L217 -128L249 -128C245 -153 236 -165 209 -177C211 -186 214 -194 217 -202C253 -190 278 -163 285 -124Z"/>
<glyph unicode="&#x123;" horiz-adv-x="480" d="M504 547C494 549 482 551 471 551C425 551 387 525 367 486C335 506 296 516 256 516C139 516 52 432 52 322C52 278 69 241 96 213C48 189 15 158 15 109C15 80 30 58 54 42C0 25 -38 -27 -38 -82C-38 -199 89 -230 177 -230C288 -230 416 -186 416 -66C416 10 353 53 278 61L123 78C99 81 77 95 77 120C77 150 112 175 140 181C167 167 199 160 234 160C354 160 439 246 439 354C439 392 427 426 404 453C415 477 440 494 468 494C476 494 487 492 494 490ZM371 351C371 274 314 217 238 217C169 217 118 255 118 324C118 398 174 459 251 459C316 459 371 420 371 351ZM348 -70C348 -143 264 -171 180 -171C103 -171 23 -144 23 -74C23 -29 53 10 114 19L242 7C298 2 348 -23 348 -70ZM236 564L303 564C308 589 313 615 317 640L285 640C289 665 298 677 325 689L317 714C281 702 256 675 249 636Z"/>
<glyph unicode="&#x124;" horiz-adv-x="688" d="M661 709L590 709L536 406L170 406L223 709L152 709L27 0L98 0L158 337L524 337L464 0L535 0ZM269 804L303 761L434 861L524 761L569 800L466 913L413 913Z"/>
<glyph unicode="&#x125;" horiz-adv-x="549" d="M480 375C480 455 427 516 333 516C270 516 201 483 161 429L212 722L145 722L17 0L85 0L129 248C145 341 206 454 316 454C382 454 411 415 411 360C411 350 408 327 406 316L350 0L417 0L474 320C477 336 480 359 480 375ZM74 772L109 733L222 830L296 735L341 770L253 885L202 885Z"/>
<glyph unicode="&#x126;" horiz-adv-x="688" d="M661 709L590 709L566 578L200 578L223 709L152 709L129 578L70 578L60 523L119 523L27 0L98 0L158 337L524 337L464 0L535 0L628 523L688 523L697 578L637 578ZM170 406L190 523L557 523L536 406Z"/>
<glyph unicode="&#x127;" horiz-adv-x="549" d="M353 617L193 617C200 652 206 687 212 722L145 722C138 687 132 652 126 617L69 617C65 599 63 581 59 562L116 562L17 0L85 0L129 248C145 341 207 454 316 454C382 454 411 415 411 360C411 350 408 327 406 316L350 0L417 0L474 320C477 336 480 359 480 375C480 454 429 516 333 516C268 516 201 481 161 429L184 562L343 562C347 581 349 599 353 617Z"/>
<glyph unicode="&#x12a;" horiz-adv-x="252" d="M225 709L152 709L27 0L99 0ZM337 838L67 838L57 781L327 781Z"/>
<glyph unicode="&#x12b;" horiz-adv-x="226" d="M301 649L31 649L21 592L291 592ZM177 503L107 503L17 0L87 0Z"/>
<glyph unicode="&#x12e;" horiz-adv-x="252" d="M-52 -120C-52 -168 -18 -192 24 -192C51 -192 60 -188 67 -186L75 -138C71 -138 61 -139 49 -139C24 -139 13 -130 13 -103C13 -61 61 -15 99 0L225 709L152 709L27 0L32 0C-10 -25 -52 -75 -52 -120Z"/>
<glyph unicode="&#x12f;" horiz-adv-x="226" d="M-64 -120C-64 -165 -36 -192 8 -192C39 -192 49 -188 54 -186L62 -138C59 -138 49 -139 37 -139C12 -139 0 -130 0 -103C0 -61 48 -15 87 0L177 503L107 503L17 0L20 0C-22 -25 -64 -75 -64 -120ZM221 715L136 715L121 630L206 630Z"/>
<glyph unicode="&#x130;" horiz-adv-x="252" d="M225 709L152 709L27 0L99 0ZM254 878L178 878L164 801L240 801Z"/>
<glyph unicode="&#x131;" horiz-adv-x="227" d="M177 503L107 503L17 0L87 0Z"/>
<glyph unicode="&#x134;" horiz-adv-x="478" d="M461 709L390 709L299 193C286 119 235 55 158 55C88 55 41 101 41 173C41 185 43 198 45 210L-25 210C-27 197 -29 180 -29 166C-29 56 52 -13 151 -13C270 -13 348 73 368 183ZM260 804L294 761L425 861L515 761L560 800L457 913L404 913Z"/>
<glyph unicode="&#x135;" horiz-adv-x="232" d="M180 503L112 503L8 -82C1 -122 -22 -151 -62 -151C-86 -151 -116 -140 -136 -129L-146 -187C-117 -203 -85 -211 -51 -211C23 -211 62 -161 75 -90ZM1 604L36 565L149 662L223 567L268 602L180 717L129 717Z"/>
<glyph unicode="&#x136;" horiz-adv-x="628" d="M668 709L577 709L151 303L223 709L152 709L27 0L98 0L133 198L333 389L490 0L567 0L388 441ZM321 -52L254 -52L240 -128L272 -128C268 -153 259 -165 232 -177C234 -186 237 -194 240 -202C276 -190 301 -163 308 -124Z"/>
<glyph unicode="&#x137;" horiz-adv-x="507" d="M512 503L424 503L126 229L213 722L145 722L17 0L85 0L109 131L245 257L370 0L444 0L297 305ZM251 -52L184 -52L170 -128L202 -128C198 -153 189 -165 162 -177C164 -186 167 -194 170 -202C206 -190 231 -163 238 -124Z"/>
<glyph unicode="&#x139;" horiz-adv-x="510" d="M464 66L110 66L223 709L152 709L27 0L452 0ZM375 860L347 918L162 799L181 761Z"/>
<glyph unicode="&#x13a;" horiz-adv-x="250" d="M211 722L144 722L36 117C33 100 32 92 32 86C32 33 67 -6 121 -6C141 -6 161 -1 177 5C180 25 183 44 187 63C173 59 155 55 142 55C117 55 100 66 100 92C100 97 101 102 102 108ZM363 861L335 919L150 800L168 762Z"/>
<glyph unicode="&#x13b;" horiz-adv-x="510" d="M464 66L110 66L223 709L152 709L27 0L452 0ZM275 -52L208 -52L194 -128L226 -128C222 -153 213 -165 186 -177C188 -186 191 -194 194 -202C230 -190 255 -163 262 -124Z"/>
<glyph unicode="&#x13c;" horiz-adv-x="250" d="M211 722L144 722L36 117C33 100 32 92 32 86C32 33 67 -6 121 -6C141 -6 161 -1 177 5C180 25 183 44 187 63C173 59 155 55 142 55C117 55 100 66 100 92C100 97 101 102 102 108ZM111 -52L44 -52L30 -128L62 -128C58 -153 49 -165 22 -177C24 -186 27 -194 30 -202C66 -190 91 -163 98 -124Z"/>
<glyph unicode="&#x13d;" horiz-adv-x="510" d="M464 66L110 66L223 709L152 709L27 0L452 0ZM355 772L290 772L274 681L303 681L302 675C298 651 290 635 262 619L271 590C320 614 334 651 340 687Z"/>
<glyph unicode="&#x13e;" horiz-adv-x="250" d="M211 722L144 722L36 117C33 100 32 92 32 86C32 33 67 -6 121 -6C141 -6 161 -1 177 5C180 25 183 44 187 63C173 59 155 55 142 55C117 55 100 66 100 92C100 97 101 102 102 108ZM311 722L246 722L230 631L259 631L258 625C254 601 246 585 218 569L227 540C276 564 290 601 296 637Z"/>
<glyph unicode="&#x141;" horiz-adv-x="508" d="M463 66L109 66L158 348L346 452L326 497L169 409L222 709L151 709L90 365L-15 306L5 262L80 303L26 0L451 0Z"/>
<glyph unicode="&#x142;" horiz-adv-x="275" d="M293 472L274 516L177 462L223 722L155 722L102 420L3 365L23 321C46 334 69 346 91 359L46 106C45 99 44 93 44 86C44 30 74 -6 133 -6C153 -6 173 -1 189 5C192 25 195 44 199 64C185 59 167 55 154 55C129 55 113 66 113 93C113 99 113 104 114 108L166 401Z"/>
<glyph unicode="&#x143;" horiz-adv-x="708" d="M681 709L610 709L504 104L230 709L152 709L27 0L98 0L203 604L477 0L555 0ZM574 860L546 918L361 799L380 761Z"/>
<glyph unicode="&#x144;" horiz-adv-x="549" d="M480 375C480 455 427 516 333 516C268 516 195 479 158 422C159 449 161 476 163 503L106 503L17 0L85 0L129 248C145 341 207 454 316 454C382 454 411 415 411 360C411 350 408 327 406 316L350 0L417 0L474 320C477 336 480 359 480 375ZM466 657L438 715L253 596L271 558Z"/>
<glyph unicode="&#x145;" horiz-adv-x="708" d="M681 709L610 709L504 104L230 709L152 709L27 0L98 0L203 604L477 0L555 0ZM338 -52L271 -52L257 -128L289 -128C285 -153 276 -165 249 -177C251 -186 254 -194 257 -202C293 -190 318 -163 325 -124Z"/>
<glyph unicode="&#x146;" horiz-adv-x="549" d="M480 375C480 455 427 516 333 516C268 516 195 479 158 422C159 449 161 476 163 503L106 503L17 0L85 0L129 248C145 341 207 454 316 454C382 454 411 415 411 360C411 350 408 327 406 316L350 0L417 0L474 320C477 336 480 359 480 375ZM249 -52L182 -52L168 -128L200 -128C196 -153 187 -165 160 -177C162 -186 165 -194 168 -202C204 -190 229 -163 236 -124Z"/>
<glyph unicode="&#x147;" horiz-adv-x="708" d="M681 709L610 709L504 104L230 709L152 709L27 0L98 0L203 604L477 0L555 0ZM591 870L557 913L426 813L336 913L291 873L394 761L447 761Z"/>
<glyph unicode="&#x148;" horiz-adv-x="549" d="M480 375C480 455 427 516 333 516C268 516 195 479 158 422C159 449 161 476 163 503L106 503L17 0L85 0L129 248C145 341 207 454 316 454C382 454 411 415 411 360C411 350 408 327 406 316L350 0L417 0L474 320C477 336 480 359 480 375ZM472 677L437 716L325 619L253 714L206 679L294 564L345 564Z"/>
<glyph unicode="&#x14c;" horiz-adv-x="627" d="M596 457C596 604 507 722 351 722C122 722 28 454 28 250C28 101 120 -13 275 -13C508 -13 596 256 596 457ZM523 455C523 291 456 55 278 55C162 55 101 140 101 252C101 417 174 654 348 654C463 654 523 568 523 455ZM526 838L256 838L246 781L516 781Z"/>
<glyph unicode="&#x14d;" horiz-adv-x="510" d="M460 306C460 423 382 516 265 516C92 516 13 344 13 197C13 78 90 -13 208 -13C380 -13 460 158 460 306ZM391 303C391 198 340 48 214 48C121 48 82 120 82 199C82 306 134 455 259 455C350 455 391 384 391 303ZM435 649L165 649L155 592L425 592Z"/>
<glyph unicode="&#x150;" horiz-adv-x="627" d="M596 457C596 604 507 722 351 722C122 722 28 454 28 250C28 101 120 -13 275 -13C508 -13 596 256 596 457ZM523 455C523 291 456 55 278 55C162 55 101 140 101 252C101 417 174 654 348 654C463 654 523 568 523 455ZM643 865L613 923L426 799L445 761ZM460 865L430 923L243 799L262 761Z"/>
<glyph unicode="&#x151;" horiz-adv-x="510" d="M460 306C460 423 382 516 265 516C92 516 13 344 13 197C13 78 90 -13 208 -13C380 -13 460 158 460 306ZM391 303C391 198 340 48 214 48C121 48 82 120 82 199C82 306 134 455 259 455C350 455 391 384 391 303ZM534 661L505 720L318 595L336 557ZM351 661L322 720L135 595L153 557Z"/>
<glyph unicode="&#x152;" horiz-adv-x="993" d="M1019 709L569 709C563 672 556 635 549 598C518 677 434 722 349 722C119 722 28 454 28 253C28 102 114 -13 272 -13C348 -13 417 21 458 75L444 0L899 0C903 22 907 44 910 66L527 66L575 337L903 337L915 405L586 405L629 643L1008 643ZM518 457C518 301 456 55 276 55C154 55 100 144 100 255C100 411 170 654 345 654C462 654 518 565 518 457Z"/>
<glyph unicode="&#x153;" horiz-adv-x="859" d="M816 306C816 419 744 516 625 516C539 516 466 467 428 397C406 466 339 516 261 516C93 516 13 348 13 197C13 80 87 -13 202 -13C289 -13 354 31 397 111C421 34 494 -13 573 -13C666 -13 751 42 781 139L711 139C689 85 638 48 580 48C488 48 443 114 443 204C443 213 443 222 444 232L807 232C813 258 816 277 816 306ZM748 311C748 304 748 298 747 291L452 291C470 375 523 456 619 456C704 456 748 392 748 311ZM384 303C384 199 335 48 210 48C122 48 82 119 82 199C82 306 130 455 255 455C342 455 384 384 384 303Z"/>
<glyph unicode="&#x154;" horiz-adv-x="631" d="M618 527C618 641 525 709 409 709L152 709L27 0L98 0C115 100 133 199 151 299L371 299L466 0L541 0C508 103 475 206 443 310C543 333 618 406 618 527ZM543 522C543 414 463 363 358 363L162 363L212 644L400 644C484 644 543 602 543 522ZM512 860L484 918L299 799L318 761Z"/>
<glyph unicode="&#x155;" horiz-adv-x="353" d="M373 502C356 506 338 508 321 508C255 508 190 478 157 418L163 503L107 503L17 0L84 0L129 245C147 343 203 444 311 444C330 444 346 440 362 435ZM413 657L385 715L200 596L218 558Z"/>
<glyph unicode="&#x156;" horiz-adv-x="631" d="M618 527C618 641 525 709 409 709L152 709L27 0L98 0C115 100 133 199 151 299L371 299L466 0L541 0C508 103 475 206 443 310C543 333 618 406 618 527ZM543 522C543 414 463 363 358 363L162 363L212 644L400 644C484 644 543 602 543 522ZM310 -52L243 -52L229 -128L261 -128C257 -153 248 -165 221 -177C223 -186 226 -194 229 -202C265 -190 290 -163 297 -124Z"/>
<glyph unicode="&#x157;" horiz-adv-x="353" d="M373 502C356 506 338 508 321 508C255 508 190 478 157 418L163 503L107 503L17 0L84 0L129 245C147 343 203 444 311 444C330 444 346 440 362 435ZM78 -52L11 -52L-3 -128L29 -128C25 -153 16 -165 -11 -177C-9 -186 -6 -194 -3 -202C33 -190 58 -163 65 -124Z"/>
<glyph unicode="&#x158;" horiz-adv-x="631" d="M618 527C618 641 525 709 409 709L152 709L27 0L98 0C115 100 133 199 151 299L371 299L466 0L541 0C508 103 475 206 443 310C543 333 618 406 618 527ZM543 522C543 414 463 363 358 363L162 363L212 644L400 644C484 644 543 602 543 522ZM543 870L509 913L378 813L288 913L243 873L346 761L399 761Z"/>
<glyph unicode="&#x159;" horiz-adv-x="353" d="M373 502C356 506 338 508 321 508C255 508 190 478 157 418L163 503L107 503L17 0L84 0L129 245C147 343 203 444 311 444C330 444 346 440 362 435ZM405 677L370 716L258 619L186 714L139 679L227 564L278 564Z"/>
<glyph unicode="&#x15a;" horiz-adv-x="594" d="M570 498C570 635 462 721 334 721C202 721 84 639 84 510C84 418 150 365 233 343L351 312C431 291 457 241 457 195C457 99 362 53 277 53C175 53 83 101 83 231L10 231C10 61 137 -13 271 -13C403 -13 531 56 531 204C531 285 475 354 374 380L253 411C200 424 158 458 158 517C158 608 243 655 325 655C425 655 497 592 497 498ZM491 860L463 918L278 799L297 761Z"/>
<glyph unicode="&#x15b;" horiz-adv-x="477" d="M433 356C433 462 343 516 249 516C133 516 59 446 59 358C59 288 112 258 171 241L249 219C298 205 338 186 338 141C338 76 269 46 214 46C142 46 70 79 70 161C70 163 71 164 71 166L3 166C2 160 2 155 2 150C2 48 96 -13 209 -13C316 -13 406 49 406 149C406 206 368 255 298 274L179 306C150 314 126 335 126 369C126 428 188 458 242 458C304 458 364 423 364 356ZM412 657L384 715L199 596L217 558Z"/>
<glyph unicode="&#x15c;" horiz-adv-x="594" d="M570 498C570 635 462 721 334 721C202 721 84 639 84 510C84 418 150 365 233 343L351 312C431 291 457 241 457 195C457 99 362 53 277 53C175 53 83 101 83 231L10 231C10 61 137 -13 271 -13C403 -13 531 56 531 204C531 285 475 354 374 380L253 411C200 424 158 458 158 517C158 608 243 655 325 655C425 655 497 592 497 498ZM212 804L246 761L377 861L467 761L512 800L409 913L356 913Z"/>
<glyph unicode="&#x15d;" horiz-adv-x="477" d="M433 356C433 462 343 516 249 516C133 516 59 446 59 358C59 288 112 258 171 241L249 219C298 205 338 186 338 141C338 76 269 46 214 46C142 46 70 79 70 161C70 163 71 164 71 166L3 166C2 160 2 155 2 150C2 48 96 -13 209 -13C316 -13 406 49 406 149C406 206 368 255 298 274L179 306C150 314 126 335 126 369C126 428 188 458 242 458C304 458 364 423 364 356ZM149 604L184 565L297 662L371 567L416 602L328 717L277 717Z"/>
<glyph unicode="&#x15e;" horiz-adv-x="594" d="M570 498C570 635 462 721 334 721C202 721 84 639 84 510C84 418 150 365 233 343L351 312C431 291 457 241 457 195C457 99 362 53 277 53C175 53 83 101 83 231L10 231C10 61 137 -13 271 -13C403 -13 531 56 531 204C531 285 475 354 374 380L253 411C200 424 158 458 158 517C158 608 243 655 325 655C425 655 497 592 497 498ZM307 -53L244 -53L145 -187L210 -221Z"/>
<glyph unicode="&#x15f;" horiz-adv-x="477" d="M433 356C433 462 343 516 249 516C133 516 59 446 59 358C59 288 112 258 171 241L249 219C298 205 338 186 338 141C338 76 269 46 214 46C142 46 70 79 70 161C70 163 71 164 71 166L3 166C2 160 2 155 2 150C2 48 96 -13 209 -13C316 -13 406 49 406 149C406 206 368 255 298 274L179 306C150 314 126 335 126 369C126 428 188 458 242 458C304 458 364 423 364 356ZM234 -53L171 -53L72 -187L137 -221Z"/>
<glyph unicode="&#x160;" horiz-adv-x="594" d="M570 498C570 635 462 721 334 721C202 721 84 639 84 510C84 418 150 365 233 343L351 312C431 291 457 241 457 195C457 99 362 53 277 53C175 53 83 101 83 231L10 231C10 61 137 -13 271 -13C403 -13 531 56 531 204C531 285 475 354 374 380L253 411C200 424 158 458 158 517C158 608 243 655 325 655C425 655 497 592 497 498ZM525 870L491 913L360 813L270 913L225 873L328 761L381 761Z"/>
<glyph unicode="&#x161;" horiz-adv-x="477" d="M433 356C433 462 343 516 249 516C133 516 59 446 59 358C59 288 112 258 171 241L249 219C298 205 338 186 338 141C338 76 269 46 214 46C142 46 70 79 70 161C70 163 71 164 71 166L3 166C2 160 2 155 2 150C2 48 96 -13 209 -13C316 -13 406 49 406 149C406 206 368 255 298 274L179 306C150 314 126 335 126 369C126 428 188 458 242 458C304 458 364 423 364 356ZM417 677L382 716L270 619L198 714L151 679L239 564L290 564Z"/>
<glyph unicode="&#x162;" horiz-adv-x="506" d="M569 709L62 709L50 642L268 642L154 0L226 0L339 642L557 642ZM216 -52L149 -52L135 -128L167 -128C163 -153 154 -165 127 -177C129 -186 132 -194 135 -202C171 -190 196 -163 203 -124Z"/>
<glyph unicode="&#x163;" horiz-adv-x="347" d="M351 503L199 503L226 656L155 636L131 503L31 503L21 443L121 443L69 149C66 132 64 116 64 100C64 34 112 -7 181 -7C213 -7 250 1 278 15L289 75C269 66 226 53 200 53C160 53 133 69 133 111C133 120 134 135 137 153L188 443L340 443ZM172 -52L105 -52L91 -128L123 -128C119 -153 110 -165 83 -177C85 -186 88 -194 91 -202C127 -190 152 -163 159 -124Z"/>
<glyph unicode="&#x164;" horiz-adv-x="506" d="M569 709L62 709L50 642L268 642L154 0L226 0L339 642L557 642ZM492 870L458 913L327 813L237 913L192 873L295 761L348 761Z"/>
<glyph unicode="&#x165;" horiz-adv-x="347" d="M351 503L199 503L226 656L155 636L131 503L31 503L21 443L121 443L69 149C66 132 64 116 64 100C64 34 112 -7 181 -7C213 -7 250 1 278 15L289 75C269 66 226 53 200 53C160 53 133 69 133 111C133 120 134 135 137 153L188 443L340 443ZM383 727L318 727L302 636L331 636L330 630C326 606 318 590 290 574L299 545C348 569 362 606 368 642Z"/>
<glyph unicode="&#x16a;" horiz-adv-x="664" d="M652 709L581 709L505 283C484 164 433 54 293 54C187 54 128 110 128 209C128 227 130 245 133 263L211 709L140 709L62 269C58 248 57 227 57 207C57 75 148 -13 288 -13C451 -13 543 98 570 249ZM551 838L281 838L271 781L541 781Z"/>
<glyph unicode="&#x16b;" horiz-adv-x="545" d="M492 503L424 503L380 254C363 160 309 49 203 49C137 49 106 90 106 148C106 159 107 171 109 184L166 503L98 503L41 180C38 164 37 150 37 135C37 44 95 -13 185 -13C247 -13 315 21 351 78L346 0L403 0ZM456 649L186 649L176 592L446 592Z"/>
<glyph unicode="&#x16c;" horiz-adv-x="664" d="M652 709L581 709L505 283C484 164 433 54 293 54C187 54 128 110 128 209C128 227 130 245 133 263L211 709L140 709L62 269C58 248 57 227 57 207C57 75 148 -13 288 -13C451 -13 543 98 570 249ZM583 910L525 910C508 852 469 813 409 813C358 813 326 847 326 899L326 910L273 910C272 903 271 896 271 889C271 812 327 761 402 761C493 761 561 821 583 910Z"/>
<glyph unicode="&#x16d;" horiz-adv-x="545" d="M492 503L424 503L380 254C363 160 309 49 203 49C137 49 106 90 106 148C106 159 107 171 109 184L166 503L98 503L41 180C38 164 37 150 37 135C37 44 95 -13 185 -13C247 -13 315 21 351 78L346 0L403 0ZM480 709L422 709C405 651 366 612 306 612C255 612 223 646 223 698L223 709L170 709C169 702 168 695 168 688C168 611 224 560 299 560C390 560 458 620 480 709Z"/>
<glyph unicode="&#x16e;" horiz-adv-x="664" d="M652 709L581 709L505 283C484 164 433 54 293 54C187 54 128 110 128 209C128 227 130 245 133 263L211 709L140 709L62 269C58 248 57 227 57 207C57 75 148 -13 288 -13C451 -13 543 98 570 249ZM525 843C525 891 493 929 433 929C362 929 304 870 304 805C304 755 339 717 396 717C467 717 525 778 525 843ZM403 761C370 761 352 783 352 811C352 854 388 886 425 886C458 886 477 863 477 835C477 793 440 761 403 761Z"/>
<glyph unicode="&#x16f;" horiz-adv-x="545" d="M492 503L424 503L380 254C363 160 309 49 203 49C137 49 106 90 106 148C106 159 107 171 109 184L166 503L98 503L41 180C38 164 37 150 37 135C37 44 95 -13 185 -13C247 -13 315 21 351 78L346 0L403 0ZM433 679C433 728 401 766 341 766C269 766 213 706 213 640C213 591 248 554 304 554C375 554 433 614 433 679ZM312 597C279 597 260 619 260 647C260 690 296 723 334 723C367 723 385 700 385 671C385 629 348 597 312 597Z"/>
<glyph unicode="&#x170;" horiz-adv-x="664" d="M652 709L581 709L505 283C484 164 433 54 293 54C187 54 128 110 128 209C128 227 130 245 133 263L211 709L140 709L62 269C58 248 57 227 57 207C57 75 148 -13 288 -13C451 -13 543 98 570 249ZM656 865L626 923L439 799L458 761ZM473 865L443 923L256 799L275 761Z"/>
<glyph unicode="&#x171;" horiz-adv-x="545" d="M492 503L424 503L380 254C363 160 309 49 203 49C137 49 106 90 106 148C106 159 107 171 109 184L166 503L98 503L41 180C38 164 37 150 37 135C37 44 95 -13 185 -13C247 -13 315 21 351 78L346 0L403 0ZM547 661L518 720L331 595L349 557ZM364 661L335 720L148 595L166 557Z"/>
<glyph unicode="&#x172;" horiz-adv-x="664" d="M652 709L581 709L505 281C484 162 429 54 293 54C187 54 128 112 128 209C128 227 130 245 133 263L211 709L140 709L62 269C58 248 57 227 57 207C57 74 149 -13 288 -13C326 -13 359 -6 390 4C359 -30 329 -74 329 -120C329 -166 365 -192 405 -192C436 -192 446 -188 451 -186L459 -138C456 -138 446 -139 434 -139C409 -139 394 -130 394 -103C394 -47 439 22 479 61C526 107 557 174 570 249Z"/>
<glyph unicode="&#x173;" horiz-adv-x="545" d="M252 -120C252 -165 280 -192 324 -192C355 -192 365 -187 371 -186L379 -138C375 -138 365 -139 353 -139C328 -139 317 -130 317 -103C317 -61 365 -15 403 0L492 503L424 503L380 254C364 161 309 49 203 49C137 49 106 88 106 148C106 159 107 171 109 184L166 503L98 503L41 180C38 164 37 150 37 135C37 43 95 -13 185 -13C247 -13 315 21 351 78L346 5C294 -22 252 -75 252 -120Z"/>
<glyph unicode="&#x174;" horiz-adv-x="829" d="M871 709L804 709L578 106L504 698L440 698L165 104L146 709L80 709L103 0L181 0L456 596L528 0L601 0ZM336 804L370 761L501 861L591 761L636 800L533 913L480 913Z"/>
<glyph unicode="&#x175;" horiz-adv-x="723" d="M726 503L658 503L482 92L414 496L353 496L144 91L116 503L50 503L88 0L160 0L370 406L438 0L506 0ZM271 604L306 565L419 662L493 567L538 602L450 717L399 717Z"/>
<glyph unicode="&#x176;" horiz-adv-x="514" d="M590 709L510 709L248 352L110 709L38 709L203 284L152 0L223 0L273 284ZM177 804L211 761L342 861L432 761L477 800L374 913L321 913Z"/>
<glyph unicode="&#x177;" horiz-adv-x="460" d="M485 503L411 503L182 83L92 503L21 503L134 2L76 -103C59 -132 38 -152 1 -152C-26 -152 -54 -139 -74 -125L-84 -181C-60 -198 -24 -212 9 -212C67 -212 107 -178 135 -128ZM135 604L170 565L283 662L357 567L402 602L314 717L263 717Z"/>
<glyph unicode="&#x178;" horiz-adv-x="514" d="M590 709L510 709L248 352L110 709L38 709L203 284L152 0L223 0L273 284ZM453 866L377 866L363 789L440 789ZM273 866L197 866L183 789L259 789Z"/>
<glyph unicode="&#x179;" horiz-adv-x="576" d="M594 709L100 709L88 643L497 643L-17 72L-30 0L480 0L492 65L65 65L581 636ZM471 860L443 918L258 799L277 761Z"/>
<glyph unicode="&#x17a;" horiz-adv-x="460" d="M448 503L65 503L54 442L354 442L-12 65L-24 0L364 0L376 61L69 61L436 438ZM376 657L348 715L163 596L181 558Z"/>
<glyph unicode="&#x17b;" horiz-adv-x="576" d="M594 709L100 709L88 643L497 643L-17 72L-30 0L480 0L492 65L65 65L581 636ZM403 878L327 878L313 801L389 801Z"/>
<glyph unicode="&#x17c;" horiz-adv-x="460" d="M448 503L65 503L54 442L354 442L-12 65L-24 0L364 0L376 61L69 61L436 438ZM316 688L240 688L227 611L303 611Z"/>
<glyph unicode="&#x17d;" horiz-adv-x="576" d="M594 709L100 709L88 643L497 643L-17 72L-30 0L480 0L492 65L65 65L581 636ZM522 870L488 913L357 813L267 913L222 873L325 761L378 761Z"/>
<glyph unicode="&#x17e;" horiz-adv-x="460" d="M448 503L65 503L54 442L354 442L-12 65L-24 0L364 0L376 61L69 61L436 438ZM416 677L381 716L269 619L197 714L150 679L238 564L289 564Z"/>
<glyph unicode="&#x192;" horiz-adv-x="542" d="M165 32C152 -33 121 -57 78 -57C50 -57 32 -53 21 -51L21 -112C39 -115 58 -118 87 -118C150 -118 209 -82 229 17L300 371L458 371L458 431L312 431L340 566C353 631 384 655 427 655C455 655 473 651 484 649L484 710C466 713 447 716 418 716C355 716 296 680 276 581L246 431L126 431L126 371L233 371Z"/>
<glyph unicode="&#x218;" horiz-adv-x="594" d="M570 498C570 635 462 721 334 721C202 721 84 639 84 510C84 418 150 365 233 343L351 312C431 291 457 241 457 195C457 99 362 53 277 53C175 53 83 101 83 231L10 231C10 61 137 -13 271 -13C403 -13 531 56 531 204C531 285 475 354 374 380L253 411C200 424 158 458 158 517C158 608 243 655 325 655C425 655 497 592 497 498ZM290 -52L223 -52L209 -128L241 -128C237 -153 228 -165 201 -177C203 -186 206 -194 209 -202C245 -190 270 -163 277 -124Z"/>
<glyph unicode="&#x219;" horiz-adv-x="477" d="M433 356C433 462 343 516 249 516C133 516 59 446 59 358C59 288 112 258 171 241L249 219C298 205 338 186 338 141C338 76 269 46 214 46C142 46 70 79 70 161C70 163 71 164 71 166L3 166C2 160 2 155 2 150C2 48 96 -13 209 -13C316 -13 406 49 406 149C406 206 368 255 298 274L179 306C150 314 126 335 126 369C126 428 188 458 242 458C304 458 364 423 364 356ZM230 -52L163 -52L149 -128L181 -128C177 -153 168 -165 141 -177C143 -186 146 -194 149 -202C185 -190 210 -163 217 -124Z"/>
<glyph unicode="&#x21a;" horiz-adv-x="506" d="M569 709L62 709L50 642L268 642L154 0L226 0L339 642L557 642ZM216 -52L149 -52L135 -128L167 -128C163 -153 154 -165 127 -177C129 -186 132 -194 135 -202C171 -190 196 -163 203 -124Z"/>
<glyph unicode="&#x21b;" horiz-adv-x="347" d="M351 503L199 503L226 656L155 636L131 503L31 503L21 443L121 443L69 149C66 132 64 116 64 100C64 34 112 -7 181 -7C213 -7 250 1 278 15L289 75C269 66 226 53 200 53C160 53 133 69 133 111C133 120 134 135 137 153L188 443L340 443ZM172 -52L105 -52L91 -128L123 -128C119 -153 110 -165 83 -177C85 -186 88 -194 91 -202C127 -190 152 -163 159 -124Z"/>
<glyph unicode="&#x2c6;" horiz-adv-x="324" d="M60 604L95 565L208 662L282 567L327 602L239 717L188 717Z"/>
<glyph unicode="&#x2c7;" horiz-adv-x="329" d="M345 677L310 716L198 619L126 714L79 679L167 564L218 564Z"/>
<glyph unicode="&#x2c9;" horiz-adv-x="265" d="M327 649L57 649L47 592L317 592Z"/>
<glyph unicode="&#x2d8;" horiz-adv-x="326" d="M380 709L322 709C305 651 266 612 206 612C155 612 123 646 123 698L123 709L70 709C69 702 68 695 68 688C68 611 124 560 199 560C290 560 358 620 380 709Z"/>
<glyph unicode="&#x2d9;" horiz-adv-x="244" d="M218 688L142 688L129 611L205 611Z"/>
<glyph unicode="&#x2da;" horiz-adv-x="189" d="M258 679C258 728 226 766 166 766C94 766 38 706 38 640C38 591 73 554 129 554C200 554 258 614 258 679ZM137 597C104 597 85 619 85 647C85 690 121 723 159 723C192 723 210 700 210 671C210 629 173 597 137 597Z"/>
<glyph unicode="&#x2db;" horiz-adv-x="143" d="M40 -120C40 -165 68 -192 112 -192L125 -192C143 -192 153 -187 159 -186C161 -170 164 -154 167 -138C163 -138 153 -139 141 -139C116 -139 105 -130 105 -103C105 -61 153 -15 191 0L167 23C115 3 40 -52 40 -120Z"/>
<glyph unicode="&#x2dc;" horiz-adv-x="329" d="M367 647L342 682C325 666 306 655 282 655C239 655 210 698 158 698C119 698 89 677 62 652L88 617C105 632 122 643 146 643C189 643 218 601 271 601C310 601 341 622 367 647Z"/>
<glyph unicode="&#x2dd;" horiz-adv-x="428" d="M481 661L452 720L265 595L283 557ZM298 661L269 720L82 595L100 557Z"/>
<glyph unicode="&#x394;" horiz-adv-x="583" d="M530 0L392 709L315 709L-70 0ZM448 66L40 66L341 628Z"/>
<glyph unicode="&#x3a9;" horiz-adv-x="560" d="M525 364C525 417 486 457 432 457L369 457L369 519C369 573 330 613 276 613C222 613 183 573 183 519L183 448C167 459 148 465 128 465C74 465 35 425 35 371L35 123L284 123C338 123 377 162 377 216C377 235 371 255 360 270L432 270C486 270 525 310 525 364ZM508 364C508 319 477 287 432 287L200 287L200 519C200 564 231 596 276 596C321 596 353 564 353 519L353 440L432 440C477 440 508 409 508 364Z"/>
<glyph unicode="&#x3bc;" horiz-adv-x="560" d="M470 0L470 503L402 503L402 246C402 147 363 50 256 50C171 50 138 98 138 179L138 503L70 503L70 -200L138 -200L138 25C157 5 193 -12 245 -12C309 -12 377 23 404 84L411 0Z"/>
<glyph unicode="&#x3c0;" horiz-adv-x="609" d="M547 2L547 57C537 55 527 54 503 54C463 54 454 81 454 116L454 446L532 446L532 503L49 503L49 446L129 446L129 -1L195 -1L195 446L386 446L386 110C386 41 420 -6 491 -6C522 -6 539 0 547 2Z"/>
<glyph unicode="&#x1e80;" horiz-adv-x="829" d="M871 709L804 709L578 106L504 698L440 698L165 104L146 709L80 709L103 0L181 0L456 596L528 0L601 0ZM589 801L446 920L403 865L561 765Z"/>
<glyph unicode="&#x1e81;" horiz-adv-x="723" d="M726 503L658 503L482 92L414 496L353 496L144 91L116 503L50 503L88 0L160 0L370 406L438 0L506 0ZM499 592L356 712L313 656L471 557Z"/>
<glyph unicode="&#x2007;" horiz-adv-x="542" />
<glyph unicode="&#x2008;" horiz-adv-x="248" />
<glyph unicode="&#x200b;" horiz-adv-x="0" />
<glyph unicode="&#x2013;" horiz-adv-x="603" d="M540 333L50 333L39 270L529 270Z"/>
<glyph unicode="&#x2014;" horiz-adv-x="1080" d="M1017 333L51 333L40 270L1006 270Z"/>
<glyph unicode="&#x2018;" horiz-adv-x="223" d="M219 682L205 720C135 697 104 650 92 581L73 477L179 477L198 581L140 581C149 631 168 663 219 682Z"/>
<glyph unicode="&#x2019;" horiz-adv-x="208" d="M224 709L118 709L99 605L157 605C147 552 132 524 78 504L92 466C165 490 192 536 205 605Z"/>
<glyph unicode="&#x201a;" horiz-adv-x="230" d="M128 103L22 103L4 0L61 0C52 -53 36 -81 -18 -101L-3 -140C70 -115 97 -70 110 0Z"/>
<glyph unicode="&#x201c;" horiz-adv-x="398" d="M400 682L385 720C316 697 284 650 272 581L254 477L360 477L378 581L321 581C330 631 349 663 400 682ZM219 682L204 720C135 697 103 650 91 581L73 477L179 477L197 581L140 581C149 631 168 663 219 682Z"/>
<glyph unicode="&#x201d;" horiz-adv-x="388" d="M398 709L292 709L273 605L331 605C321 552 306 524 252 504L266 466C339 490 367 536 379 605ZM217 709L111 709L92 605L150 605C140 552 125 524 71 504L85 466C158 490 186 536 198 605Z"/>
<glyph unicode="&#x201e;" horiz-adv-x="415" d="M306 103L200 103L181 0L239 0C229 -53 214 -81 160 -101L174 -140C247 -115 275 -70 287 0ZM124 103L18 103L0 0L57 0C48 -53 32 -81 -22 -101L-7 -140C66 -115 93 -70 106 0Z"/>
<glyph unicode="&#x2020;" horiz-adv-x="535" d="M520 503L329 503L365 709L300 709L263 503L71 503L61 444L253 444L152 -125L218 -125L318 444L509 444Z"/>
<glyph unicode="&#x2021;" horiz-adv-x="535" d="M515 503L323 503L360 709L295 709L258 503L66 503L57 444L249 444L195 139L3 139L-7 81L184 81L148 -125L213 -125L249 81L441 81L452 139L260 139L314 444L505 444Z"/>
<glyph unicode="&#x2022;" horiz-adv-x="404" d="M310 292C310 360 257 415 189 415C122 415 68 360 68 292C68 224 122 169 189 169C257 169 310 224 310 292Z"/>
<glyph unicode="&#x2026;" horiz-adv-x="800" d="M683 102L582 102L564 0L665 0ZM406 102L305 102L287 0L387 0ZM129 102L28 102L10 0L110 0Z"/>
<glyph unicode="&#x2030;" horiz-adv-x="1112" d="M1054 202C1054 283 1003 347 918 347C800 347 748 233 748 131C748 50 800 -13 884 -13C1000 -13 1054 100 1054 202ZM386 577C386 658 335 722 249 722C133 722 80 607 80 505C80 424 132 362 216 362C332 362 386 475 386 577ZM704 202C704 283 653 347 567 347C451 347 397 233 397 131C397 50 449 -13 534 -13C648 -13 704 101 704 202ZM996 200C996 133 966 40 889 40C831 40 805 79 805 133C805 199 836 294 913 294C971 294 996 254 996 200ZM328 575C328 509 297 415 220 415C162 415 137 454 137 508C137 574 168 669 245 669C303 669 328 629 328 575ZM645 200C645 134 615 40 539 40C481 40 455 79 455 133C455 200 486 294 562 294C620 294 645 254 645 200ZM732 688L694 723L56 18L92 -18Z"/>
<glyph unicode="&#x2039;" horiz-adv-x="286" d="M268 485L229 518L27 297L152 70L200 99L107 293Z"/>
<glyph unicode="&#x203a;" horiz-adv-x="281" d="M243 292L118 518L70 489L163 296L2 104L41 71Z"/>
<glyph unicode="&#x2044;" horiz-adv-x="557" d="M561 689L515 721L-1 17L44 -17Z"/>
<glyph unicode="&#x2075;" horiz-adv-x="421" d="M382 709L151 709L104 522L166 509C179 525 203 541 236 541C277 541 304 521 304 481C304 425 266 388 213 388C173 388 142 406 142 451C136 452 130 453 124 456L82 456C82 384 132 336 210 336C302 336 363 403 363 482C363 549 318 589 247 589C219 589 187 579 167 560L191 658L372 658Z"/>
<glyph unicode="&#x20ac;" horiz-adv-x="542" d="M585 639C534 688 464 709 394 709C241 709 133 591 93 443L20 443C16 426 14 409 10 392L81 392C76 366 70 330 69 303L-5 303L-14 252L67 252C71 93 166 -13 330 -13C383 -13 433 0 478 26L463 85C423 62 379 51 334 51C208 51 138 133 138 252L344 252L376 303L140 303C142 331 146 365 152 392L425 392L457 443L165 443C194 551 271 645 390 645C449 645 507 625 550 585Z"/>
<glyph unicode="&#x2117;" horiz-adv-x="840" d="M782 354C782 559 625 722 420 722C214 722 57 558 57 354C57 149 214 -13 420 -13C625 -13 782 150 782 354ZM725 354C725 177 598 41 420 41C242 41 115 176 115 354C115 531 242 668 420 668C598 668 725 532 725 354ZM581 416C581 487 528 538 449 538L311 538L311 155L368 155L368 294L448 294C527 294 581 345 581 416ZM523 417C523 378 498 348 448 348L367 348L367 484L449 484C496 484 523 454 523 417Z"/>
<glyph unicode="&#x2122;" horiz-adv-x="800" d="M800 709L713 709L556 406L506 709L422 709L352 312L407 312L466 648L522 322L561 322L733 649L674 312L730 312ZM352 709L71 709L61 658L174 658L114 312L169 312L230 658L342 658Z"/>
<glyph unicode="&#x2126;" horiz-adv-x="560" d="M525 364C525 417 486 457 432 457L369 457L369 519C369 573 330 613 276 613C222 613 183 573 183 519L183 448C167 459 148 465 128 465C74 465 35 425 35 371L35 123L284 123C338 123 377 162 377 216C377 235 371 255 360 270L432 270C486 270 525 310 525 364ZM508 364C508 319 477 287 432 287L200 287L200 519C200 564 231 596 276 596C321 596 353 564 353 519L353 440L432 440C477 440 508 409 508 364Z"/>
<glyph unicode="&#x2190;" horiz-adv-x="818" d="M774 275L774 334L134 334L390 587L351 627L27 304L351 -18L390 22L134 275Z"/>
<glyph unicode="&#x2191;" horiz-adv-x="821" d="M381 0L440 0L440 615L693 359L733 398L410 722L88 398L128 359L381 615Z"/>
<glyph unicode="&#x2192;" horiz-adv-x="818" d="M781 304L458 627L419 587L674 334L34 334L34 275L674 275L418 22L457 -18Z"/>
<glyph unicode="&#x2193;" horiz-adv-x="821" d="M410 -13C518 94 625 202 733 310L693 349L440 93L440 708L381 708L381 93L128 349L88 310Z"/>
<glyph unicode="&#x2196;" horiz-adv-x="653" d="M630 196L172 654L527 654L527 709L75 709L75 251L131 251L131 611L588 154Z"/>
<glyph unicode="&#x2197;" horiz-adv-x="653" d="M592 251L592 709L139 709L139 654L495 654L36 196L78 154L536 611L536 251Z"/>
<glyph unicode="&#x2198;" horiz-adv-x="656" d="M34 513L492 55L137 55L137 0L589 0L589 458L533 458L533 97L76 555Z"/>
<glyph unicode="&#x2199;" horiz-adv-x="656" d="M66 458L66 0L519 0L519 55L163 55L622 513L580 555L122 97L122 458Z"/>
<glyph unicode="&#x2202;" horiz-adv-x="515" d="M464 306C464 336 457 369 447 396L322 722L256 722C284 647 312 573 341 498C322 509 296 516 269 516C95 516 17 344 17 197C17 77 94 -13 212 -13C385 -13 464 158 464 306ZM395 303C395 198 344 48 218 48C128 48 86 118 86 199C86 306 138 455 263 455C353 455 395 384 395 303Z"/>
<glyph unicode="&#x2206;" horiz-adv-x="583" d="M530 0L392 709L315 709L-70 0ZM448 66L40 66L341 628Z"/>
<glyph unicode="&#x220f;" horiz-adv-x="688" d="M661 709L152 709L27 0L98 0L210 640L577 640L464 0L535 0Z"/>
<glyph unicode="&#x2211;" horiz-adv-x="560" d="M525 364C525 417 486 457 432 457L369 457L369 519C369 573 330 613 276 613C222 613 183 573 183 519L183 448C167 459 148 465 128 465C74 465 35 425 35 371L35 123L284 123C338 123 377 162 377 216C377 235 371 255 360 270L432 270C486 270 525 310 525 364ZM508 364C508 319 477 287 432 287L200 287L200 519C200 564 231 596 276 596C321 596 353 564 353 519L353 440L432 440C477 440 508 409 508 364Z"/>
<glyph unicode="&#x2212;" horiz-adv-x="606" d="M531 270L531 333L41 333L41 270Z"/>
<glyph unicode="&#x2215;" horiz-adv-x="557" d="M561 689L515 721L-1 17L44 -17Z"/>
<glyph unicode="&#x2219;" horiz-adv-x="260" d="M177 355L74 355L56 251L159 251Z"/>
<glyph unicode="&#x221a;" horiz-adv-x="632" d="M678 777L678 832L513 832L272 91L136 496L63 496L239 -8L303 -8L565 777Z"/>
<glyph unicode="&#x221e;" horiz-adv-x="560" d="M525 364C525 417 486 457 432 457L369 457L369 519C369 573 330 613 276 613C222 613 183 573 183 519L183 448C167 459 148 465 128 465C74 465 35 425 35 371L35 123L284 123C338 123 377 162 377 216C377 235 371 255 360 270L432 270C486 270 525 310 525 364ZM508 364C508 319 477 287 432 287L200 287L200 519C200 564 231 596 276 596C321 596 353 564 353 519L353 440L432 440C477 440 508 409 508 364Z"/>
<glyph unicode="&#x222b;" horiz-adv-x="305" d="M186 588C186 640 215 671 269 671L269 730L263 730C172 730 119 668 119 592L119 -68C119 -120 90 -150 36 -151L36 -209L42 -209C133 -209 186 -147 186 -71Z"/>
<glyph unicode="&#x2248;" horiz-adv-x="617" d="M545 380L501 426C461 388 438 379 402 379C341 379 273 439 198 439C144 439 107 419 55 367L99 322C138 359 162 370 197 370C269 370 331 308 402 308C456 308 493 328 545 380ZM545 178L501 223C461 185 438 177 402 177C343 177 272 236 198 236C144 236 107 216 55 164L99 119C138 157 162 167 197 167C270 167 331 106 402 106C456 106 493 126 545 178Z"/>
<glyph unicode="&#x2260;" horiz-adv-x="661" d="M568 135L568 196L289 196L400 358L568 358L568 420L442 420L498 501L457 530L381 420L93 420L93 358L339 358L228 196L93 196L93 135L186 135L128 50L169 21L247 135Z"/>
<glyph unicode="&#x2264;" horiz-adv-x="560" d="M525 364C525 417 486 457 432 457L369 457L369 519C369 573 330 613 276 613C222 613 183 573 183 519L183 448C167 459 148 465 128 465C74 465 35 425 35 371L35 123L284 123C338 123 377 162 377 216C377 235 371 255 360 270L432 270C486 270 525 310 525 364ZM508 364C508 319 477 287 432 287L200 287L200 519C200 564 231 596 276 596C321 596 353 564 353 519L353 440L432 440C477 440 508 409 508 364Z"/>
<glyph unicode="&#x2265;" horiz-adv-x="560" d="M525 364C525 417 486 457 432 457L369 457L369 519C369 573 330 613 276 613C222 613 183 573 183 519L183 448C167 459 148 465 128 465C74 465 35 425 35 371L35 123L284 123C338 123 377 162 377 216C377 235 371 255 360 270L432 270C486 270 525 310 525 364ZM508 364C508 319 477 287 432 287L200 287L200 519C200 564 231 596 276 596C321 596 353 564 353 519L353 440L432 440C477 440 508 409 508 364Z"/>
<glyph unicode="&#x2423;" horiz-adv-x="896" d="M783 -73L783 148L740 148L740 -29L55 -29L55 148L12 148L12 -73Z"/>
<glyph unicode="&#x25ca;" horiz-adv-x="389" d="M160 0L231 0L353 352L230 708L159 708L36 355ZM106 359L192 616L283 349L197 92Z"/>
<glyph unicode="&#xe000;" horiz-adv-x="686" d="M343 387C359 387 372 401 372 417L372 565C372 582 359 596 343 596C326 596 314 582 314 565L314 417C314 401 326 387 343 387ZM343 0C491 0 611 121 611 268C611 349 576 424 513 475C508 480 501 482 494 482C479 482 464 469 464 452C464 444 468 435 475 429C524 390 551 330 551 268C551 153 458 60 343 60C228 60 135 153 135 268C135 330 163 390 212 429C219 435 223 444 223 452C223 467 208 482 192 482C185 482 179 480 173 475C111 424 75 349 75 268C75 121 196 0 343 0Z"/>
<glyph unicode="&#xe001;" horiz-adv-x="686" d="M343 0C491 0 610 119 610 267C610 414 491 534 343 534C196 534 76 414 76 267C76 119 196 0 343 0ZM343 475C457 475 551 381 551 267C551 153 457 59 343 59C229 59 135 153 135 267C135 381 229 475 343 475ZM343 118C360 118 372 132 372 149L372 386C372 402 360 416 343 416C326 416 313 402 313 386L313 149C313 132 326 118 343 118Z"/>
<glyph unicode="&#xe002;" horiz-adv-x="686" d="M342 0C359 0 372 13 372 29L372 505C372 521 359 534 342 534C326 534 313 521 313 505L313 29C313 13 326 0 342 0Z"/>
<glyph unicode="&#xe003;" horiz-adv-x="686" d="M343 0C491 0 610 119 610 267C610 414 491 534 343 534C196 534 76 414 76 267C76 119 196 0 343 0ZM343 475C457 475 551 381 551 267C551 153 457 59 343 59C229 59 135 153 135 267C135 381 229 475 343 475Z"/>
<glyph unicode="&#xe004;" horiz-adv-x="686" d="M463 60C315 60 195 179 195 328C195 408 231 480 289 530C167 505 76 397 76 268C76 120 196 0 344 0C411 0 473 24 520 66C502 61 483 60 463 60Z"/>
<glyph unicode="&#xe035;" horiz-adv-x="851" d="M504 689C505 700 495 709 484 709L366 709C355 709 346 700 347 689L360 446C361 437 356 433 351 433C349 433 346 433 343 435L158 540C155 542 151 543 148 543C142 543 135 539 132 530L77 415C76 412 75 409 75 406C75 400 79 393 85 389L288 302C294 300 297 295 297 291C297 287 295 283 292 279L140 104C136 101 134 96 134 91C134 86 137 81 142 77L237 5C240 2 245 0 250 0C256 0 262 3 266 8L414 218C417 222 422 225 426 225C429 225 434 222 437 217L579 8C583 3 589 0 596 0C600 0 604 1 608 4L708 73C713 77 716 82 716 87C716 91 714 96 712 100L559 279C556 282 556 287 556 290C556 294 558 299 565 302L765 389C773 393 776 400 776 406C776 409 776 412 775 415L719 530C716 539 710 543 703 543C700 543 697 542 694 540L508 435C506 433 503 433 500 433C494 433 491 437 492 446Z"/>
<glyph unicode="&#xfb01;" horiz-adv-x="575" d="M569 715L485 715L470 630L554 630ZM525 503L455 503L366 0L436 0ZM400 704C369 714 342 722 302 722C219 722 163 668 150 597L134 503L38 503L28 444L124 444L45 0L113 0L190 444L343 444L353 503L201 503L216 587C224 634 254 663 303 663C336 663 362 655 389 646Z"/>
<glyph unicode="&#xfb02;" horiz-adv-x="608" d="M400 704C369 714 342 722 302 722C220 722 162 668 150 597L134 503L38 503L28 444L124 444C97 296 72 148 45 0L113 0C139 148 165 296 190 444L343 444L353 503L201 503L216 587C224 634 254 663 303 663C336 663 362 655 389 646ZM574 722L507 722L399 117C396 100 395 92 395 86C395 33 430 -6 484 -6C504 -6 524 -1 540 5C543 25 546 44 550 63C536 59 518 55 505 55C480 55 463 66 463 92C463 97 464 102 465 108Z"/>
<glyph unicode="&#xfeff;" horiz-adv-x="0" />
</font>
</defs>
</svg>
