<?xml version="1.0" encoding="UTF-8" standalone="no"?>
<!DOCTYPE svg PUBLIC "-//W3C//DTD SVG 1.1//EN" "http://www.w3.org/Graphics/SVG/1.1/DTD/svg11.dtd" >
<svg xmlns="http://www.w3.org/2000/svg">
<metadata>
This is a SVG font generated by e-font.
</metadata>
<defs>
<font id="AkkuratNestWebRegular" horiz-adv-x="526" >
<font-face units-per-em="1000" ascent="968" descent="-245" />
<missing-glyph horiz-adv-x="526" />
<glyph unicode="&#x20;" horiz-adv-x="230" />
<glyph unicode="&#x21;" horiz-adv-x="303" d="M218 485L218 709L116 709L116 485L139 215L197 215ZM222 0L222 109L116 109L116 0Z"/>
<glyph unicode="&#x22;" horiz-adv-x="416" d="M340 586L340 709L245 709L245 586L266 433L319 433ZM171 586L171 709L76 709L76 586L97 433L150 433Z"/>
<glyph unicode="&#x23;" horiz-adv-x="724" d="M668 428L668 506L543 506L569 695L491 695L464 506L311 506L337 695L259 695L233 506L94 506L94 428L222 428L200 267L61 267L61 190L189 190L163 1L241 1L268 190L421 190L395 1L473 1L499 190L635 190L635 267L510 267L532 428ZM454 428L431 267L278 267L300 428Z"/>
<glyph unicode="&#x24;" horiz-adv-x="542" d="M524 204C524 320 444 384 336 398L306 402L306 630C342 625 369 610 390 588C412 565 424 534 426 498L515 498C513 556 490 603 449 643C411 680 361 701 306 707L306 800L248 800L248 708C190 703 139 683 95 641C59 607 36 558 36 507C36 403 113 339 211 327C223 326 236 324 248 322L248 79C211 84 179 97 153 121C124 147 106 187 106 228L18 228C18 163 45 106 89 66C131 28 185 6 248 1L248 -90L306 -90L306 1C368 7 425 29 466 69C499 102 524 147 524 204ZM248 408L219 412C165 419 124 449 124 509C124 540 134 567 152 587C178 615 211 627 248 631ZM436 202C436 165 421 139 400 119C375 95 344 83 306 79L306 315L322 313C389 305 436 267 436 202Z"/>
<glyph unicode="&#x25;" horiz-adv-x="891" d="M840 178C840 224 832 266 809 300C782 339 740 370 677 370C614 370 572 339 545 300C522 266 514 224 514 178C514 132 522 91 545 57C572 18 614 -13 677 -13C740 -13 782 18 809 57C832 91 840 132 840 178ZM732 685L677 724L162 20L216 -21ZM372 531C372 577 364 619 341 653C314 692 272 723 209 723C146 723 104 692 77 653C54 619 46 577 46 531C46 485 54 444 77 410C104 371 146 340 209 340C272 340 314 371 341 410C364 444 372 485 372 531ZM763 178C763 137 756 101 734 78C721 64 705 54 677 54C649 54 632 64 619 78C597 101 590 137 590 178C590 219 597 256 619 279C632 293 649 303 677 303C705 303 721 293 734 279C756 256 763 219 763 178ZM295 531C295 490 288 454 266 431C253 417 237 407 209 407C181 407 164 417 151 431C129 454 122 490 122 531C122 572 129 609 151 632C164 646 181 656 209 656C237 656 253 646 266 632C288 609 295 572 295 531Z"/>
<glyph unicode="&#x26;" horiz-adv-x="709" d="M661 332L661 405L508 405L508 371C508 314 506 241 483 199L336 365C353 375 370 387 387 397C445 432 478 487 478 554C478 658 402 722 297 722C194 722 118 655 118 557C118 483 156 442 202 391L167 369C105 330 67 266 67 192C67 65 167 -13 289 -13C364 -13 441 12 491 69L552 0L660 0L539 135C572 182 588 267 588 332ZM437 130C398 80 346 66 284 66C210 66 152 119 152 194C152 241 174 282 213 308L254 334ZM395 553C395 482 338 453 282 423C247 462 201 501 201 558C201 612 239 650 295 650C359 650 395 612 395 553Z"/>
<glyph unicode="&#x27;" horiz-adv-x="237" d="M166 586L166 709L71 709L71 586L92 433L145 433Z"/>
<glyph unicode="&#x28;" horiz-adv-x="275" d="M274 -105C178 22 127 157 127 322C127 487 178 622 274 749L221 786C112 663 53 484 53 322C53 160 112 -19 221 -142Z"/>
<glyph unicode="&#x29;" horiz-adv-x="275" d="M222 322C222 484 163 663 54 786L1 749C97 622 148 487 148 322C148 157 97 22 1 -105L54 -142C163 -19 222 160 222 322Z"/>
<glyph unicode="&#x2a;" horiz-adv-x="505" d="M464 512L439 591L285 531L295 696L212 696L220 531L67 591L41 512L200 471L96 344L163 294L252 433L342 294L409 342L305 471Z"/>
<glyph unicode="&#x2b;" horiz-adv-x="653" d="M602 268L602 337L361 337L361 584L291 584L291 337L51 337L51 268L291 268L291 5L361 5L361 268Z"/>
<glyph unicode="&#x2c;" horiz-adv-x="266" d="M195 -1L195 116L73 116L73 -1L135 -1C135 -58 123 -88 71 -111L97 -158C170 -127 195 -75 195 -1Z"/>
<glyph unicode="&#x2d;" horiz-adv-x="409" d="M353 262L353 341L56 341L56 262Z"/>
<glyph unicode="&#x2e;" horiz-adv-x="266" d="M192 0L192 119L74 119L74 0Z"/>
<glyph unicode="&#x2f;" horiz-adv-x="371" d="M379 722L311 722L3 -13L71 -13Z"/>
<glyph unicode="&#x30;" horiz-adv-x="542" d="M503 348C503 482 491 580 421 651C387 685 340 708 271 708C202 708 155 685 121 651C51 580 39 482 39 348C39 214 51 117 121 46C155 12 202 -13 271 -13C340 -13 387 12 421 46C491 117 503 214 503 348ZM414 348C414 254 416 153 357 97C337 78 308 65 271 65C234 65 205 78 185 97C126 153 128 254 128 348C128 442 126 543 185 599C205 618 234 631 271 631C308 631 337 618 357 599C416 543 414 442 414 348Z"/>
<glyph unicode="&#x31;" horiz-adv-x="542" d="M359 0L359 695L277 695L107 572L107 477L272 598L272 0Z"/>
<glyph unicode="&#x32;" horiz-adv-x="542" d="M480 0L480 80L174 80L410 373C448 420 469 466 469 521C469 565 458 599 437 629C402 678 343 708 267 708C144 708 62 627 62 506L150 506C150 598 206 632 268 632C341 632 382 591 382 520C382 484 370 453 344 420L63 73L63 0Z"/>
<glyph unicode="&#x33;" horiz-adv-x="542" d="M485 190C485 262 443 335 369 360C426 384 471 452 471 517C471 577 450 621 415 653C378 688 325 708 267 708C207 708 157 691 118 659C77 625 52 575 51 506L138 506C139 548 153 582 180 604C201 621 227 632 265 632C303 632 331 617 350 598C372 577 383 549 383 517C383 444 335 400 255 400L213 400L213 321L255 321C340 321 398 277 398 192C398 154 384 125 365 104C341 77 306 64 264 64C220 64 190 80 169 103C146 127 135 160 133 199L46 199C47 135 69 86 105 50C144 11 197 -13 264 -13C342 -13 395 11 432 50C466 86 485 136 485 190Z"/>
<glyph unicode="&#x34;" horiz-adv-x="542" d="M520 148L520 225L426 225L426 432L340 432L340 225L103 225L375 695L285 695L21 237L21 148L340 148L340 0L426 0L426 148Z"/>
<glyph unicode="&#x35;" horiz-adv-x="542" d="M501 229C501 298 480 360 439 402C405 437 358 459 297 459C238 459 182 441 151 396L162 618L473 618L473 695L89 695L70 322L165 322C189 362 233 383 280 383C324 383 354 368 376 344C402 315 415 273 415 225C415 178 404 138 381 109C360 82 328 64 280 64C236 64 203 78 180 101C157 124 143 156 141 200L56 200C59 136 81 84 120 46C158 9 213 -14 281 -14C354 -14 407 12 443 52C482 95 501 156 501 229Z"/>
<glyph unicode="&#x36;" horiz-adv-x="542" d="M506 224C506 297 481 361 436 404C403 436 353 458 290 458C224 458 158 425 136 377C137 450 141 540 185 590C206 614 236 632 280 632C313 632 338 622 358 605C379 587 395 561 397 527L483 527C481 578 458 621 427 652C392 687 342 708 283 708C195 708 135 667 102 615C55 540 50 437 50 338C50 239 59 142 109 73C143 26 201 -13 279 -13C351 -13 406 14 443 54C482 97 506 154 506 224ZM420 223C420 174 406 133 379 104C357 80 327 64 283 64C239 64 208 82 186 106C159 135 145 174 145 223C145 272 158 311 184 340C205 364 237 382 281 382C325 382 358 366 379 342C405 313 420 272 420 223Z"/>
<glyph unicode="&#x37;" horiz-adv-x="542" d="M487 618L487 695L41 695L41 618L397 618L108 0L200 0Z"/>
<glyph unicode="&#x38;" horiz-adv-x="542" d="M496 191C496 267 451 333 387 362C444 392 482 452 482 519C482 576 459 621 425 653C386 689 332 708 271 708C210 708 156 689 117 653C83 621 60 576 60 519C60 452 98 392 155 362C91 333 46 267 46 191C46 138 64 96 92 63C133 14 198 -13 271 -13C344 -13 409 14 450 63C478 96 496 138 496 191ZM396 519C396 455 351 399 271 399C191 399 146 455 146 519C146 590 202 634 271 634C340 634 396 590 396 519ZM410 195C410 113 352 62 271 62C190 62 132 113 132 195C132 269 183 325 271 325C359 325 410 269 410 195Z"/>
<glyph unicode="&#x39;" horiz-adv-x="542" d="M496 358C496 456 487 554 437 623C403 669 345 708 267 708C195 708 140 682 103 642C64 599 40 542 40 472C40 398 65 335 110 292C143 260 193 238 256 238C322 238 388 271 410 319C409 246 405 156 361 106C340 82 310 64 266 64C233 64 208 73 188 91C167 109 151 135 149 169L63 169C65 118 88 75 119 44C154 8 204 -13 263 -13C351 -13 411 29 444 81C491 156 496 259 496 358ZM401 473C401 424 388 385 362 356C341 332 309 314 265 314C221 314 188 330 167 354C141 383 126 424 126 473C126 522 140 563 167 592C189 616 219 632 263 632C307 632 338 614 360 590C387 561 401 522 401 473Z"/>
<glyph unicode="&#x3a;" horiz-adv-x="276" d="M202 395L202 506L92 506L92 395ZM202 -1L202 109L92 109L92 -1Z"/>
<glyph unicode="&#x3b;" horiz-adv-x="276" d="M202 394L202 506L92 506L92 394ZM202 0L202 110L92 110L92 0L149 0C149 -52 139 -82 89 -104L112 -148C181 -119 202 -73 202 0Z"/>
<glyph unicode="&#x3c;" horiz-adv-x="444" d="M398 36L129 305L398 574L349 622L31 305L350 -13Z"/>
<glyph unicode="&#x3d;" horiz-adv-x="664" d="M573 344L573 421L91 421L91 344ZM573 134L573 211L91 211L91 134Z"/>
<glyph unicode="&#x3e;" horiz-adv-x="444" d="M413 305L95 622L46 574L315 305L46 36L94 -13Z"/>
<glyph unicode="&#x3f;" horiz-adv-x="476" d="M460 535C460 654 363 725 250 725C103 725 26 618 26 505L116 505C116 583 163 648 250 648C286 648 320 635 342 612C361 592 372 566 372 536C372 482 351 451 311 420C232 359 199 324 199 217L199 189L281 189L281 214C281 275 288 304 352 351C420 401 460 455 460 535ZM292 0L292 110L186 110L186 0Z"/>
<glyph unicode="&#x40;" horiz-adv-x="915" d="M861 380C861 482 826 561 768 618C700 685 601 722 487 722C364 722 261 679 187 608C114 538 71 440 71 317C71 190 116 82 194 10C260 -51 352 -86 461 -86C548 -86 633 -75 713 -36L713 37C630 1 552 -11 462 -11C372 -11 298 21 245 75C189 133 156 215 156 308C156 418 194 507 262 567C318 617 395 648 488 648C579 648 656 620 708 568C753 523 780 461 780 379C780 312 752 182 665 182C627 182 622 215 624 245L642 498L575 498L564 456C546 489 505 509 468 509C349 509 284 416 284 304C284 195 338 113 441 113C490 113 541 142 561 187C568 135 609 111 659 111C805 111 861 259 861 380ZM554 325C554 259 533 186 454 186C388 186 369 249 369 304C369 364 392 440 464 440C533 440 554 385 554 325Z"/>
<glyph unicode="&#x41;" horiz-adv-x="593" d="M599 0L348 709L244 709L-6 0L84 0L141 168L449 168L507 0ZM420 252L169 252L294 620Z"/>
<glyph unicode="&#x42;" horiz-adv-x="640" d="M604 198C604 273 559 345 486 369C552 393 588 458 588 526C588 577 570 613 542 644C503 687 435 709 369 709L86 709L86 0L372 0C442 0 510 22 550 65C581 98 604 141 604 198ZM497 519C497 440 446 407 372 407L173 407L173 630L369 630C437 630 497 593 497 519ZM513 204C513 120 450 82 372 82L173 82L173 329L374 329C449 329 513 283 513 204Z"/>
<glyph unicode="&#x43;" horiz-adv-x="606" d="M580 226L488 226C487 187 472 150 449 124C421 93 374 70 320 70C272 70 225 89 191 124C133 184 131 280 131 354C131 428 133 524 191 584C225 619 272 638 320 638C374 638 420 617 448 586C471 560 486 526 487 487L579 487C576 553 550 607 509 649C466 692 397 722 320 722C249 722 179 696 128 646C51 571 39 467 39 354C39 241 51 137 128 62C179 12 249 -14 320 -14C397 -14 467 19 510 62C551 104 577 160 580 226Z"/>
<glyph unicode="&#x44;" horiz-adv-x="649" d="M610 355C610 457 597 563 519 637C469 685 402 709 333 709L86 709L86 0L333 0C402 0 469 23 519 71C596 145 610 253 610 355ZM520 355C520 279 515 188 459 131C426 98 379 82 333 82L175 82L175 627L333 627C379 627 426 611 459 578C515 520 520 431 520 355Z"/>
<glyph unicode="&#x45;" horiz-adv-x="597" d="M560 0L560 82L175 82L175 327L513 327L513 411L175 411L175 627L560 627L560 709L86 709L86 0Z"/>
<glyph unicode="&#x46;" horiz-adv-x="559" d="M545 627L545 709L86 709L86 0L175 0L175 312L505 312L505 396L175 396L175 627Z"/>
<glyph unicode="&#x47;" horiz-adv-x="652" d="M592 0L592 382L322 382L322 299L512 299C512 234 498 165 451 119C419 87 372 70 322 70C274 70 229 86 195 121C136 181 131 283 131 354C131 428 135 524 193 584C227 619 274 638 322 638C380 638 429 620 461 582C479 560 490 537 493 504L586 504C583 561 559 606 525 642C476 694 402 722 322 722C251 722 182 696 131 646C54 571 39 467 39 354C39 227 59 129 131 59C182 9 251 -14 322 -14C402 -14 480 27 515 85L530 0Z"/>
<glyph unicode="&#x48;" horiz-adv-x="690" d="M604 0L604 709L515 709L515 413L175 413L175 709L86 709L86 0L175 0L175 327L515 327L515 0Z"/>
<glyph unicode="&#x49;" horiz-adv-x="263" d="M177 0L177 709L86 709L86 0Z"/>
<glyph unicode="&#x4a;" horiz-adv-x="465" d="M399 198L399 709L310 709L310 198C310 120 280 70 199 70C165 70 140 81 121 99C91 127 84 166 84 215L-6 215C-6 143 10 89 51 47C86 11 134 -13 199 -13C327 -13 399 71 399 198Z"/>
<glyph unicode="&#x4b;" horiz-adv-x="634" d="M635 0L380 439L611 709L500 709L175 331L175 709L86 709L86 0L175 0L175 200L319 368L531 0Z"/>
<glyph unicode="&#x4c;" horiz-adv-x="516" d="M516 0L516 83L175 83L175 709L86 709L86 0Z"/>
<glyph unicode="&#x4d;" horiz-adv-x="852" d="M766 0L766 709L641 709L428 132L214 709L86 709L86 0L171 0L171 603L391 10L461 10L681 598L681 0Z"/>
<glyph unicode="&#x4e;" horiz-adv-x="706" d="M620 0L620 709L534 709L534 137L186 709L86 709L86 0L172 0L172 570L520 0Z"/>
<glyph unicode="&#x4f;" horiz-adv-x="642" d="M603 354C603 467 589 571 512 646C461 696 392 722 321 722C250 722 181 696 130 646C53 571 39 467 39 354C39 241 53 137 130 62C181 12 250 -14 321 -14C392 -14 461 12 512 62C589 137 603 241 603 354ZM511 354C511 280 508 184 450 124C416 89 369 71 321 71C273 71 226 89 192 124C134 184 131 280 131 354C131 428 134 524 192 584C226 619 273 637 321 637C369 637 416 619 450 584C508 524 511 428 511 354Z"/>
<glyph unicode="&#x50;" horiz-adv-x="599" d="M583 495C583 557 563 608 529 645C491 686 432 709 349 709L86 709L86 0L175 0L175 275L350 275C428 275 486 296 524 334C562 372 583 426 583 495ZM491 495C491 400 443 356 348 356L175 356L175 628L347 628C435 628 491 585 491 495Z"/>
<glyph unicode="&#x51;" horiz-adv-x="642" d="M603 354C603 467 589 571 512 646C461 696 392 722 321 722C250 722 181 696 130 646C53 571 39 467 39 354C39 241 53 137 130 62C181 12 250 -14 321 -14C367 -14 412 -3 453 18L518 -66L577 -20L513 63C589 138 603 241 603 354ZM511 354C511 283 508 193 458 133L373 241L315 196L399 88C374 77 348 71 321 71C273 71 226 89 192 124C134 184 131 280 131 354C131 428 134 524 192 584C226 619 273 637 321 637C369 637 416 619 450 584C508 524 511 428 511 354Z"/>
<glyph unicode="&#x52;" horiz-adv-x="634" d="M603 0L461 312C495 323 525 340 546 362C580 398 600 440 600 502C600 564 578 610 544 646C505 686 447 709 364 709L86 709L86 0L175 0L175 295L371 295L505 0ZM508 502C508 412 448 378 364 378L175 378L175 627L364 627C448 627 508 592 508 502Z"/>
<glyph unicode="&#x53;" horiz-adv-x="607" d="M571 195C571 307 492 379 374 396C335 402 296 409 256 414C203 421 150 450 150 514C150 546 161 570 179 591C210 626 254 640 305 640C360 640 403 622 430 591C450 568 463 537 465 502L558 502C556 562 533 613 490 654C443 699 375 722 306 722C232 722 169 698 120 652C82 616 58 565 58 512C58 399 141 340 247 324L359 307C443 294 478 248 478 193C478 155 464 130 442 110C410 80 364 69 310 69C260 69 206 82 174 113C145 141 124 183 124 225L31 225C31 158 62 97 107 55C155 11 224 -13 310 -13C386 -13 462 10 511 58C546 92 571 136 571 195Z"/>
<glyph unicode="&#x54;" horiz-adv-x="510" d="M511 626L511 709L-1 709L-1 626L210 626L210 0L300 0L300 626Z"/>
<glyph unicode="&#x55;" horiz-adv-x="650" d="M584 260L584 709L495 709L495 258C495 145 448 70 325 70C202 70 155 145 155 258L155 709L66 709L66 260C66 83 166 -13 325 -13C484 -13 584 83 584 260Z"/>
<glyph unicode="&#x56;" horiz-adv-x="551" d="M561 709L470 709L278 110L82 709L-10 709L229 0L322 0Z"/>
<glyph unicode="&#x57;" horiz-adv-x="834" d="M816 709L735 709L622 132L458 699L378 699L214 131L101 709L18 709L160 0L254 0L418 571L580 0L675 0Z"/>
<glyph unicode="&#x58;" horiz-adv-x="556" d="M555 0L331 358L552 709L457 709L282 422L104 709L5 709L225 358L1 0L98 0L276 291L456 0Z"/>
<glyph unicode="&#x59;" horiz-adv-x="538" d="M552 709L457 709L272 372L86 709L-14 709L224 288L224 0L314 0L314 288Z"/>
<glyph unicode="&#x5a;" horiz-adv-x="584" d="M552 0L552 83L134 83L548 619L548 709L33 709L33 626L442 626L29 89L29 0Z"/>
<glyph unicode="&#x5b;" horiz-adv-x="283" d="M272 -114L272 -52L153 -52L153 695L272 695L272 757L84 757L84 -114Z"/>
<glyph unicode="&#x5c;" horiz-adv-x="372" d="M369 -13L61 722L-9 722L299 -13Z"/>
<glyph unicode="&#x5d;" horiz-adv-x="283" d="M199 -114L199 757L11 757L11 695L129 695L129 -52L11 -52L11 -114Z"/>
<glyph unicode="&#x5e;" horiz-adv-x="514" d="M463 405L295 722L219 722L51 405L139 405L257 630L374 405Z"/>
<glyph unicode="&#x5f;" horiz-adv-x="517" d="M506 -60L506 0L11 0L11 -60Z"/>
<glyph unicode="&#x60;" horiz-adv-x="212" d="M212 598L41 721L-4 650L181 551Z"/>
<glyph unicode="&#x61;" horiz-adv-x="531" d="M503 5L503 68C503 68 490 65 481 65C464 65 453 72 453 99L453 344C453 373 448 399 438 422C414 477 358 519 260 519C198 519 138 501 104 465C78 438 61 405 60 359L143 359C143 384 152 404 168 420C185 437 214 450 260 450C301 450 326 440 343 424C366 403 369 372 369 347L369 310L215 301C77 293 35 208 35 143C35 65 93 -13 209 -13C280 -13 343 19 372 70L374 70C374 27 402 -7 447 -7C468 -7 485 -4 503 5ZM369 214C369 172 356 130 326 99C299 71 261 58 222 58C150 58 122 100 122 145C122 209 182 233 233 236L369 244Z"/>
<glyph unicode="&#x62;" horiz-adv-x="567" d="M527 252C527 339 501 419 450 468C417 499 370 519 311 519C256 519 191 493 164 447L164 722L79 722L79 0L154 0L160 66C189 15 254 -13 311 -13C373 -13 421 8 454 42C502 91 527 168 527 252ZM440 253C440 160 410 59 297 59C260 59 235 74 215 92C173 129 159 190 159 253C159 316 173 377 215 414C235 432 260 447 297 447C410 447 440 346 440 253Z"/>
<glyph unicode="&#x63;" horiz-adv-x="504" d="M472 170L386 170C382 137 370 114 352 95C332 74 301 61 266 61C227 61 200 75 178 94C138 128 127 191 127 253C127 315 138 378 178 412C200 431 227 445 266 445C299 445 328 433 348 414C367 395 380 370 384 335L470 335C466 390 444 432 410 465C375 499 326 519 266 519C175 519 118 477 82 424C55 384 40 329 40 253C40 177 55 122 82 82C118 29 176 -13 267 -13C329 -13 377 7 413 42C447 75 468 116 472 170Z"/>
<glyph unicode="&#x64;" horiz-adv-x="567" d="M488 0L488 722L403 722L403 447C376 493 311 519 256 519C197 519 150 499 117 468C66 419 40 339 40 252C40 168 65 91 113 42C146 8 194 -13 256 -13C313 -13 378 15 407 66L413 0ZM408 253C408 190 394 129 352 92C332 74 307 59 270 59C157 59 127 160 127 253C127 346 157 447 270 447C307 447 332 432 352 414C394 377 408 316 408 253Z"/>
<glyph unicode="&#x65;" horiz-adv-x="523" d="M487 276C488 344 464 409 423 454C386 494 334 519 269 519C181 519 114 474 78 413C50 366 39 312 39 251C39 179 60 112 102 63C141 17 199 -13 270 -13C318 -13 363 1 399 25C440 53 470 100 477 150L394 150C387 123 378 109 364 95C343 73 310 62 270 62C231 62 200 75 177 98C146 129 128 179 128 225L486 225ZM400 298L130 298C132 372 177 447 269 447C314 447 348 429 369 401C389 374 400 336 400 298Z"/>
<glyph unicode="&#x66;" horiz-adv-x="338" d="M347 652L347 723C319 728 288 732 253 732C165 732 106 672 106 596L106 506L14 506L14 434L106 434L106 0L191 0L191 434L337 434L337 506L191 506L191 591C191 632 218 660 263 660C299 660 320 655 347 652Z"/>
<glyph unicode="&#x67;" horiz-adv-x="512" d="M511 -75C511 -33 495 0 471 24C431 65 364 77 304 77L204 77C172 77 128 83 128 127C128 151 152 166 171 172C203 161 222 158 256 158C323 158 374 182 407 218C435 249 453 291 453 339C453 384 441 417 420 444C425 472 449 490 482 490C489 490 496 490 501 489L501 558C493 559 484 560 476 560C428 560 389 534 372 489C341 508 304 519 256 519C189 519 141 498 106 462C77 432 58 394 58 339C58 291 79 241 116 208C78 190 49 155 49 110C49 71 74 38 108 25C68 5 36 -34 36 -87C36 -127 51 -156 72 -177C121 -226 197 -236 264 -236C335 -236 419 -225 468 -177C492 -153 511 -119 511 -75ZM370 339C370 275 324 226 255 226C183 226 140 275 140 339C140 403 186 450 255 450C327 450 370 403 370 339ZM428 -75C428 -97 420 -114 407 -127C375 -159 312 -163 269 -163C225 -163 167 -161 134 -128C121 -115 113 -98 113 -75C113 -36 143 -6 177 5L294 5C355 5 428 0 428 -75Z"/>
<glyph unicode="&#x68;" horiz-adv-x="559" d="M488 0L488 333C488 450 427 519 312 519C255 519 194 491 164 439L164 722L79 722L79 0L164 0L164 235C164 274 165 327 182 364C204 410 243 442 292 442C372 442 403 397 403 321L403 0Z"/>
<glyph unicode="&#x69;" horiz-adv-x="245" d="M172 622L172 722L73 722L73 622ZM166 0L166 506L79 506L79 0Z"/>
<glyph unicode="&#x6a;" horiz-adv-x="255" d="M182 622L182 722L83 722L83 622ZM176 -71L176 506L91 506L91 -72C91 -106 72 -136 34 -136C13 -136 -8 -135 -29 -131L-29 -204C-4 -212 11 -214 37 -214C133 -214 176 -159 176 -71Z"/>
<glyph unicode="&#x6b;" horiz-adv-x="517" d="M515 0L316 306L496 506L393 506L164 251L164 722L79 722L79 0L164 0L164 136L261 244L419 0Z"/>
<glyph unicode="&#x6c;" horiz-adv-x="263" d="M242 0L242 72C242 72 235 71 207 71C172 71 161 89 161 123L161 722L76 722L76 118C76 38 108 -6 182 -6C223 -6 242 0 242 0Z"/>
<glyph unicode="&#x6d;" horiz-adv-x="850" d="M779 0L779 333C779 445 725 519 610 519C546 519 481 486 454 423C432 485 378 519 303 519C246 519 188 491 161 434L153 506L79 506L79 0L164 0L164 269C164 311 173 365 198 397C219 424 248 442 284 442C365 442 386 393 386 322L386 0L471 0L471 269C471 322 480 373 514 408C534 429 559 442 591 442C671 442 694 393 694 322L694 0Z"/>
<glyph unicode="&#x6e;" horiz-adv-x="557" d="M488 0L488 333C488 450 428 519 313 519C256 519 186 488 160 430L153 506L79 506L79 0L164 0L164 235C164 274 165 327 182 364C204 410 243 442 292 442C372 442 403 397 403 321L403 0Z"/>
<glyph unicode="&#x6f;" horiz-adv-x="530" d="M490 253C490 333 473 406 418 460C381 496 329 519 265 519C201 519 149 496 112 460C57 406 40 333 40 253C40 173 57 100 112 46C149 10 201 -13 265 -13C329 -13 381 10 418 46C473 100 490 173 490 253ZM403 253C403 194 392 133 356 96C335 75 305 60 265 60C225 60 195 75 174 96C138 133 127 194 127 253C127 312 138 373 174 410C195 431 225 446 265 446C305 446 335 431 356 410C392 373 403 312 403 253Z"/>
<glyph unicode="&#x70;" horiz-adv-x="567" d="M527 253C527 337 502 414 454 463C421 497 373 518 311 518C254 518 189 490 160 439L154 505L79 505L79 -217L164 -217L164 58C191 12 256 -14 311 -14C370 -14 417 6 450 37C501 86 527 166 527 253ZM440 252C440 159 410 58 297 58C260 58 235 73 215 91C173 128 159 189 159 252C159 315 173 376 215 413C235 431 260 446 297 446C410 446 440 345 440 252Z"/>
<glyph unicode="&#x71;" horiz-adv-x="567" d="M488 -217L488 505L413 505L407 439C378 490 313 518 256 518C194 518 146 497 113 463C65 414 40 337 40 253C40 166 66 86 117 37C150 6 197 -14 256 -14C311 -14 376 12 403 58L403 -217ZM408 252C408 189 394 128 352 91C332 73 307 58 270 58C157 58 127 159 127 252C127 345 157 446 270 446C307 446 332 431 352 413C394 376 408 315 408 252Z"/>
<glyph unicode="&#x72;" horiz-adv-x="356" d="M352 423L352 506C339 508 325 509 312 509C248 509 187 479 161 417L154 506L79 506L79 0L163 0L163 225C163 278 168 348 209 387C232 409 265 427 305 427C320 427 337 426 352 423Z"/>
<glyph unicode="&#x73;" horiz-adv-x="493" d="M454 147C454 223 397 275 325 287C271 296 231 300 203 304C161 310 135 328 135 370C135 398 154 425 186 438C210 448 225 448 245 448C279 448 307 440 328 421C343 408 356 384 357 358L442 358C442 399 428 428 406 455C372 498 312 519 245 519C182 519 129 497 96 463C73 440 54 403 54 364C54 287 102 240 178 228L292 213C344 206 371 179 371 141C371 118 360 97 346 86C320 64 288 58 253 58C221 58 185 64 162 81C138 99 122 125 121 160L36 160C36 117 54 74 85 44C128 2 186 -13 249 -13C315 -13 375 4 414 44C438 69 454 103 454 147Z"/>
<glyph unicode="&#x74;" horiz-adv-x="357" d="M341 7L341 80C341 80 290 71 254 71C207 71 186 91 186 140L186 433L336 433L336 506L186 506L186 655L101 635L101 506L3 506L3 433L101 433L101 130C101 62 131 -7 240 -7C287 -7 318 1 341 7Z"/>
<glyph unicode="&#x75;" horiz-adv-x="554" d="M475 0L475 506L390 506L390 243C390 191 380 136 348 103C326 80 298 65 264 65C184 65 156 110 156 186L156 506L71 506L71 174C71 57 129 -12 244 -12C303 -12 368 19 394 77L401 0Z"/>
<glyph unicode="&#x76;" horiz-adv-x="458" d="M460 506L374 506L233 100L87 506L-2 506L185 0L277 0Z"/>
<glyph unicode="&#x77;" horiz-adv-x="739" d="M715 506L632 506L534 124L407 500L334 500L205 124L108 506L24 506L154 0L235 0L370 387L502 0L584 0Z"/>
<glyph unicode="&#x78;" horiz-adv-x="470" d="M467 0L291 258L462 506L364 506L237 315L105 506L5 506L175 258L3 0L100 0L232 199L365 0Z"/>
<glyph unicode="&#x79;" horiz-adv-x="470" d="M474 506L385 506L243 107L94 506L-2 506L200 0L168 -85C154 -123 128 -136 92 -136C59 -136 32 -128 32 -128L32 -202C39 -204 67 -212 109 -212C185 -212 222 -169 246 -104Z"/>
<glyph unicode="&#x7a;" horiz-adv-x="473" d="M439 0L439 74L143 74L436 431L436 506L39 506L39 432L333 432L39 75L39 0Z"/>
<glyph unicode="&#x7b;" horiz-adv-x="321" d="M325 -119L325 -56L299 -56C229 -56 211 -6 211 55L211 216C211 273 170 309 117 322L117 324C176 335 211 370 211 432L211 593C211 660 226 695 298 695L324 695L324 758L298 758C174 758 142 701 142 587L142 433C142 383 82 360 41 355L41 283C87 279 142 262 142 207L142 51C142 -58 180 -119 298 -119Z"/>
<glyph unicode="&#x7c;" horiz-adv-x="241" d="M155 -119L155 758L86 758L86 -119Z"/>
<glyph unicode="&#x7d;" horiz-adv-x="321" d="M280 283L280 355C239 360 179 383 179 433L179 587C179 701 147 758 23 758L-3 758L-3 695L23 695C95 695 110 660 110 593L110 432C110 370 145 335 204 324L204 322C151 309 110 273 110 216L110 55C110 -6 92 -56 22 -56L-4 -56L-4 -119L23 -119C141 -119 179 -58 179 51L179 207C179 263 234 279 280 283Z"/>
<glyph unicode="&#x7e;" horiz-adv-x="611" d="M550 311L500 368C456 323 430 320 403 320C390 320 377 323 364 328C339 337 314 351 288 361C262 371 236 378 208 378C160 378 123 365 61 300L110 244C154 289 180 293 207 293C235 293 261 279 286 267C325 248 366 233 403 233C451 233 487 246 550 311Z"/>
<glyph unicode="&#xa0;" horiz-adv-x="230" />
<glyph unicode="&#xa1;" horiz-adv-x="303" d="M187 396L187 505L81 505L81 396ZM183 -204L183 20L162 290L104 290L81 20L81 -204Z"/>
<glyph unicode="&#xa2;" horiz-adv-x="542" d="M487 271L401 271C397 238 385 212 367 193C352 177 332 167 308 162L308 540C330 536 349 526 363 512C382 493 395 465 399 430L485 430C481 485 459 530 425 563C395 591 356 611 308 616L308 709L247 709L247 615C176 607 130 572 96 522C65 476 55 417 55 351C55 285 66 225 97 179C131 130 177 95 247 87L247 0L308 0L308 86C357 91 398 110 428 140C462 173 483 217 487 271ZM247 162C163 180 142 265 142 351C142 436 164 522 247 540Z"/>
<glyph unicode="&#xa3;" horiz-adv-x="542" d="M517 157L433 157C432 108 407 76 356 76L148 76L148 78C181 87 191 125 191 155L191 331L352 331L352 404L191 404L191 513C191 581 221 635 297 635C362 635 402 592 402 530L487 530C487 631 413 710 299 710C173 710 105 615 105 513L105 404L25 404L25 331L105 331L105 159C105 107 78 80 26 79L26 0L353 0C457 0 517 50 517 157Z"/>
<glyph unicode="&#xa4;" horiz-adv-x="542" d="M534 52L456 120C482 157 498 206 498 254C498 302 482 351 456 388L534 453L469 520L400 442C363 468 320 482 271 482C222 482 179 468 141 442L74 519L8 453L87 388C61 351 45 302 45 254C45 206 61 157 87 120L8 52L73 -12L142 66C180 40 222 25 271 25C320 25 363 40 400 66L470 -12ZM416 254C416 170 365 103 271 103C177 103 126 176 126 254C126 340 173 404 271 404C361 404 416 337 416 254Z"/>
<glyph unicode="&#xa5;" horiz-adv-x="542" d="M536 695L444 695L274 386L100 695L6 695L184 382L63 382L63 321L226 321L226 230L63 230L63 169L226 169L226 0L315 0L315 169L489 169L489 230L315 230L315 321L489 321L489 382L357 382Z"/>
<glyph unicode="&#xa6;" horiz-adv-x="248" d="M162 450L162 759L86 759L86 450ZM162 -50L162 258L86 258L86 -50Z"/>
<glyph unicode="&#xa7;" horiz-adv-x="534" d="M488 163C488 217 470 259 423 298L221 469C195 491 179 517 179 551C179 605 221 639 274 639C302 639 330 628 346 610C366 588 372 560 372 532L455 532C455 581 439 625 409 657C376 692 329 711 274 711C221 711 175 692 143 661C115 634 96 596 96 549C96 505 111 470 137 440C94 414 51 365 51 305C51 251 69 209 116 170L318 -1C344 -23 360 -49 360 -83C360 -137 318 -171 265 -171C237 -171 209 -160 193 -142C173 -120 167 -92 167 -64L84 -64C84 -113 100 -157 130 -189C163 -224 210 -243 265 -243C318 -243 364 -226 396 -195C424 -168 443 -128 443 -81C443 -37 428 -2 402 28C445 54 488 103 488 163ZM370 236C423 191 417 108 353 74L169 232C116 277 122 360 186 394Z"/>
<glyph unicode="&#xa8;" horiz-adv-x="262" d="M265 754L265 846L173 846L173 754ZM89 754L89 846L-3 846L-3 754Z"/>
<glyph unicode="&#xa9;" horiz-adv-x="830" d="M776 355C776 560 622 722 415 722C208 722 54 559 54 354C54 149 208 -13 415 -13C622 -13 776 150 776 355ZM709 355C709 180 592 51 415 51C238 51 121 179 121 354C121 529 238 658 415 658C592 658 709 530 709 355ZM587 300L511 300C504 246 466 221 421 221C390 221 363 235 346 256C325 282 317 318 317 354C317 390 326 426 347 452C364 473 390 487 421 487C466 487 504 462 511 408L587 408C580 492 513 552 421 552C307 552 242 460 242 354C242 304 252 268 280 228C310 185 359 156 421 156C510 156 579 214 587 300Z"/>
<glyph unicode="&#xaa;" horiz-adv-x="456" d="M406 315L406 366C406 366 394 364 388 364C376 364 368 368 368 388L368 574C368 596 366 616 358 634C340 677 296 709 221 709C140 709 70 671 68 583L135 583C135 603 141 619 153 631C166 644 187 653 221 653C252 653 271 645 283 634C300 619 301 595 301 576L301 550L188 543C82 537 49 471 49 421C49 360 94 301 183 301C236 301 281 324 304 361C306 330 328 305 362 305C378 305 391 307 406 315ZM301 475C301 444 292 412 269 389C249 368 222 359 193 359C139 359 119 390 119 423C119 470 162 488 201 490L301 496Z"/>
<glyph unicode="&#xab;" horiz-adv-x="522" d="M481 108L369 299L480 490L427 528L263 298L427 68ZM249 108L137 299L248 490L195 528L31 298L195 68Z"/>
<glyph unicode="&#xac;" horiz-adv-x="597" d="M526 99L526 341L41 341L41 264L448 264L448 99Z"/>
<glyph unicode="&#xad;" horiz-adv-x="409" d="M353 262L353 341L56 341L56 262Z"/>
<glyph unicode="&#xae;" horiz-adv-x="830" d="M776 355C776 560 622 722 415 722C208 722 54 559 54 354C54 149 208 -13 415 -13C622 -13 776 150 776 355ZM709 355C709 180 592 51 415 51C238 51 121 179 121 354C121 529 238 658 415 658C592 658 709 530 709 355ZM569 169L498 321C545 342 567 382 567 432C567 510 504 552 431 552L290 552L290 169L357 169L357 310L432 310L496 169ZM497 432C497 390 471 372 431 372L356 372L356 490L431 490C467 490 497 471 497 432Z"/>
<glyph unicode="&#xaf;" horiz-adv-x="268" d="M273 588L273 656L-5 656L-5 588Z"/>
<glyph unicode="&#xb0;" horiz-adv-x="433" d="M382 558C382 654 310 722 216 722C122 722 51 654 51 558C51 462 122 394 216 394C310 394 382 462 382 558ZM307 558C307 503 268 465 216 465C164 465 126 503 126 558C126 613 164 651 216 651C268 651 307 613 307 558Z"/>
<glyph unicode="&#xb1;" horiz-adv-x="541" d="M490 332L490 402L306 402L306 587L236 587L236 402L51 402L51 332L236 332L236 145L306 145L306 332ZM490 0L490 69L51 69L51 0Z"/>
<glyph unicode="&#xb2;" horiz-adv-x="384" d="M333 343L333 409L165 409L246 477C289 513 323 541 323 599C323 674 264 716 192 716C112 716 53 666 51 583L122 583C124 625 146 653 190 653C214 653 234 646 245 628C250 622 253 614 253 603C253 573 237 555 214 536L59 406L59 343Z"/>
<glyph unicode="&#xb3;" horiz-adv-x="386" d="M335 447C335 482 310 520 272 530C306 538 328 576 328 608C328 636 318 657 304 674C280 703 240 717 194 717C152 717 115 705 89 681C68 661 54 635 54 598L123 598C124 644 162 661 193 661C228 661 256 641 256 612C256 584 246 569 224 563C202 557 192 559 170 559L170 502L198 502C244 502 264 479 264 446C264 407 231 393 193 393C151 393 121 417 120 461L51 461C51 428 64 401 81 381C107 351 149 336 193 336C240 336 282 348 310 378C325 395 335 417 335 447Z"/>
<glyph unicode="&#xb4;" horiz-adv-x="216" d="M216 650L171 721L1 598L31 551Z"/>
<glyph unicode="&#xb5;" horiz-adv-x="562" d="M483 0L483 506L398 506L398 243C398 191 388 136 356 103C334 80 306 65 272 65C192 65 164 110 164 186L164 506L79 506L79 -200L164 -200L164 14C182 0 218 -12 252 -12C311 -12 376 19 402 77L409 0Z"/>
<glyph unicode="&#xb6;" horiz-adv-x="629" d="M568 640L568 709L239 709C135 709 51 625 51 521C51 417 135 332 239 332L239 -125L314 -125L314 640L426 640L426 -125L499 -125L499 640Z"/>
<glyph unicode="&#xb7;" horiz-adv-x="270" d="M194 247L194 366L76 366L76 247Z"/>
<glyph unicode="&#xb8;" horiz-adv-x="146" d="M151 -62L73 -62L-6 -197L82 -238Z"/>
<glyph unicode="&#xb9;" horiz-adv-x="282" d="M204 345L204 709L138 709L41 642L41 563L133 626L133 345Z"/>
<glyph unicode="&#xba;" horiz-adv-x="456" d="M399 505C399 566 387 621 345 663C317 691 277 709 228 709C179 709 140 691 112 663C70 621 57 566 57 505C57 444 70 388 112 346C140 318 179 300 228 300C277 300 317 318 345 346C387 388 399 444 399 505ZM329 505C329 460 322 414 295 386C280 370 258 360 228 360C198 360 177 370 162 386C135 414 128 460 128 505C128 550 135 595 162 623C177 639 198 649 228 649C258 649 280 639 295 623C322 595 329 550 329 505Z"/>
<glyph unicode="&#xbb;" horiz-adv-x="522" d="M491 298L327 528L274 490L385 299L273 108L327 68ZM259 298L95 528L42 490L153 299L41 108L95 68Z"/>
<glyph unicode="&#xbc;" horiz-adv-x="832" d="M781 75L781 134L722 134L722 212L653 212L653 134L551 134L699 369L618 369L475 144L475 75L653 75L653 0L722 0L722 75ZM696 685L641 724L126 20L180 -21ZM233 345L233 709L167 709L70 642L70 563L162 626L162 345Z"/>
<glyph unicode="&#xbd;" horiz-adv-x="881" d="M790 -1L790 65L622 65L703 133C746 169 780 197 780 255C780 330 721 372 649 372C568 372 510 322 508 239L579 239C580 281 603 309 647 309C671 309 691 301 702 284C706 277 710 269 710 259C710 228 694 211 671 192L516 62L516 -1ZM691 685L636 724L121 20L175 -21ZM228 345L228 709L162 709L65 642L65 563L157 626L157 345Z"/>
<glyph unicode="&#xbe;" horiz-adv-x="874" d="M823 75L823 134L764 134L764 212L695 212L695 134L593 134L741 369L660 369L517 144L517 75L695 75L695 0L764 0L764 75ZM738 685L683 724L168 20L222 -21ZM335 447C335 482 310 520 272 530C306 538 328 576 328 608C328 636 318 657 304 674C280 703 240 717 194 717C152 717 115 705 89 681C68 661 54 635 54 598L123 598C124 644 162 661 193 661C228 661 256 641 256 612C256 584 246 569 224 563C202 557 192 559 170 559L170 502L198 502C244 502 264 479 264 446C264 407 231 393 193 393C151 393 121 417 120 461L51 461C51 428 64 401 81 381C107 351 149 336 193 336C240 336 282 348 310 378C325 395 335 417 335 447Z"/>
<glyph unicode="&#xbf;" horiz-adv-x="476" d="M290 397L290 507L184 507L184 397ZM450 2L360 2C360 -76 313 -141 226 -141C190 -141 156 -128 134 -105C115 -85 104 -60 104 -29C104 24 125 56 165 87C244 148 277 183 277 290L277 318L195 318L195 293C195 232 188 202 124 156C56 106 16 52 16 -28C16 -147 113 -218 226 -218C373 -218 450 -111 450 2Z"/>
<glyph unicode="&#xc0;" horiz-adv-x="593" d="M599 0L348 709L244 709L-6 0L84 0L141 168L449 168L507 0ZM420 252L169 252L294 620ZM393 802L222 925L177 854L362 755Z"/>
<glyph unicode="&#xc1;" horiz-adv-x="593" d="M599 0L348 709L244 709L-6 0L84 0L141 168L449 168L507 0ZM420 252L169 252L294 620ZM393 853L348 924L178 801L208 754Z"/>
<glyph unicode="&#xc2;" horiz-adv-x="593" d="M599 0L348 709L244 709L-6 0L84 0L141 168L449 168L507 0ZM420 252L169 252L294 620ZM318 915L261 915L136 802L182 754L290 852L400 754L446 802Z"/>
<glyph unicode="&#xc3;" horiz-adv-x="593" d="M599 0L348 709L244 709L-6 0L84 0L141 168L449 168L507 0ZM420 252L169 252L294 620ZM452 835L415 877C400 860 378 847 352 847C329 847 310 858 290 869C270 880 249 891 221 891C175 891 145 866 119 837L158 795C176 813 193 823 220 823C242 823 261 812 279 802C299 791 321 781 351 781C398 781 430 807 452 835Z"/>
<glyph unicode="&#xc4;" horiz-adv-x="593" d="M599 0L348 709L244 709L-6 0L84 0L141 168L449 168L507 0ZM420 252L169 252L294 620ZM428 789L428 881L336 881L336 789ZM252 789L252 881L160 881L160 789Z"/>
<glyph unicode="&#xc5;" horiz-adv-x="593" d="M599 0L362 670C397 692 417 730 417 770C417 831 371 888 295 888C219 888 174 831 174 770C174 730 194 690 230 669L-6 0L84 0L141 168L449 168L507 0ZM355 770C355 737 332 709 295 709C258 709 235 737 235 770C235 803 258 832 295 832C332 832 355 803 355 770ZM420 252L169 252L294 620Z"/>
<glyph unicode="&#xc6;" horiz-adv-x="886" d="M849 0L849 84L511 84L511 337L800 337L800 421L511 421L511 626L849 626L849 709L306 709L-14 0L84 0L167 189L421 189L421 0ZM421 273L204 273L361 629L421 629Z"/>
<glyph unicode="&#xc7;" horiz-adv-x="606" d="M580 226L488 226C487 187 472 150 449 124C421 93 374 70 320 70C272 70 225 89 191 124C133 184 131 280 131 354C131 428 133 524 191 584C225 619 272 638 320 638C374 638 420 617 448 586C471 560 486 526 487 487L579 487C576 553 550 607 509 649C466 692 397 722 320 722C249 722 179 696 128 646C51 571 39 467 39 354C39 241 51 137 128 62C179 12 249 -14 320 -14C397 -14 467 19 510 62C551 104 577 160 580 226ZM377 -61L299 -61L220 -196L308 -237Z"/>
<glyph unicode="&#xc8;" horiz-adv-x="597" d="M560 0L560 82L175 82L175 327L513 327L513 411L175 411L175 627L560 627L560 709L86 709L86 0ZM427 807L256 930L211 859L396 760Z"/>
<glyph unicode="&#xc9;" horiz-adv-x="597" d="M560 0L560 82L175 82L175 327L513 327L513 411L175 411L175 627L560 627L560 709L86 709L86 0ZM432 853L387 924L217 801L247 754Z"/>
<glyph unicode="&#xca;" horiz-adv-x="597" d="M560 0L560 82L175 82L175 327L513 327L513 411L175 411L175 627L560 627L560 709L86 709L86 0ZM349 915L292 915L167 802L213 754L321 852L431 754L477 802Z"/>
<glyph unicode="&#xcb;" horiz-adv-x="597" d="M560 0L560 82L175 82L175 327L513 327L513 411L175 411L175 627L560 627L560 709L86 709L86 0ZM463 789L463 881L371 881L371 789ZM287 789L287 881L195 881L195 789Z"/>
<glyph unicode="&#xcc;" horiz-adv-x="263" d="M177 0L177 709L86 709L86 0ZM238 802L67 925L22 854L207 755Z"/>
<glyph unicode="&#xcd;" horiz-adv-x="263" d="M177 0L177 709L86 709L86 0ZM242 853L197 924L27 801L57 754Z"/>
<glyph unicode="&#xce;" horiz-adv-x="263" d="M177 0L177 709L86 709L86 0ZM158 915L101 915L-24 802L22 754L130 852L240 754L286 802Z"/>
<glyph unicode="&#xcf;" horiz-adv-x="263" d="M177 0L177 709L86 709L86 0ZM266 789L266 881L174 881L174 789ZM90 789L90 881L-2 881L-2 789Z"/>
<glyph unicode="&#xd0;" horiz-adv-x="662" d="M623 355C623 457 610 563 532 637C482 685 415 709 346 709L99 709L99 401L26 401L26 335L99 335L99 0L346 0C415 0 482 23 532 71C609 145 623 253 623 355ZM533 355C533 279 528 188 472 131C439 98 392 82 346 82L188 82L188 335L334 335L334 401L188 401L188 627L346 627C392 627 439 611 472 578C528 520 533 431 533 355Z"/>
<glyph unicode="&#xd1;" horiz-adv-x="706" d="M620 0L620 709L534 709L534 137L186 709L86 709L86 0L172 0L172 570L520 0ZM512 827L475 869C460 852 438 839 412 839C389 839 370 850 350 861C330 872 309 883 281 883C235 883 205 858 179 829L218 787C236 805 253 815 280 815C302 815 321 804 339 794C359 783 381 773 411 773C458 773 490 799 512 827Z"/>
<glyph unicode="&#xd2;" horiz-adv-x="642" d="M603 354C603 467 589 571 512 646C461 696 392 722 321 722C250 722 181 696 130 646C53 571 39 467 39 354C39 241 53 137 130 62C181 12 250 -14 321 -14C392 -14 461 12 512 62C589 137 603 241 603 354ZM511 354C511 280 508 184 450 124C416 89 369 71 321 71C273 71 226 89 192 124C134 184 131 280 131 354C131 428 134 524 192 584C226 619 273 637 321 637C369 637 416 619 450 584C508 524 511 428 511 354ZM427 807L256 930L211 859L396 760Z"/>
<glyph unicode="&#xd3;" horiz-adv-x="642" d="M603 354C603 467 589 571 512 646C461 696 392 722 321 722C250 722 181 696 130 646C53 571 39 467 39 354C39 241 53 137 130 62C181 12 250 -14 321 -14C392 -14 461 12 512 62C589 137 603 241 603 354ZM511 354C511 280 508 184 450 124C416 89 369 71 321 71C273 71 226 89 192 124C134 184 131 280 131 354C131 428 134 524 192 584C226 619 273 637 321 637C369 637 416 619 450 584C508 524 511 428 511 354ZM428 858L383 929L213 806L243 759Z"/>
<glyph unicode="&#xd4;" horiz-adv-x="642" d="M603 354C603 467 589 571 512 646C461 696 392 722 321 722C250 722 181 696 130 646C53 571 39 467 39 354C39 241 53 137 130 62C181 12 250 -14 321 -14C392 -14 461 12 512 62C589 137 603 241 603 354ZM511 354C511 280 508 184 450 124C416 89 369 71 321 71C273 71 226 89 192 124C134 184 131 280 131 354C131 428 134 524 192 584C226 619 273 637 321 637C369 637 416 619 450 584C508 524 511 428 511 354ZM352 915L295 915L170 802L216 754L324 852L434 754L480 802Z"/>
<glyph unicode="&#xd5;" horiz-adv-x="642" d="M603 354C603 467 589 571 512 646C461 696 392 722 321 722C250 722 181 696 130 646C53 571 39 467 39 354C39 241 53 137 130 62C181 12 250 -14 321 -14C392 -14 461 12 512 62C589 137 603 241 603 354ZM511 354C511 280 508 184 450 124C416 89 369 71 321 71C273 71 226 89 192 124C134 184 131 280 131 354C131 428 134 524 192 584C226 619 273 637 321 637C369 637 416 619 450 584C508 524 511 428 511 354ZM488 834L451 876C436 859 414 846 388 846C365 846 346 857 326 868C306 879 285 890 257 890C211 890 181 865 155 836L194 794C212 812 229 822 256 822C278 822 297 811 315 801C335 790 357 780 387 780C434 780 466 806 488 834Z"/>
<glyph unicode="&#xd6;" horiz-adv-x="642" d="M603 354C603 467 589 571 512 646C461 696 392 722 321 722C250 722 181 696 130 646C53 571 39 467 39 354C39 241 53 137 130 62C181 12 250 -14 321 -14C392 -14 461 12 512 62C589 137 603 241 603 354ZM511 354C511 280 508 184 450 124C416 89 369 71 321 71C273 71 226 89 192 124C134 184 131 280 131 354C131 428 134 524 192 584C226 619 273 637 321 637C369 637 416 619 450 584C508 524 511 428 511 354ZM458 791L458 883L366 883L366 791ZM282 791L282 883L190 883L190 791Z"/>
<glyph unicode="&#xd7;" horiz-adv-x="654" d="M603 76L380 298L603 520L549 574L326 352L105 574L51 520L273 298L51 76L105 22L327 244L549 22Z"/>
<glyph unicode="&#xd8;" horiz-adv-x="642" d="M603 354C603 467 589 571 512 646C505 653 497 660 489 666L524 743L469 768L437 697C401 714 361 722 321 722C250 722 181 696 130 646C53 571 39 467 39 354C39 241 53 137 130 62L142 51L99 -43L155 -69L194 16C233 -4 276 -14 321 -14C392 -14 461 12 512 62C589 137 603 241 603 354ZM511 354C511 280 508 184 450 124C416 89 369 71 321 71C289 71 257 79 230 95L451 583C508 523 511 427 511 354ZM401 619L181 137C134 197 131 285 131 354C131 428 134 524 192 584C226 619 273 637 321 637C349 637 376 631 401 619Z"/>
<glyph unicode="&#xd9;" horiz-adv-x="650" d="M584 260L584 709L495 709L495 258C495 145 448 70 325 70C202 70 155 145 155 258L155 709L66 709L66 260C66 83 166 -13 325 -13C484 -13 584 83 584 260ZM419 802L248 925L203 854L388 755Z"/>
<glyph unicode="&#xda;" horiz-adv-x="650" d="M584 260L584 709L495 709L495 258C495 145 448 70 325 70C202 70 155 145 155 258L155 709L66 709L66 260C66 83 166 -13 325 -13C484 -13 584 83 584 260ZM440 853L395 924L225 801L255 754Z"/>
<glyph unicode="&#xdb;" horiz-adv-x="650" d="M584 260L584 709L495 709L495 258C495 145 448 70 325 70C202 70 155 145 155 258L155 709L66 709L66 260C66 83 166 -13 325 -13C484 -13 584 83 584 260ZM361 915L304 915L179 802L225 754L333 852L443 754L489 802Z"/>
<glyph unicode="&#xdc;" horiz-adv-x="650" d="M584 260L584 709L495 709L495 258C495 145 448 70 325 70C202 70 155 145 155 258L155 709L66 709L66 260C66 83 166 -13 325 -13C484 -13 584 83 584 260ZM470 790L470 882L378 882L378 790ZM294 790L294 882L202 882L202 790Z"/>
<glyph unicode="&#xdd;" horiz-adv-x="538" d="M383 847L338 920L168 797L197 749ZM552 709L457 709L272 372L86 709L-14 709L224 288L224 0L314 0L314 288Z"/>
<glyph unicode="&#xde;" horiz-adv-x="579" d="M563 363C563 425 543 476 509 513C471 554 413 577 330 577L176 577L176 710L86 710L86 0L176 0L176 143L331 143C409 143 466 164 504 202C542 240 563 294 563 363ZM471 363C471 271 432 224 329 224L176 224L176 496L328 496C428 496 471 447 471 363Z"/>
<glyph unicode="&#xdf;" horiz-adv-x="580" d="M549 208C549 301 488 383 392 395C457 412 501 475 501 548C501 657 423 732 301 732C173 732 97 648 97 506L11 506L11 430L96 430L96 0L182 0L182 503C182 592 214 660 301 660C375 660 414 614 414 548C414 480 363 428 301 428L273 428L273 354L301 354C390 354 461 316 461 208C461 111 395 68 310 68C288 68 265 69 243 73L243 2C270 -4 299 -6 327 -6C455 -6 549 73 549 208Z"/>
<glyph unicode="&#xe0;" horiz-adv-x="531" d="M503 5L503 68C503 68 490 65 481 65C464 65 453 72 453 99L453 344C453 373 448 399 438 422C414 477 358 519 260 519C198 519 138 501 104 465C78 438 61 405 60 359L143 359C143 384 152 404 168 420C185 437 214 450 260 450C301 450 326 440 343 424C366 403 369 372 369 347L369 310L215 301C77 293 35 208 35 143C35 65 93 -13 209 -13C280 -13 343 19 372 70L374 70C374 27 402 -7 447 -7C468 -7 485 -4 503 5ZM369 214C369 172 356 130 326 99C299 71 261 58 222 58C150 58 122 100 122 145C122 209 182 233 233 236L369 244ZM341 554L371 601L201 725L156 654Z"/>
<glyph unicode="&#xe1;" horiz-adv-x="531" d="M503 5L503 68C503 68 490 65 481 65C464 65 453 72 453 99L453 344C453 373 448 399 438 422C414 477 358 519 260 519C198 519 138 501 104 465C78 438 61 405 60 359L143 359C143 384 152 404 168 420C185 437 214 450 260 450C301 450 326 440 343 424C366 403 369 372 369 347L369 310L215 301C77 293 35 208 35 143C35 65 93 -13 209 -13C280 -13 343 19 372 70L374 70C374 27 402 -7 447 -7C468 -7 485 -4 503 5ZM369 214C369 172 356 130 326 99C299 71 261 58 222 58C150 58 122 100 122 145C122 209 182 233 233 236L369 244ZM365 654L320 725L150 602L180 555Z"/>
<glyph unicode="&#xe2;" horiz-adv-x="531" d="M503 5L503 68C503 68 490 65 481 65C464 65 453 72 453 99L453 344C453 373 448 399 438 422C414 477 358 519 260 519C198 519 138 501 104 465C78 438 61 405 60 359L143 359C143 384 152 404 168 420C185 437 214 450 260 450C301 450 326 440 343 424C366 403 369 372 369 347L369 310L215 301C77 293 35 208 35 143C35 65 93 -13 209 -13C280 -13 343 19 372 70L374 70C374 27 402 -7 447 -7C468 -7 485 -4 503 5ZM369 214C369 172 356 130 326 99C299 71 261 58 222 58C150 58 122 100 122 145C122 209 182 233 233 236L369 244ZM285 712L230 712L120 595L170 551L258 645L348 551L396 595Z"/>
<glyph unicode="&#xe3;" horiz-adv-x="531" d="M503 5L503 68C503 68 490 65 481 65C464 65 453 72 453 99L453 344C453 373 448 399 438 422C414 477 358 519 260 519C198 519 138 501 104 465C78 438 61 405 60 359L143 359C143 384 152 404 168 420C185 437 214 450 260 450C301 450 326 440 343 424C366 403 369 372 369 347L369 310L215 301C77 293 35 208 35 143C35 65 93 -13 209 -13C280 -13 343 19 372 70L374 70C374 27 402 -7 447 -7C468 -7 485 -4 503 5ZM369 214C369 172 356 130 326 99C299 71 261 58 222 58C150 58 122 100 122 145C122 209 182 233 233 236L369 244ZM429 647L392 689C377 672 355 659 329 659C306 659 287 670 267 681C247 692 226 703 198 703C152 703 122 678 96 649L135 607C153 625 170 635 197 635C219 635 238 624 256 614C276 603 298 593 328 593C375 593 407 619 429 647Z"/>
<glyph unicode="&#xe4;" horiz-adv-x="531" d="M503 5L503 68C503 68 490 65 481 65C464 65 453 72 453 99L453 344C453 373 448 399 438 422C414 477 358 519 260 519C198 519 138 501 104 465C78 438 61 405 60 359L143 359C143 384 152 404 168 420C185 437 214 450 260 450C301 450 326 440 343 424C366 403 369 372 369 347L369 310L215 301C77 293 35 208 35 143C35 65 93 -13 209 -13C280 -13 343 19 372 70L374 70C374 27 402 -7 447 -7C468 -7 485 -4 503 5ZM369 214C369 172 356 130 326 99C299 71 261 58 222 58C150 58 122 100 122 145C122 209 182 233 233 236L369 244ZM399 602L399 694L307 694L307 602ZM223 602L223 694L131 694L131 602Z"/>
<glyph unicode="&#xe5;" horiz-adv-x="531" d="M503 5L503 68C503 68 490 65 481 65C464 65 453 72 453 99L453 344C453 373 448 399 438 422C414 477 358 519 260 519C198 519 138 501 104 465C78 438 61 405 60 359L143 359C143 384 152 404 168 420C185 437 214 450 260 450C301 450 326 440 343 424C366 403 369 372 369 347L369 310L215 301C77 293 35 208 35 143C35 65 93 -13 209 -13C280 -13 343 19 372 70L374 70C374 27 402 -7 447 -7C468 -7 485 -4 503 5ZM369 214C369 172 356 130 326 99C299 71 261 58 222 58C150 58 122 100 122 145C122 209 182 233 233 236L369 244ZM376 671C376 726 335 778 266 778C197 778 156 726 156 671C156 616 197 564 266 564C335 564 376 616 376 671ZM320 671C320 641 299 616 266 616C233 616 211 641 211 671C211 701 233 727 266 727C299 727 320 701 320 671Z"/>
<glyph unicode="&#xe6;" horiz-adv-x="819" d="M783 230L783 256C783 330 775 383 744 430C708 485 659 519 573 519C498 519 448 492 415 446C380 498 312 521 253 521C156 521 60 475 55 359L138 359C142 422 188 450 252 450C315 450 359 420 359 352L359 298L197 296C111 295 35 237 35 145C35 100 52 65 78 38C111 5 159 -14 217 -14C306 -14 366 24 399 82C430 18 498 -15 578 -15C637 -15 673 -3 710 28C748 60 768 98 775 148L691 148C677 85 626 56 577 56C475 56 440 142 441 229ZM697 296L443 296C443 342 457 384 485 413C506 435 534 450 572 450C617 450 645 433 664 409C687 381 696 343 697 296ZM362 234C362 180 364 139 321 96C295 70 255 59 216 59C163 59 121 90 121 146C121 201 165 233 217 233Z"/>
<glyph unicode="&#xe7;" horiz-adv-x="504" d="M472 170L386 170C382 137 370 114 352 95C332 74 301 61 266 61C227 61 200 75 178 94C138 128 127 191 127 253C127 315 138 378 178 412C200 431 227 445 266 445C299 445 328 433 348 414C367 395 380 370 384 335L470 335C466 390 444 432 410 465C375 499 326 519 266 519C175 519 118 477 82 424C55 384 40 329 40 253C40 177 55 122 82 82C118 29 176 -13 267 -13C329 -13 377 7 413 42C447 75 468 116 472 170ZM323 -62L248 -62L171 -193L257 -233Z"/>
<glyph unicode="&#xe8;" horiz-adv-x="523" d="M487 276C488 344 464 409 423 454C386 494 334 519 269 519C181 519 114 474 78 413C50 366 39 312 39 251C39 179 60 112 102 63C141 17 199 -13 270 -13C318 -13 363 1 399 25C440 53 470 100 477 150L394 150C387 123 378 109 364 95C343 73 310 62 270 62C231 62 200 75 177 98C146 129 128 179 128 225L486 225ZM400 298L130 298C132 372 177 447 269 447C314 447 348 429 369 401C389 374 400 336 400 298ZM349 556L379 603L209 726L164 655Z"/>
<glyph unicode="&#xe9;" horiz-adv-x="523" d="M487 276C488 344 464 409 423 454C386 494 334 519 269 519C181 519 114 474 78 413C50 366 39 312 39 251C39 179 60 112 102 63C141 17 199 -13 270 -13C318 -13 363 1 399 25C440 53 470 100 477 150L394 150C387 123 378 109 364 95C343 73 310 62 270 62C231 62 200 75 177 98C146 129 128 179 128 225L486 225ZM400 298L130 298C132 372 177 447 269 447C314 447 348 429 369 401C389 374 400 336 400 298ZM380 652L335 723L165 600L195 553Z"/>
<glyph unicode="&#xea;" horiz-adv-x="523" d="M487 276C488 344 464 409 423 454C386 494 334 519 269 519C181 519 114 474 78 413C50 366 39 312 39 251C39 179 60 112 102 63C141 17 199 -13 270 -13C318 -13 363 1 399 25C440 53 470 100 477 150L394 150C387 123 378 109 364 95C343 73 310 62 270 62C231 62 200 75 177 98C146 129 128 179 128 225L486 225ZM400 298L130 298C132 372 177 447 269 447C314 447 348 429 369 401C389 374 400 336 400 298ZM297 712L242 712L132 595L182 551L270 645L360 551L408 595Z"/>
<glyph unicode="&#xeb;" horiz-adv-x="523" d="M487 276C488 344 464 409 423 454C386 494 334 519 269 519C181 519 114 474 78 413C50 366 39 312 39 251C39 179 60 112 102 63C141 17 199 -13 270 -13C318 -13 363 1 399 25C440 53 470 100 477 150L394 150C387 123 378 109 364 95C343 73 310 62 270 62C231 62 200 75 177 98C146 129 128 179 128 225L486 225ZM400 298L130 298C132 372 177 447 269 447C314 447 348 429 369 401C389 374 400 336 400 298ZM405 599L405 691L313 691L313 599ZM229 599L229 691L137 691L137 599Z"/>
<glyph unicode="&#xec;" horiz-adv-x="245" d="M164 0L164 506L78 506L78 0ZM179 550L209 597L39 720L-6 649Z"/>
<glyph unicode="&#xed;" horiz-adv-x="245" d="M152 0L152 506L66 506L66 0ZM237 650L192 721L22 598L52 551Z"/>
<glyph unicode="&#xee;" horiz-adv-x="245" d="M149 712L94 712L-16 595L34 551L122 645L212 551L260 595ZM166 0L166 506L80 506L80 0Z"/>
<glyph unicode="&#xef;" horiz-adv-x="245" d="M165 0L165 506L79 506L79 0ZM257 599L257 691L165 691L165 599ZM81 599L81 691L-11 691L-11 599Z"/>
<glyph unicode="&#xf0;" horiz-adv-x="523" d="M483 253C483 327 468 385 432 446L349 588L412 588L412 647L314 647L270 722L181 722L226 647L141 647L141 588L261 588L304 515C304 515 276 519 261 519C197 519 145 496 108 460C53 406 40 333 40 253C40 173 53 100 108 46C145 10 197 -13 261 -13C325 -13 378 10 415 46C470 100 483 173 483 253ZM398 253C398 194 388 133 352 96C331 75 301 60 261 60C221 60 192 75 171 96C135 133 125 194 125 253C125 312 135 373 171 410C192 431 221 446 261 446C301 446 331 431 352 410C388 373 398 312 398 253Z"/>
<glyph unicode="&#xf1;" horiz-adv-x="557" d="M488 0L488 333C488 450 428 519 313 519C256 519 186 488 160 430L153 506L79 506L79 0L164 0L164 235C164 274 165 327 182 364C204 410 243 442 292 442C372 442 403 397 403 321L403 0ZM451 647L414 689C399 672 377 659 351 659C328 659 309 670 289 681C269 692 248 703 220 703C174 703 144 678 118 649L157 607C175 625 192 635 219 635C241 635 260 624 278 614C298 603 320 593 350 593C397 593 429 619 451 647Z"/>
<glyph unicode="&#xf2;" horiz-adv-x="530" d="M490 253C490 333 473 406 418 460C381 496 329 519 265 519C201 519 149 496 112 460C57 406 40 333 40 253C40 173 57 100 112 46C149 10 201 -13 265 -13C329 -13 381 10 418 46C473 100 490 173 490 253ZM403 253C403 194 392 133 356 96C335 75 305 60 265 60C225 60 195 75 174 96C138 133 127 194 127 253C127 312 138 373 174 410C195 431 225 446 265 446C305 446 335 431 356 410C392 373 403 312 403 253ZM346 554L376 601L206 724L161 653Z"/>
<glyph unicode="&#xf3;" horiz-adv-x="530" d="M490 253C490 333 473 406 418 460C381 496 329 519 265 519C201 519 149 496 112 460C57 406 40 333 40 253C40 173 57 100 112 46C149 10 201 -13 265 -13C329 -13 381 10 418 46C473 100 490 173 490 253ZM403 253C403 194 392 133 356 96C335 75 305 60 265 60C225 60 195 75 174 96C138 133 127 194 127 253C127 312 138 373 174 410C195 431 225 446 265 446C305 446 335 431 356 410C392 373 403 312 403 253ZM375 653L330 724L160 601L190 554Z"/>
<glyph unicode="&#xf4;" horiz-adv-x="530" d="M490 253C490 333 473 406 418 460C381 496 329 519 265 519C201 519 149 496 112 460C57 406 40 333 40 253C40 173 57 100 112 46C149 10 201 -13 265 -13C329 -13 381 10 418 46C473 100 490 173 490 253ZM403 253C403 194 392 133 356 96C335 75 305 60 265 60C225 60 195 75 174 96C138 133 127 194 127 253C127 312 138 373 174 410C195 431 225 446 265 446C305 446 335 431 356 410C392 373 403 312 403 253ZM292 712L237 712L127 595L177 551L265 645L355 551L403 595Z"/>
<glyph unicode="&#xf5;" horiz-adv-x="530" d="M490 253C490 333 473 406 418 460C381 496 329 519 265 519C201 519 149 496 112 460C57 406 40 333 40 253C40 173 57 100 112 46C149 10 201 -13 265 -13C329 -13 381 10 418 46C473 100 490 173 490 253ZM403 253C403 194 392 133 356 96C335 75 305 60 265 60C225 60 195 75 174 96C138 133 127 194 127 253C127 312 138 373 174 410C195 431 225 446 265 446C305 446 335 431 356 410C392 373 403 312 403 253ZM433 653L396 695C381 678 359 665 333 665C310 665 291 676 271 687C251 698 230 709 202 709C156 709 126 684 100 655L139 613C157 631 174 641 201 641C223 641 242 630 260 620C280 609 302 599 332 599C379 599 411 625 433 653Z"/>
<glyph unicode="&#xf6;" horiz-adv-x="530" d="M490 253C490 333 473 406 418 460C381 496 329 519 265 519C201 519 149 496 112 460C57 406 40 333 40 253C40 173 57 100 112 46C149 10 201 -13 265 -13C329 -13 381 10 418 46C473 100 490 173 490 253ZM403 253C403 194 392 133 356 96C335 75 305 60 265 60C225 60 195 75 174 96C138 133 127 194 127 253C127 312 138 373 174 410C195 431 225 446 265 446C305 446 335 431 356 410C392 373 403 312 403 253ZM408 599L408 691L316 691L316 599ZM232 599L232 691L140 691L140 599Z"/>
<glyph unicode="&#xf7;" horiz-adv-x="624" d="M367 442L367 560L253 560L253 442ZM563 261L563 339L61 339L61 261ZM367 48L367 166L253 166L253 48Z"/>
<glyph unicode="&#xf8;" horiz-adv-x="530" d="M490 253C490 333 473 406 418 460C411 467 404 473 397 478L434 561L380 585L344 506C320 514 294 519 265 519C201 519 149 496 112 460C57 406 40 333 40 253C40 173 57 100 112 46L129 31L91 -52L145 -77L181 2C206 -8 234 -13 265 -13C329 -13 381 10 418 46C473 100 490 173 490 253ZM403 253C403 194 392 133 356 96C335 75 305 60 265 60C245 60 227 64 212 70L362 403C394 365 403 309 403 253ZM313 438L164 108C136 146 127 200 127 253C127 312 138 373 174 410C195 431 225 446 265 446C283 446 299 443 313 438Z"/>
<glyph unicode="&#xf9;" horiz-adv-x="554" d="M475 0L475 506L390 506L390 243C390 191 380 136 348 103C326 80 298 65 264 65C184 65 156 110 156 186L156 506L71 506L71 174C71 57 129 -12 244 -12C303 -12 368 19 394 77L401 0ZM338 553L368 600L198 723L153 652Z"/>
<glyph unicode="&#xfa;" horiz-adv-x="554" d="M475 0L475 506L390 506L390 243C390 191 380 136 348 103C326 80 298 65 264 65C184 65 156 110 156 186L156 506L71 506L71 174C71 57 129 -12 244 -12C303 -12 368 19 394 77L401 0ZM388 652L343 723L173 600L203 553Z"/>
<glyph unicode="&#xfb;" horiz-adv-x="554" d="M475 0L475 506L390 506L390 243C390 191 380 136 348 103C326 80 298 65 264 65C184 65 156 110 156 186L156 506L71 506L71 174C71 57 129 -12 244 -12C303 -12 368 19 394 77L401 0ZM301 712L246 712L136 595L186 551L274 645L364 551L412 595Z"/>
<glyph unicode="&#xfc;" horiz-adv-x="554" d="M475 0L475 506L390 506L390 243C390 191 380 136 348 103C326 80 298 65 264 65C184 65 156 110 156 186L156 506L71 506L71 174C71 57 129 -12 244 -12C303 -12 368 19 394 77L401 0ZM409 599L409 691L317 691L317 599ZM233 599L233 691L141 691L141 599Z"/>
<glyph unicode="&#xfd;" horiz-adv-x="470" d="M367 654L320 726L148 597L180 550ZM474 506L385 506L243 107L94 506L-2 506L200 0L168 -85C154 -123 128 -136 92 -136C59 -136 32 -128 32 -128L32 -202C39 -204 67 -212 109 -212C185 -212 222 -169 246 -104Z"/>
<glyph unicode="&#xfe;" horiz-adv-x="562" d="M522 252C522 339 496 419 445 468C412 499 368 519 309 519C254 519 191 493 164 447L164 722L79 722L79 -201L164 -201L164 58C191 12 254 -14 309 -14C368 -14 412 6 445 37C496 86 522 165 522 252ZM436 252C436 159 408 58 295 58C258 58 235 73 215 91C173 128 159 189 159 252C159 315 173 377 215 414C235 432 258 447 295 447C408 447 436 345 436 252Z"/>
<glyph unicode="&#xff;" horiz-adv-x="470" d="M474 506L385 506L243 107L94 506L-2 506L200 0L168 -85C154 -123 128 -136 92 -136C59 -136 32 -128 32 -128L32 -202C39 -204 67 -212 109 -212C185 -212 222 -169 246 -104ZM371 599L371 691L279 691L279 599ZM195 599L195 691L103 691L103 599Z"/>
<glyph unicode="&#x100;" horiz-adv-x="593" d="M599 0L348 709L244 709L-6 0L84 0L141 168L449 168L507 0ZM420 252L169 252L294 620ZM435 774L435 842L157 842L157 774Z"/>
<glyph unicode="&#x101;" horiz-adv-x="531" d="M503 5L503 68C503 68 490 65 481 65C464 65 453 72 453 99L453 344C453 373 448 399 438 422C414 477 358 519 260 519C198 519 138 501 104 465C78 438 61 405 60 359L143 359C143 384 152 404 168 420C185 437 214 450 260 450C301 450 326 440 343 424C366 403 369 372 369 347L369 310L215 301C77 293 35 208 35 143C35 65 93 -13 209 -13C280 -13 343 19 372 70L374 70C374 27 402 -7 447 -7C468 -7 485 -4 503 5ZM369 214C369 172 356 130 326 99C299 71 261 58 222 58C150 58 122 100 122 145C122 209 182 233 233 236L369 244ZM404 588L404 656L126 656L126 588Z"/>
<glyph unicode="&#x102;" horiz-adv-x="593" d="M599 0L348 709L244 709L-6 0L84 0L141 168L449 168L507 0ZM420 252L169 252L294 620ZM461 910L393 910C386 854 356 818 297 818C238 818 207 854 200 910L132 910C139 823 192 754 297 754C402 754 454 823 461 910Z"/>
<glyph unicode="&#x103;" horiz-adv-x="531" d="M503 5L503 68C503 68 490 65 481 65C464 65 453 72 453 99L453 344C453 373 448 399 438 422C414 477 358 519 260 519C198 519 138 501 104 465C78 438 61 405 60 359L143 359C143 384 152 404 168 420C185 437 214 450 260 450C301 450 326 440 343 424C366 403 369 372 369 347L369 310L215 301C77 293 35 208 35 143C35 65 93 -13 209 -13C280 -13 343 19 372 70L374 70C374 27 402 -7 447 -7C468 -7 485 -4 503 5ZM369 214C369 172 356 130 326 99C299 71 261 58 222 58C150 58 122 100 122 145C122 209 182 233 233 236L369 244ZM430 710L362 710C355 654 325 618 266 618C207 618 176 654 169 710L101 710C108 623 161 554 266 554C371 554 423 623 430 710Z"/>
<glyph unicode="&#x104;" horiz-adv-x="593" d="M444 -103C444 -155 489 -194 549 -194L559 -194C582 -193 592 -189 599 -187L599 -129C599 -129 586 -130 569 -130C538 -130 519 -117 519 -87C519 -46 557 -16 599 0L348 709L244 709L-6 0L84 0L141 168L449 168L507 0C501 -3 444 -35 444 -103ZM420 252L169 252L294 620Z"/>
<glyph unicode="&#x105;" horiz-adv-x="531" d="M503 0L503 68C503 68 490 65 481 65C464 65 453 72 453 99L453 344C453 373 448 399 438 422C414 477 358 519 260 519C198 519 138 501 104 465C78 438 61 405 60 359L143 359C143 384 152 404 168 420C185 437 214 450 260 450C301 450 326 440 343 424C366 403 369 372 369 347L369 310L215 301C77 293 35 208 35 143C35 65 93 -13 209 -13C280 -13 342 19 371 70L375 70C375 39 388 12 413 0C408 -2 348 -34 348 -103C348 -155 393 -194 453 -194L463 -194C486 -193 496 -189 503 -187L503 -129C503 -129 490 -130 473 -130C442 -130 423 -117 423 -87C423 -46 461 -16 503 0ZM369 214C369 172 356 130 326 99C299 71 261 58 222 58C150 58 122 100 122 145C122 209 182 233 233 236L369 244Z"/>
<glyph unicode="&#x106;" horiz-adv-x="606" d="M580 226L488 226C487 187 472 150 449 124C421 93 374 70 320 70C272 70 225 89 191 124C133 184 131 280 131 354C131 428 133 524 191 584C225 619 272 638 320 638C374 638 420 617 448 586C471 560 486 526 487 487L579 487C576 553 550 607 509 649C466 692 397 722 320 722C249 722 179 696 128 646C51 571 39 467 39 354C39 241 51 137 128 62C179 12 249 -14 320 -14C397 -14 467 19 510 62C551 104 577 160 580 226ZM470 853L425 924L255 801L285 754Z"/>
<glyph unicode="&#x107;" horiz-adv-x="504" d="M472 170L386 170C382 137 370 114 352 95C332 74 301 61 266 61C227 61 200 75 178 94C138 128 127 191 127 253C127 315 138 378 178 412C200 431 227 445 266 445C299 445 328 433 348 414C367 395 380 370 384 335L470 335C466 390 444 432 410 465C375 499 326 519 266 519C175 519 118 477 82 424C55 384 40 329 40 253C40 177 55 122 82 82C118 29 176 -13 267 -13C329 -13 377 7 413 42C447 75 468 116 472 170ZM422 650L377 721L207 598L237 551Z"/>
<glyph unicode="&#x108;" horiz-adv-x="606" d="M580 226L488 226C487 187 472 150 449 124C421 93 374 70 320 70C272 70 225 89 191 124C133 184 131 280 131 354C131 428 133 524 191 584C225 619 272 638 320 638C374 638 420 617 448 586C471 560 486 526 487 487L579 487C576 553 550 607 509 649C466 692 397 722 320 722C249 722 179 696 128 646C51 571 39 467 39 354C39 241 51 137 128 62C179 12 249 -14 320 -14C397 -14 467 19 510 62C551 104 577 160 580 226ZM346 915L289 915L164 802L210 754L318 852L428 754L474 802Z"/>
<glyph unicode="&#x109;" horiz-adv-x="504" d="M472 170L386 170C382 137 370 114 352 95C332 74 301 61 266 61C227 61 200 75 178 94C138 128 127 191 127 253C127 315 138 378 178 412C200 431 227 445 266 445C299 445 328 433 348 414C367 395 380 370 384 335L470 335C466 390 444 432 410 465C375 499 326 519 266 519C175 519 118 477 82 424C55 384 40 329 40 253C40 177 55 122 82 82C118 29 176 -13 267 -13C329 -13 377 7 413 42C447 75 468 116 472 170ZM288 712L233 712L123 595L173 551L261 645L351 551L399 595Z"/>
<glyph unicode="&#x10a;" horiz-adv-x="606" d="M580 226L488 226C487 187 472 150 449 124C421 93 374 70 320 70C272 70 225 89 191 124C133 184 131 280 131 354C131 428 133 524 191 584C225 619 272 638 320 638C374 638 420 617 448 586C471 560 486 526 487 487L579 487C576 553 550 607 509 649C466 692 397 722 320 722C249 722 179 696 128 646C51 571 39 467 39 354C39 241 51 137 128 62C179 12 249 -14 320 -14C397 -14 467 19 510 62C551 104 577 160 580 226ZM369 789L369 881L277 881L277 789Z"/>
<glyph unicode="&#x10b;" horiz-adv-x="504" d="M472 170L386 170C382 137 370 114 352 95C332 74 301 61 266 61C227 61 200 75 178 94C138 128 127 191 127 253C127 315 138 378 178 412C200 431 227 445 266 445C299 445 328 433 348 414C367 395 380 370 384 335L470 335C466 390 444 432 410 465C375 499 326 519 266 519C175 519 118 477 82 424C55 384 40 329 40 253C40 177 55 122 82 82C118 29 176 -13 267 -13C329 -13 377 7 413 42C447 75 468 116 472 170ZM308 599L308 691L216 691L216 599Z"/>
<glyph unicode="&#x10c;" horiz-adv-x="606" d="M580 226L488 226C487 187 472 150 449 124C421 93 374 70 320 70C272 70 225 89 191 124C133 184 131 280 131 354C131 428 133 524 191 584C225 619 272 638 320 638C374 638 420 617 448 586C471 560 486 526 487 487L579 487C576 553 550 607 509 649C466 692 397 722 320 722C249 722 179 696 128 646C51 571 39 467 39 354C39 241 51 137 128 62C179 12 249 -14 320 -14C397 -14 467 19 510 62C551 104 577 160 580 226ZM474 867L426 918L318 821L212 918L164 867L289 754L346 754Z"/>
<glyph unicode="&#x10d;" horiz-adv-x="504" d="M472 170L386 170C382 137 370 114 352 95C332 74 301 61 266 61C227 61 200 75 178 94C138 128 127 191 127 253C127 315 138 378 178 412C200 431 227 445 266 445C299 445 328 433 348 414C367 395 380 370 384 335L470 335C466 390 444 432 410 465C375 499 326 519 266 519C175 519 118 477 82 424C55 384 40 329 40 253C40 177 55 122 82 82C118 29 176 -13 267 -13C329 -13 377 7 413 42C447 75 468 116 472 170ZM397 674L349 718L259 624L171 718L121 674L231 557L286 557Z"/>
<glyph unicode="&#x10e;" horiz-adv-x="649" d="M610 355C610 457 597 563 519 637C469 685 402 709 333 709L86 709L86 0L333 0C402 0 469 23 519 71C596 145 610 253 610 355ZM520 355C520 279 515 188 459 131C426 98 379 82 333 82L175 82L175 627L333 627C379 627 426 611 459 578C515 520 520 431 520 355ZM471 867L423 918L315 821L209 918L161 867L286 754L343 754Z"/>
<glyph unicode="&#x10f;" horiz-adv-x="567" d="M488 0L488 722L403 722L403 447C376 493 311 519 256 519C197 519 150 499 117 468C66 419 40 339 40 252C40 168 65 91 113 42C146 8 194 -13 256 -13C313 -13 378 15 407 66L413 0ZM408 253C408 190 394 129 352 92C332 74 307 59 270 59C157 59 127 160 127 253C127 346 157 447 270 447C307 447 332 432 352 414C394 377 408 316 408 253ZM595 722L518 722L518 631L551 631L551 625C551 601 547 584 516 568L531 535C587 561 595 601 595 637Z"/>
<glyph unicode="&#x110;" horiz-adv-x="662" d="M623 355C623 457 610 563 532 637C482 685 415 709 346 709L99 709L99 401L26 401L26 335L99 335L99 0L346 0C415 0 482 23 532 71C609 145 623 253 623 355ZM533 355C533 279 528 188 472 131C439 98 392 82 346 82L188 82L188 335L334 335L334 401L188 401L188 627L346 627C392 627 439 611 472 578C528 520 533 431 533 355Z"/>
<glyph unicode="&#x111;" horiz-adv-x="567" d="M488 0L488 578L548 578L548 641L488 641L488 722L403 722L403 641L240 641L240 578L403 578L403 447C376 493 311 519 256 519C197 519 150 499 117 468C66 419 40 339 40 252C40 168 65 91 113 42C146 8 194 -13 256 -13C313 -13 378 15 407 66L413 0ZM408 253C408 190 394 129 352 92C332 74 307 59 270 59C157 59 127 160 127 253C127 346 157 447 270 447C307 447 332 432 352 414C394 377 408 316 408 253Z"/>
<glyph unicode="&#x112;" horiz-adv-x="597" d="M560 0L560 82L175 82L175 327L513 327L513 411L175 411L175 627L560 627L560 709L86 709L86 0ZM465 774L465 842L187 842L187 774Z"/>
<glyph unicode="&#x113;" horiz-adv-x="523" d="M487 276C488 344 464 409 423 454C386 494 334 519 269 519C181 519 114 474 78 413C50 366 39 312 39 251C39 179 60 112 102 63C141 17 199 -13 270 -13C318 -13 363 1 399 25C440 53 470 100 477 150L394 150C387 123 378 109 364 95C343 73 310 62 270 62C231 62 200 75 177 98C146 129 128 179 128 225L486 225ZM400 298L130 298C132 372 177 447 269 447C314 447 348 429 369 401C389 374 400 336 400 298ZM410 588L410 656L132 656L132 588Z"/>
<glyph unicode="&#x116;" horiz-adv-x="597" d="M560 0L560 82L175 82L175 327L513 327L513 411L175 411L175 627L560 627L560 709L86 709L86 0ZM371 789L371 881L279 881L279 789Z"/>
<glyph unicode="&#x117;" horiz-adv-x="523" d="M487 276C488 344 464 409 423 454C386 494 334 519 269 519C181 519 114 474 78 413C50 366 39 312 39 251C39 179 60 112 102 63C141 17 199 -13 270 -13C318 -13 363 1 399 25C440 53 470 100 477 150L394 150C387 123 378 109 364 95C343 73 310 62 270 62C231 62 200 75 177 98C146 129 128 179 128 225L486 225ZM400 298L130 298C132 372 177 447 269 447C314 447 348 429 369 401C389 374 400 336 400 298ZM307 599L307 691L215 691L215 599Z"/>
<glyph unicode="&#x118;" horiz-adv-x="597" d="M404 -103C404 -155 449 -194 509 -194L519 -194C542 -193 552 -189 559 -187L559 -129C559 -129 546 -130 529 -130C498 -130 479 -117 479 -87C479 -46 517 -16 560 0L560 82L175 82L175 327L513 327L513 411L175 411L175 627L560 627L560 709L86 709L86 0L468 0C461 -3 404 -35 404 -103Z"/>
<glyph unicode="&#x119;" horiz-adv-x="523" d="M487 276C488 344 464 409 423 454C386 494 334 519 269 519C181 519 114 474 78 413C50 366 39 312 39 251C39 179 60 112 102 63C141 17 199 -13 270 -13C294 -13 318 -9 340 -2C315 -23 294 -53 294 -103C294 -159 341 -194 399 -194L409 -194C432 -193 442 -189 449 -187L449 -127C449 -127 436 -130 419 -130C388 -130 369 -119 369 -84C369 -34 403 17 431 53C455 80 472 114 477 150L394 150C387 123 378 109 364 95C343 73 310 62 270 62C231 62 200 75 177 98C146 129 128 179 128 225L486 225ZM400 298L130 298C132 372 177 447 269 447C314 447 348 429 369 401C389 374 400 336 400 298Z"/>
<glyph unicode="&#x11a;" horiz-adv-x="597" d="M560 0L560 82L175 82L175 327L513 327L513 411L175 411L175 627L560 627L560 709L86 709L86 0ZM482 867L434 918L326 821L220 918L172 867L297 754L354 754Z"/>
<glyph unicode="&#x11b;" horiz-adv-x="523" d="M487 276C488 344 464 409 423 454C386 494 334 519 269 519C181 519 114 474 78 413C50 366 39 312 39 251C39 179 60 112 102 63C141 17 199 -13 270 -13C318 -13 363 1 399 25C440 53 470 100 477 150L394 150C387 123 378 109 364 95C343 73 310 62 270 62C231 62 200 75 177 98C146 129 128 179 128 225L486 225ZM400 298L130 298C132 372 177 447 269 447C314 447 348 429 369 401C389 374 400 336 400 298ZM402 674L354 718L264 624L176 718L126 674L236 557L291 557Z"/>
<glyph unicode="&#x11c;" horiz-adv-x="652" d="M592 0L592 382L322 382L322 299L512 299C512 234 498 165 451 119C419 87 372 70 322 70C274 70 229 86 195 121C136 181 131 283 131 354C131 428 135 524 193 584C227 619 274 638 322 638C380 638 429 620 461 582C479 560 490 537 493 504L586 504C583 561 559 606 525 642C476 694 402 722 322 722C251 722 182 696 131 646C54 571 39 467 39 354C39 227 59 129 131 59C182 9 251 -14 322 -14C402 -14 480 27 515 85L530 0ZM351 915L294 915L169 802L215 754L323 852L433 754L479 802Z"/>
<glyph unicode="&#x11d;" horiz-adv-x="512" d="M511 -75C511 -33 495 0 471 24C431 65 364 77 304 77L204 77C172 77 128 83 128 127C128 151 152 166 171 172C203 161 222 158 256 158C323 158 374 182 407 218C435 249 453 291 453 339C453 384 441 417 420 444C425 472 449 490 482 490C489 490 496 490 501 489L501 558C493 559 484 560 476 560C428 560 389 534 372 489C341 508 304 519 256 519C189 519 141 498 106 462C77 432 58 394 58 339C58 291 79 241 116 208C78 190 49 155 49 110C49 71 74 38 108 25C68 5 36 -34 36 -87C36 -127 51 -156 72 -177C121 -226 197 -236 264 -236C335 -236 419 -225 468 -177C492 -153 511 -119 511 -75ZM370 339C370 275 324 226 255 226C183 226 140 275 140 339C140 403 186 450 255 450C327 450 370 403 370 339ZM428 -75C428 -97 420 -114 407 -127C375 -159 312 -163 269 -163C225 -163 167 -161 134 -128C121 -115 113 -98 113 -75C113 -36 143 -6 177 5L294 5C355 5 428 0 428 -75ZM282 712L227 712L117 595L167 551L255 645L345 551L393 595Z"/>
<glyph unicode="&#x11e;" horiz-adv-x="652" d="M592 0L592 382L322 382L322 299L512 299C512 234 498 165 451 119C419 87 372 70 322 70C274 70 229 86 195 121C136 181 131 283 131 354C131 428 135 524 193 584C227 619 274 638 322 638C380 638 429 620 461 582C479 560 490 537 493 504L586 504C583 561 559 606 525 642C476 694 402 722 322 722C251 722 182 696 131 646C54 571 39 467 39 354C39 227 59 129 131 59C182 9 251 -14 322 -14C402 -14 480 27 515 85L530 0ZM486 910L418 910C411 854 381 818 322 818C263 818 232 854 225 910L157 910C164 823 217 754 322 754C427 754 479 823 486 910Z"/>
<glyph unicode="&#x11f;" horiz-adv-x="512" d="M511 -75C511 -33 495 0 471 24C431 65 364 77 304 77L204 77C172 77 128 83 128 127C128 151 152 166 171 172C203 161 222 158 256 158C323 158 374 182 407 218C435 249 453 291 453 339C453 384 441 417 420 444C425 472 449 490 482 490C489 490 496 490 501 489L501 558C493 559 484 560 476 560C428 560 389 534 372 489C341 508 304 519 256 519C189 519 141 498 106 462C77 432 58 394 58 339C58 291 79 241 116 208C78 190 49 155 49 110C49 71 74 38 108 25C68 5 36 -34 36 -87C36 -127 51 -156 72 -177C121 -226 197 -236 264 -236C335 -236 419 -225 468 -177C492 -153 511 -119 511 -75ZM370 339C370 275 324 226 255 226C183 226 140 275 140 339C140 403 186 450 255 450C327 450 370 403 370 339ZM428 -75C428 -97 420 -114 407 -127C375 -159 312 -163 269 -163C225 -163 167 -161 134 -128C121 -115 113 -98 113 -75C113 -36 143 -6 177 5L294 5C355 5 428 0 428 -75ZM420 710L352 710C345 654 315 618 256 618C197 618 166 654 159 710L91 710C98 623 151 554 256 554C361 554 413 623 420 710Z"/>
<glyph unicode="&#x120;" horiz-adv-x="652" d="M592 0L592 382L322 382L322 299L512 299C512 234 498 165 451 119C419 87 372 70 322 70C274 70 229 86 195 121C136 181 131 283 131 354C131 428 135 524 193 584C227 619 274 638 322 638C380 638 429 620 461 582C479 560 490 537 493 504L586 504C583 561 559 606 525 642C476 694 402 722 322 722C251 722 182 696 131 646C54 571 39 467 39 354C39 227 59 129 131 59C182 9 251 -14 322 -14C402 -14 480 27 515 85L530 0ZM368 789L368 881L276 881L276 789Z"/>
<glyph unicode="&#x121;" horiz-adv-x="512" d="M511 -75C511 -33 495 0 471 24C431 65 364 77 304 77L204 77C172 77 128 83 128 127C128 151 152 166 171 172C203 161 222 158 256 158C323 158 374 182 407 218C435 249 453 291 453 339C453 384 441 417 420 444C425 472 449 490 482 490C489 490 496 490 501 489L501 558C493 559 484 560 476 560C428 560 389 534 372 489C341 508 304 519 256 519C189 519 141 498 106 462C77 432 58 394 58 339C58 291 79 241 116 208C78 190 49 155 49 110C49 71 74 38 108 25C68 5 36 -34 36 -87C36 -127 51 -156 72 -177C121 -226 197 -236 264 -236C335 -236 419 -225 468 -177C492 -153 511 -119 511 -75ZM370 339C370 275 324 226 255 226C183 226 140 275 140 339C140 403 186 450 255 450C327 450 370 403 370 339ZM428 -75C428 -97 420 -114 407 -127C375 -159 312 -163 269 -163C225 -163 167 -161 134 -128C121 -115 113 -98 113 -75C113 -36 143 -6 177 5L294 5C355 5 428 0 428 -75ZM302 599L302 691L210 691L210 599Z"/>
<glyph unicode="&#x122;" horiz-adv-x="652" d="M592 0L592 382L322 382L322 299L512 299C512 234 498 165 451 119C419 87 372 70 322 70C274 70 229 86 195 121C136 181 131 283 131 354C131 428 135 524 193 584C227 619 274 638 322 638C380 638 429 620 461 582C479 560 490 537 493 504L586 504C583 561 559 606 525 642C476 694 402 722 322 722C251 722 182 696 131 646C54 571 39 467 39 354C39 227 59 129 131 59C182 9 251 -14 322 -14C402 -14 480 27 515 85L530 0ZM369 -61L284 -61L284 -143L323 -143C323 -173 312 -184 285 -193L301 -223C350 -209 369 -180 369 -138Z"/>
<glyph unicode="&#x123;" horiz-adv-x="512" d="M511 -75C511 -33 495 0 471 24C431 65 364 77 304 77L204 77C172 77 128 83 128 127C128 151 152 166 171 172C203 161 222 158 256 158C323 158 374 182 407 218C435 249 453 291 453 339C453 384 441 417 420 444C425 472 449 490 482 490C489 490 496 490 501 489L501 558C493 559 484 560 476 560C428 560 389 534 372 489C341 508 304 519 256 519C189 519 141 498 106 462C77 432 58 394 58 339C58 291 79 241 116 208C78 190 49 155 49 110C49 71 74 38 108 25C68 5 36 -34 36 -87C36 -127 51 -156 72 -177C121 -226 197 -236 264 -236C335 -236 419 -225 468 -177C492 -153 511 -119 511 -75ZM370 339C370 275 324 226 255 226C183 226 140 275 140 339C140 403 186 450 255 450C327 450 370 403 370 339ZM428 -75C428 -97 420 -114 407 -127C375 -159 312 -163 269 -163C225 -163 167 -161 134 -128C121 -115 113 -98 113 -75C113 -36 143 -6 177 5L294 5C355 5 428 0 428 -75ZM214 557L299 557L299 639L260 639C260 669 271 680 298 689L282 719C233 705 214 676 214 634Z"/>
<glyph unicode="&#x124;" horiz-adv-x="690" d="M604 0L604 709L515 709L515 413L175 413L175 709L86 709L86 0L175 0L175 327L515 327L515 0ZM370 915L313 915L188 802L234 754L342 852L452 754L498 802Z"/>
<glyph unicode="&#x125;" horiz-adv-x="559" d="M488 0L488 333C488 450 427 519 312 519C255 519 194 491 164 439L164 722L79 722L79 0L164 0L164 235C164 274 165 327 182 364C204 410 243 442 292 442C372 442 403 397 403 321L403 0ZM166 886L111 886L1 769L51 725L139 819L229 725L277 769Z"/>
<glyph unicode="&#x126;" horiz-adv-x="690" d="M604 0L604 490L666 490L666 558L604 558L604 709L515 709L515 558L175 558L175 709L86 709L86 558L27 558L27 490L86 490L86 0L175 0L175 327L515 327L515 0ZM175 413L175 490L515 490L515 413Z"/>
<glyph unicode="&#x127;" horiz-adv-x="559" d="M488 0L488 333C488 450 427 519 312 519C255 519 194 491 164 439L164 568L327 568L327 631L164 631L164 722L79 722L79 631L21 631L21 568L79 568L79 0L164 0L164 235C164 274 165 327 182 364C204 410 243 442 292 442C372 442 403 397 403 321L403 0Z"/>
<glyph unicode="&#x12a;" horiz-adv-x="263" d="M177 0L177 709L86 709L86 0ZM270 774L270 842L-8 842L-8 774Z"/>
<glyph unicode="&#x12b;" horiz-adv-x="245" d="M166 0L166 506L80 506L80 0ZM262 588L262 656L-16 656L-16 588Z"/>
<glyph unicode="&#x12e;" horiz-adv-x="263" d="M22 -103C22 -155 67 -194 127 -194L137 -194C160 -193 170 -189 177 -187L177 -129C177 -129 164 -130 147 -130C116 -130 97 -117 97 -87C97 -46 135 -16 177 0L177 709L86 709L86 0C79 -3 22 -35 22 -103Z"/>
<glyph unicode="&#x12f;" horiz-adv-x="245" d="M11 -103C11 -155 56 -194 116 -194L126 -194C149 -193 159 -189 166 -187L166 -129C166 -129 153 -130 136 -130C105 -130 86 -117 86 -87C86 -46 124 -16 166 0L166 506L79 506L79 1C78 0 77 0 76 0C71 -2 11 -34 11 -103ZM172 622L172 722L73 722L73 622Z"/>
<glyph unicode="&#x130;" horiz-adv-x="263" d="M177 0L177 709L86 709L86 0ZM177 789L177 881L85 881L85 789Z"/>
<glyph unicode="&#x131;" horiz-adv-x="245" d="M166 0L166 506L80 506L80 0Z"/>
<glyph unicode="&#x134;" horiz-adv-x="465" d="M399 198L399 709L310 709L310 198C310 120 280 70 199 70C165 70 140 81 121 99C91 127 84 166 84 215L-6 215C-6 143 10 89 51 47C86 11 134 -13 199 -13C327 -13 399 71 399 198ZM338 915L281 915L156 802L202 754L310 852L420 754L466 802Z"/>
<glyph unicode="&#x135;" horiz-adv-x="255" d="M176 -71L176 506L91 506L91 -72C91 -106 72 -136 34 -136C13 -136 -8 -135 -29 -131L-29 -204C-4 -212 11 -214 37 -214C133 -214 176 -159 176 -71ZM154 712L99 712L-11 595L39 551L127 645L217 551L265 595Z"/>
<glyph unicode="&#x136;" horiz-adv-x="634" d="M635 0L380 439L611 709L500 709L175 331L175 709L86 709L86 0L175 0L175 200L319 368L531 0ZM380 -61L295 -61L295 -143L334 -143C334 -173 323 -184 296 -193L312 -223C361 -209 380 -180 380 -138Z"/>
<glyph unicode="&#x137;" horiz-adv-x="517" d="M515 0L316 306L496 506L393 506L164 251L164 722L79 722L79 0L164 0L164 136L261 244L419 0ZM322 -61L237 -61L237 -143L276 -143C276 -173 265 -184 238 -193L254 -223C303 -209 322 -180 322 -138Z"/>
<glyph unicode="&#x139;" horiz-adv-x="516" d="M516 0L516 83L175 83L175 709L86 709L86 0ZM301 853L256 924L86 801L116 754Z"/>
<glyph unicode="&#x13a;" horiz-adv-x="263" d="M242 0L242 72C242 72 235 71 207 71C172 71 161 89 161 123L161 722L76 722L76 118C76 38 108 -6 182 -6C223 -6 242 0 242 0ZM279 853L234 924L64 801L94 754Z"/>
<glyph unicode="&#x13b;" horiz-adv-x="516" d="M516 0L516 83L175 83L175 709L86 709L86 0ZM341 -61L256 -61L256 -143L295 -143C295 -173 284 -184 257 -193L273 -223C322 -209 341 -180 341 -138Z"/>
<glyph unicode="&#x13c;" horiz-adv-x="263" d="M242 0L242 72C242 72 235 71 207 71C172 71 161 89 161 123L161 722L76 722L76 118C76 38 108 -6 182 -6C223 -6 242 0 242 0ZM174 -61L89 -61L89 -143L128 -143C128 -173 117 -184 90 -193L106 -223C155 -209 174 -180 174 -138Z"/>
<glyph unicode="&#x13d;" horiz-adv-x="516" d="M516 0L516 83L175 83L175 709L86 709L86 0ZM313 772L236 772L236 681L269 681L269 675C269 651 265 634 234 618L249 585C305 611 313 651 313 687Z"/>
<glyph unicode="&#x13e;" horiz-adv-x="263" d="M242 0L242 72C242 72 235 71 207 71C172 71 161 89 161 123L161 722L76 722L76 118C76 38 108 -6 182 -6C223 -6 242 0 242 0ZM268 722L191 722L191 631L224 631L224 625C224 601 220 584 189 568L204 535C260 561 268 601 268 637Z"/>
<glyph unicode="&#x141;" horiz-adv-x="537" d="M537 0L537 83L196 83L196 351L356 450L323 503L196 424L196 709L107 709L107 369L9 308L42 256L107 296L107 0Z"/>
<glyph unicode="&#x142;" horiz-adv-x="305" d="M294 466L261 519L181 469L181 722L96 722L96 416L6 360L39 308L96 343L96 118C96 38 128 -6 202 -6C243 -6 262 0 262 0L262 72C262 72 255 71 227 71C192 71 181 89 181 123L181 396Z"/>
<glyph unicode="&#x143;" horiz-adv-x="706" d="M620 0L620 709L534 709L534 137L186 709L86 709L86 0L172 0L172 570L520 0ZM500 853L455 924L285 801L315 754Z"/>
<glyph unicode="&#x144;" horiz-adv-x="557" d="M488 0L488 333C488 450 428 519 313 519C256 519 186 488 160 430L153 506L79 506L79 0L164 0L164 235C164 274 165 327 182 364C204 410 243 442 292 442C372 442 403 397 403 321L403 0ZM426 650L381 721L211 598L241 551Z"/>
<glyph unicode="&#x145;" horiz-adv-x="706" d="M620 0L620 709L534 709L534 137L186 709L86 709L86 0L172 0L172 570L520 0ZM406 -61L321 -61L321 -143L360 -143C360 -173 349 -184 322 -193L338 -223C387 -209 406 -180 406 -138Z"/>
<glyph unicode="&#x146;" horiz-adv-x="557" d="M488 0L488 333C488 450 428 519 313 519C256 519 186 488 160 430L153 506L79 506L79 0L164 0L164 235C164 274 165 327 182 364C204 410 243 442 292 442C372 442 403 397 403 321L403 0ZM331 -61L246 -61L246 -143L285 -143C285 -173 274 -184 247 -193L263 -223C312 -209 331 -180 331 -138Z"/>
<glyph unicode="&#x147;" horiz-adv-x="706" d="M620 0L620 709L534 709L534 137L186 709L86 709L86 0L172 0L172 570L520 0ZM516 867L468 918L360 821L254 918L206 867L331 754L388 754Z"/>
<glyph unicode="&#x148;" horiz-adv-x="557" d="M488 0L488 333C488 450 428 519 313 519C256 519 186 488 160 430L153 506L79 506L79 0L164 0L164 235C164 274 165 327 182 364C204 410 243 442 292 442C372 442 403 397 403 321L403 0ZM429 674L381 718L291 624L203 718L153 674L263 557L318 557Z"/>
<glyph unicode="&#x14c;" horiz-adv-x="642" d="M603 354C603 467 589 571 512 646C461 696 392 722 321 722C250 722 181 696 130 646C53 571 39 467 39 354C39 241 53 137 130 62C181 12 250 -14 321 -14C392 -14 461 12 512 62C589 137 603 241 603 354ZM511 354C511 280 508 184 450 124C416 89 369 71 321 71C273 71 226 89 192 124C134 184 131 280 131 354C131 428 134 524 192 584C226 619 273 637 321 637C369 637 416 619 450 584C508 524 511 428 511 354ZM460 774L460 842L182 842L182 774Z"/>
<glyph unicode="&#x14d;" horiz-adv-x="530" d="M490 253C490 333 473 406 418 460C381 496 329 519 265 519C201 519 149 496 112 460C57 406 40 333 40 253C40 173 57 100 112 46C149 10 201 -13 265 -13C329 -13 381 10 418 46C473 100 490 173 490 253ZM403 253C403 194 392 133 356 96C335 75 305 60 265 60C225 60 195 75 174 96C138 133 127 194 127 253C127 312 138 373 174 410C195 431 225 446 265 446C305 446 335 431 356 410C392 373 403 312 403 253ZM404 588L404 656L126 656L126 588Z"/>
<glyph unicode="&#x150;" horiz-adv-x="642" d="M603 354C603 467 589 571 512 646C461 696 392 722 321 722C250 722 181 696 130 646C53 571 39 467 39 354C39 241 53 137 130 62C181 12 250 -14 321 -14C392 -14 461 12 512 62C589 137 603 241 603 354ZM511 354C511 280 508 184 450 124C416 89 369 71 321 71C273 71 226 89 192 124C134 184 131 280 131 354C131 428 134 524 192 584C226 619 273 637 321 637C369 637 416 619 450 584C508 524 511 428 511 354ZM577 858L530 930L358 801L390 754ZM384 858L337 930L165 801L197 754Z"/>
<glyph unicode="&#x151;" horiz-adv-x="530" d="M490 253C490 333 473 406 418 460C381 496 329 519 265 519C201 519 149 496 112 460C57 406 40 333 40 253C40 173 57 100 112 46C149 10 201 -13 265 -13C329 -13 381 10 418 46C473 100 490 173 490 253ZM403 253C403 194 392 133 356 96C335 75 305 60 265 60C225 60 195 75 174 96C138 133 127 194 127 253C127 312 138 373 174 410C195 431 225 446 265 446C305 446 335 431 356 410C392 373 403 312 403 253ZM511 657L464 729L292 600L324 553ZM318 657L271 729L99 600L131 553Z"/>
<glyph unicode="&#x152;" horiz-adv-x="955" d="M918 0L918 83L580 83L580 336L869 336L869 420L580 420L580 626L918 626L918 709L498 709L498 642C461 689 396 723 311 723C224 723 171 695 122 645C50 571 39 468 39 355C39 242 50 138 122 64C171 14 224 -13 311 -13C396 -13 459 16 498 65L498 0ZM493 355C493 264 487 167 432 112C405 85 367 67 311 67C251 67 212 88 185 119C136 175 129 268 129 355C129 446 137 543 194 598C221 623 258 642 311 642C372 642 412 620 439 589C487 533 493 441 493 355Z"/>
<glyph unicode="&#x153;" horiz-adv-x="861" d="M825 229L825 256C825 329 816 380 785 427C749 482 696 519 610 519C532 519 470 485 438 433L433 425C425 438 418 448 409 457C373 494 322 519 258 519C194 519 143 495 107 458C53 403 40 331 40 251C40 171 54 100 108 45C144 8 194 -16 258 -16C322 -16 373 7 409 44C418 53 426 65 435 79C471 18 536 -15 614 -15C673 -15 714 -1 751 30C789 62 810 98 817 148L732 148C719 85 662 57 613 57C554 57 516 86 496 125C479 158 476 195 476 229ZM738 296L477 296C478 379 524 449 609 449C652 449 682 431 702 408C726 380 737 342 738 296ZM393 251C393 194 384 138 355 100C335 74 306 55 258 55C217 55 190 70 170 92C135 130 125 191 125 251C125 314 135 380 176 417C196 435 221 448 258 448C299 448 326 433 346 413C383 375 393 313 393 251Z"/>
<glyph unicode="&#x154;" horiz-adv-x="634" d="M603 0L461 312C495 323 525 340 546 362C580 398 600 440 600 502C600 564 578 610 544 646C505 686 447 709 364 709L86 709L86 0L175 0L175 295L371 295L505 0ZM508 502C508 412 448 378 364 378L175 378L175 627L364 627C448 627 508 592 508 502ZM444 853L399 924L229 801L259 754Z"/>
<glyph unicode="&#x155;" horiz-adv-x="356" d="M352 423L352 506C339 508 325 509 312 509C248 509 187 479 161 417L154 506L79 506L79 0L163 0L163 225C163 278 168 348 209 387C232 409 265 427 305 427C320 427 337 426 352 423ZM374 650L329 721L159 598L189 551Z"/>
<glyph unicode="&#x156;" horiz-adv-x="634" d="M603 0L461 312C495 323 525 340 546 362C580 398 600 440 600 502C600 564 578 610 544 646C505 686 447 709 364 709L86 709L86 0L175 0L175 295L371 295L505 0ZM508 502C508 412 448 378 364 378L175 378L175 627L364 627C448 627 508 592 508 502ZM375 -61L290 -61L290 -143L329 -143C329 -173 318 -184 291 -193L307 -223C356 -209 375 -180 375 -138Z"/>
<glyph unicode="&#x157;" horiz-adv-x="356" d="M352 423L352 506C339 508 325 509 312 509C248 509 187 479 161 417L154 506L79 506L79 0L163 0L163 225C163 278 168 348 209 387C232 409 265 427 305 427C320 427 337 426 352 423ZM164 -61L79 -61L79 -143L118 -143C118 -173 107 -184 80 -193L96 -223C145 -209 164 -180 164 -138Z"/>
<glyph unicode="&#x158;" horiz-adv-x="634" d="M603 0L461 312C495 323 525 340 546 362C580 398 600 440 600 502C600 564 578 610 544 646C505 686 447 709 364 709L86 709L86 0L175 0L175 295L371 295L505 0ZM508 502C508 412 448 378 364 378L175 378L175 627L364 627C448 627 508 592 508 502ZM473 867L425 918L317 821L211 918L163 867L288 754L345 754Z"/>
<glyph unicode="&#x159;" horiz-adv-x="356" d="M352 423L352 506C339 508 325 509 312 509C248 509 187 479 161 417L154 506L79 506L79 0L163 0L163 225C163 278 168 348 209 387C232 409 265 427 305 427C320 427 337 426 352 423ZM356 674L308 718L218 624L130 718L80 674L190 557L245 557Z"/>
<glyph unicode="&#x15a;" horiz-adv-x="607" d="M571 195C571 307 492 379 374 396C335 402 296 409 256 414C203 421 150 450 150 514C150 546 161 570 179 591C210 626 254 640 305 640C360 640 403 622 430 591C450 568 463 537 465 502L558 502C556 562 533 613 490 654C443 699 375 722 306 722C232 722 169 698 120 652C82 616 58 565 58 512C58 399 141 340 247 324L359 307C443 294 478 248 478 193C478 155 464 130 442 110C410 80 364 69 310 69C260 69 206 82 174 113C145 141 124 183 124 225L31 225C31 158 62 97 107 55C155 11 224 -13 310 -13C386 -13 462 10 511 58C546 92 571 136 571 195ZM441 853L396 924L226 801L256 754Z"/>
<glyph unicode="&#x15b;" horiz-adv-x="493" d="M454 147C454 223 397 275 325 287C271 296 231 300 203 304C161 310 135 328 135 370C135 398 154 425 186 438C210 448 225 448 245 448C279 448 307 440 328 421C343 408 356 384 357 358L442 358C442 399 428 428 406 455C372 498 312 519 245 519C182 519 129 497 96 463C73 440 54 403 54 364C54 287 102 240 178 228L292 213C344 206 371 179 371 141C371 118 360 97 346 86C320 64 288 58 253 58C221 58 185 64 162 81C138 99 122 125 121 160L36 160C36 117 54 74 85 44C128 2 186 -13 249 -13C315 -13 375 4 414 44C438 69 454 103 454 147ZM394 650L349 721L179 598L209 551Z"/>
<glyph unicode="&#x15c;" horiz-adv-x="607" d="M571 195C571 307 492 379 374 396C335 402 296 409 256 414C203 421 150 450 150 514C150 546 161 570 179 591C210 626 254 640 305 640C360 640 403 622 430 591C450 568 463 537 465 502L558 502C556 562 533 613 490 654C443 699 375 722 306 722C232 722 169 698 120 652C82 616 58 565 58 512C58 399 141 340 247 324L359 307C443 294 478 248 478 193C478 155 464 130 442 110C410 80 364 69 310 69C260 69 206 82 174 113C145 141 124 183 124 225L31 225C31 158 62 97 107 55C155 11 224 -13 310 -13C386 -13 462 10 511 58C546 92 571 136 571 195ZM330 915L273 915L148 802L194 754L302 852L412 754L458 802Z"/>
<glyph unicode="&#x15d;" horiz-adv-x="493" d="M454 147C454 223 397 275 325 287C271 296 231 300 203 304C161 310 135 328 135 370C135 398 154 425 186 438C210 448 225 448 245 448C279 448 307 440 328 421C343 408 356 384 357 358L442 358C442 399 428 428 406 455C372 498 312 519 245 519C182 519 129 497 96 463C73 440 54 403 54 364C54 287 102 240 178 228L292 213C344 206 371 179 371 141C371 118 360 97 346 86C320 64 288 58 253 58C221 58 185 64 162 81C138 99 122 125 121 160L36 160C36 117 54 74 85 44C128 2 186 -13 249 -13C315 -13 375 4 414 44C438 69 454 103 454 147ZM277 712L222 712L112 595L162 551L250 645L340 551L388 595Z"/>
<glyph unicode="&#x15e;" horiz-adv-x="607" d="M571 195C571 307 492 379 374 396C335 402 296 409 256 414C203 421 150 450 150 514C150 546 161 570 179 591C210 626 254 640 305 640C360 640 403 622 430 591C450 568 463 537 465 502L558 502C556 562 533 613 490 654C443 699 375 722 306 722C232 722 169 698 120 652C82 616 58 565 58 512C58 399 141 340 247 324L359 307C443 294 478 248 478 193C478 155 464 130 442 110C410 80 364 69 310 69C260 69 206 82 174 113C145 141 124 183 124 225L31 225C31 158 62 97 107 55C155 11 224 -13 310 -13C386 -13 462 10 511 58C546 92 571 136 571 195ZM362 -62L284 -62L205 -197L293 -238Z"/>
<glyph unicode="&#x15f;" horiz-adv-x="493" d="M454 147C454 223 397 275 325 287C271 296 231 300 203 304C161 310 135 328 135 370C135 398 154 425 186 438C210 448 225 448 245 448C279 448 307 440 328 421C343 408 356 384 357 358L442 358C442 399 428 428 406 455C372 498 312 519 245 519C182 519 129 497 96 463C73 440 54 403 54 364C54 287 102 240 178 228L292 213C344 206 371 179 371 141C371 118 360 97 346 86C320 64 288 58 253 58C221 58 185 64 162 81C138 99 122 125 121 160L36 160C36 117 54 74 85 44C128 2 186 -13 249 -13C315 -13 375 4 414 44C438 69 454 103 454 147ZM305 -62L227 -62L148 -197L236 -238Z"/>
<glyph unicode="&#x160;" horiz-adv-x="607" d="M571 195C571 307 492 379 374 396C335 402 296 409 256 414C203 421 150 450 150 514C150 546 161 570 179 591C210 626 254 640 305 640C360 640 403 622 430 591C450 568 463 537 465 502L558 502C556 562 533 613 490 654C443 699 375 722 306 722C232 722 169 698 120 652C82 616 58 565 58 512C58 399 141 340 247 324L359 307C443 294 478 248 478 193C478 155 464 130 442 110C410 80 364 69 310 69C260 69 206 82 174 113C145 141 124 183 124 225L31 225C31 158 62 97 107 55C155 11 224 -13 310 -13C386 -13 462 10 511 58C546 92 571 136 571 195ZM462 867L414 918L306 821L200 918L152 867L277 754L334 754Z"/>
<glyph unicode="&#x161;" horiz-adv-x="493" d="M454 147C454 223 397 275 325 287C271 296 231 300 203 304C161 310 135 328 135 370C135 398 154 425 186 438C210 448 225 448 245 448C279 448 307 440 328 421C343 408 356 384 357 358L442 358C442 399 428 428 406 455C372 498 312 519 245 519C182 519 129 497 96 463C73 440 54 403 54 364C54 287 102 240 178 228L292 213C344 206 371 179 371 141C371 118 360 97 346 86C320 64 288 58 253 58C221 58 185 64 162 81C138 99 122 125 121 160L36 160C36 117 54 74 85 44C128 2 186 -13 249 -13C315 -13 375 4 414 44C438 69 454 103 454 147ZM387 674L339 718L249 624L161 718L111 674L221 557L276 557Z"/>
<glyph unicode="&#x162;" horiz-adv-x="510" d="M511 626L511 709L-1 709L-1 626L210 626L210 0L300 0L300 626ZM298 -61L213 -61L213 -143L252 -143C252 -173 241 -184 214 -193L230 -223C279 -209 298 -180 298 -138Z"/>
<glyph unicode="&#x163;" horiz-adv-x="357" d="M341 7L341 80C341 80 290 71 254 71C207 71 186 91 186 140L186 433L336 433L336 506L186 506L186 655L101 635L101 506L3 506L3 433L101 433L101 130C101 62 131 -7 240 -7C287 -7 318 1 341 7ZM221 -61L136 -61L136 -143L175 -143C175 -173 164 -184 137 -193L153 -223C202 -209 221 -180 221 -138Z"/>
<glyph unicode="&#x164;" horiz-adv-x="510" d="M511 626L511 709L-1 709L-1 626L210 626L210 0L300 0L300 626ZM408 867L360 918L252 821L146 918L98 867L223 754L280 754Z"/>
<glyph unicode="&#x165;" horiz-adv-x="357" d="M341 7L341 80C341 80 290 71 254 71C207 71 186 91 186 140L186 433L336 433L336 506L186 506L186 655L101 635L101 506L3 506L3 433L101 433L101 130C101 62 131 -7 240 -7C287 -7 318 1 341 7ZM326 752L249 752L249 661L282 661L282 655C282 631 278 614 247 598L262 565C318 591 326 631 326 667Z"/>
<glyph unicode="&#x16a;" horiz-adv-x="650" d="M584 260L584 709L495 709L495 258C495 145 448 70 325 70C202 70 155 145 155 258L155 709L66 709L66 260C66 83 166 -13 325 -13C484 -13 584 83 584 260ZM464 774L464 842L186 842L186 774Z"/>
<glyph unicode="&#x16b;" horiz-adv-x="554" d="M475 0L475 506L390 506L390 243C390 191 380 136 348 103C326 80 298 65 264 65C184 65 156 110 156 186L156 506L71 506L71 174C71 57 129 -12 244 -12C303 -12 368 19 394 77L401 0ZM416 588L416 656L138 656L138 588Z"/>
<glyph unicode="&#x16c;" horiz-adv-x="650" d="M584 260L584 709L495 709L495 258C495 145 448 70 325 70C202 70 155 145 155 258L155 709L66 709L66 260C66 83 166 -13 325 -13C484 -13 584 83 584 260ZM489 910L421 910C414 854 384 818 325 818C266 818 235 854 228 910L160 910C167 823 220 754 325 754C430 754 482 823 489 910Z"/>
<glyph unicode="&#x16d;" horiz-adv-x="554" d="M475 0L475 506L390 506L390 243C390 191 380 136 348 103C326 80 298 65 264 65C184 65 156 110 156 186L156 506L71 506L71 174C71 57 129 -12 244 -12C303 -12 368 19 394 77L401 0ZM444 710L376 710C369 654 339 618 280 618C221 618 190 654 183 710L115 710C122 623 175 554 280 554C385 554 437 623 444 710Z"/>
<glyph unicode="&#x16e;" horiz-adv-x="650" d="M584 260L584 709L495 709L495 258C495 145 448 70 325 70C202 70 155 145 155 258L155 709L66 709L66 260C66 83 166 -13 325 -13C484 -13 584 83 584 260ZM435 809C435 864 394 916 325 916C256 916 215 864 215 809C215 754 256 702 325 702C394 702 435 754 435 809ZM379 809C379 779 358 754 325 754C292 754 270 779 270 809C270 839 292 865 325 865C358 865 379 839 379 809Z"/>
<glyph unicode="&#x16f;" horiz-adv-x="554" d="M475 0L475 506L390 506L390 243C390 191 380 136 348 103C326 80 298 65 264 65C184 65 156 110 156 186L156 506L71 506L71 174C71 57 129 -12 244 -12C303 -12 368 19 394 77L401 0ZM387 670C387 725 346 777 277 777C208 777 167 725 167 670C167 615 208 563 277 563C346 563 387 615 387 670ZM331 670C331 640 310 615 277 615C244 615 222 640 222 670C222 700 244 726 277 726C310 726 331 700 331 670Z"/>
<glyph unicode="&#x170;" horiz-adv-x="650" d="M584 260L584 709L495 709L495 258C495 145 448 70 325 70C202 70 155 145 155 258L155 709L66 709L66 260C66 83 166 -13 325 -13C484 -13 584 83 584 260ZM581 858L534 930L362 801L394 754ZM388 858L341 930L169 801L201 754Z"/>
<glyph unicode="&#x171;" horiz-adv-x="554" d="M475 0L475 506L390 506L390 243C390 191 380 136 348 103C326 80 298 65 264 65C184 65 156 110 156 186L156 506L71 506L71 174C71 57 129 -12 244 -12C303 -12 368 19 394 77L401 0ZM513 657L466 729L294 600L326 553ZM320 657L273 729L101 600L133 553Z"/>
<glyph unicode="&#x172;" horiz-adv-x="650" d="M584 260L584 709L495 709L495 258C495 145 448 70 325 70C202 70 155 145 155 258L155 709L66 709L66 260C66 83 166 -13 325 -13C363 -13 398 -7 429 4C401 -16 375 -48 375 -103C375 -159 422 -194 480 -194L490 -194C513 -193 523 -189 530 -187L530 -127C530 -127 517 -130 500 -130C469 -130 450 -119 450 -84C450 -27 495 32 524 68C562 113 584 178 584 260Z"/>
<glyph unicode="&#x173;" horiz-adv-x="554" d="M320 -103C320 -155 365 -194 425 -194L435 -194C458 -193 468 -189 475 -187L475 -129C475 -129 462 -130 445 -130C414 -130 395 -117 395 -87C395 -46 433 -16 475 0L475 506L390 506L390 243C390 191 380 136 348 103C326 80 298 65 264 65C184 65 156 110 156 186L156 506L71 506L71 174C71 57 129 -12 244 -12C303 -12 368 19 394 77L400 6C395 3 389 2 385 0C380 -2 320 -34 320 -103Z"/>
<glyph unicode="&#x174;" horiz-adv-x="834" d="M816 709L735 709L622 132L458 699L378 699L214 131L101 709L18 709L160 0L254 0L418 571L580 0L675 0ZM451 915L394 915L269 802L315 754L423 852L533 754L579 802Z"/>
<glyph unicode="&#x175;" horiz-adv-x="739" d="M715 506L632 506L534 124L407 500L334 500L205 124L108 506L24 506L154 0L235 0L370 387L502 0L584 0ZM396 712L341 712L231 595L281 551L369 645L459 551L507 595Z"/>
<glyph unicode="&#x176;" horiz-adv-x="538" d="M552 709L457 709L272 372L86 709L-14 709L224 288L224 0L314 0L314 288ZM300 915L243 915L118 802L164 754L272 852L382 754L428 802Z"/>
<glyph unicode="&#x177;" horiz-adv-x="470" d="M474 506L385 506L243 107L94 506L-2 506L200 0L168 -85C154 -123 128 -136 92 -136C59 -136 32 -128 32 -128L32 -202C39 -204 67 -212 109 -212C185 -212 222 -169 246 -104ZM272 712L217 712L107 595L157 551L245 645L335 551L383 595Z"/>
<glyph unicode="&#x178;" horiz-adv-x="538" d="M552 709L457 709L272 372L86 709L-14 709L224 288L224 0L314 0L314 288ZM405 778L405 870L313 870L313 778ZM229 778L229 870L137 870L137 778Z"/>
<glyph unicode="&#x179;" horiz-adv-x="584" d="M552 0L552 83L134 83L548 619L548 709L33 709L33 626L442 626L29 89L29 0ZM413 853L368 924L198 801L228 754Z"/>
<glyph unicode="&#x17a;" horiz-adv-x="473" d="M439 0L439 74L143 74L436 431L436 506L39 506L39 432L333 432L39 75L39 0ZM364 650L319 721L149 598L179 551Z"/>
<glyph unicode="&#x17b;" horiz-adv-x="584" d="M552 0L552 83L134 83L548 619L548 709L33 709L33 626L442 626L29 89L29 0ZM340 789L340 881L248 881L248 789Z"/>
<glyph unicode="&#x17c;" horiz-adv-x="473" d="M439 0L439 74L143 74L436 431L436 506L39 506L39 432L333 432L39 75L39 0ZM289 599L289 691L197 691L197 599Z"/>
<glyph unicode="&#x17d;" horiz-adv-x="584" d="M552 0L552 83L134 83L548 619L548 709L33 709L33 626L442 626L29 89L29 0ZM446 867L398 918L290 821L184 918L136 867L261 754L318 754Z"/>
<glyph unicode="&#x17e;" horiz-adv-x="473" d="M439 0L439 74L143 74L436 431L436 506L39 506L39 432L333 432L39 75L39 0ZM102 670L214 552L264 552L376 670L336 710L240 607L142 710Z"/>
<glyph unicode="&#x192;" horiz-adv-x="542" d="M506 635L506 710C488 714 469 718 431 718C362 718 300 666 283 580L255 437L138 437L138 362L240 362L178 51C164 -20 126 -38 93 -38C60 -38 42 -33 35 -32L35 -107C53 -111 72 -115 110 -115C179 -115 241 -63 258 23L325 362L481 362L481 437L340 437L363 552C377 623 415 641 448 641C481 641 499 636 506 635Z"/>
<glyph unicode="&#x218;" horiz-adv-x="607" d="M571 195C571 307 492 379 374 396C335 402 296 409 256 414C203 421 150 450 150 514C150 546 161 570 179 591C210 626 254 640 305 640C360 640 403 622 430 591C450 568 463 537 465 502L558 502C556 562 533 613 490 654C443 699 375 722 306 722C232 722 169 698 120 652C82 616 58 565 58 512C58 399 141 340 247 324L359 307C443 294 478 248 478 193C478 155 464 130 442 110C410 80 364 69 310 69C260 69 206 82 174 113C145 141 124 183 124 225L31 225C31 158 62 97 107 55C155 11 224 -13 310 -13C386 -13 462 10 511 58C546 92 571 136 571 195ZM353 -61L268 -61L268 -143L307 -143C307 -173 296 -184 269 -193L285 -223C334 -209 353 -180 353 -138Z"/>
<glyph unicode="&#x219;" horiz-adv-x="493" d="M454 147C454 223 397 275 325 287C271 296 231 300 203 304C161 310 135 328 135 370C135 398 154 425 186 438C210 448 225 448 245 448C279 448 307 440 328 421C343 408 356 384 357 358L442 358C442 399 428 428 406 455C372 498 312 519 245 519C182 519 129 497 96 463C73 440 54 403 54 364C54 287 102 240 178 228L292 213C344 206 371 179 371 141C371 118 360 97 346 86C320 64 288 58 253 58C221 58 185 64 162 81C138 99 122 125 121 160L36 160C36 117 54 74 85 44C128 2 186 -13 249 -13C315 -13 375 4 414 44C438 69 454 103 454 147ZM289 -61L204 -61L204 -143L243 -143C243 -173 232 -184 205 -193L221 -223C270 -209 289 -180 289 -138Z"/>
<glyph unicode="&#x21a;" horiz-adv-x="510" d="M511 626L511 709L-1 709L-1 626L210 626L210 0L300 0L300 626ZM298 -61L213 -61L213 -143L252 -143C252 -173 241 -184 214 -193L230 -223C279 -209 298 -180 298 -138Z"/>
<glyph unicode="&#x21b;" horiz-adv-x="357" d="M341 7L341 80C341 80 290 71 254 71C207 71 186 91 186 140L186 433L336 433L336 506L186 506L186 655L101 635L101 506L3 506L3 433L101 433L101 130C101 62 131 -7 240 -7C287 -7 318 1 341 7ZM221 -61L136 -61L136 -143L175 -143C175 -173 164 -184 137 -193L153 -223C202 -209 221 -180 221 -138Z"/>
<glyph unicode="&#x2c6;" horiz-adv-x="327" d="M190 712L135 712L25 595L75 551L163 645L253 551L301 595Z"/>
<glyph unicode="&#x2c7;" horiz-adv-x="340" d="M311 674L263 718L173 624L85 718L35 674L145 557L200 557Z"/>
<glyph unicode="&#x2c9;" horiz-adv-x="268" d="M273 588L273 656L-5 656L-5 588Z"/>
<glyph unicode="&#x2d8;" horiz-adv-x="324" d="M324 710L256 710C249 654 219 618 160 618C101 618 70 654 63 710L-5 710C2 623 55 554 160 554C265 554 317 623 324 710Z"/>
<glyph unicode="&#x2d9;" horiz-adv-x="247" d="M169 599L169 691L77 691L77 599Z"/>
<glyph unicode="&#x2da;" horiz-adv-x="192" d="M206 670C206 725 165 777 96 777C27 777 -14 725 -14 670C-14 615 27 563 96 563C165 563 206 615 206 670ZM150 670C150 640 129 615 96 615C63 615 41 640 41 670C41 700 63 726 96 726C129 726 150 700 150 670Z"/>
<glyph unicode="&#x2db;" horiz-adv-x="146" d="M30 -103C30 -155 75 -194 135 -194L145 -194C168 -193 178 -189 185 -187L185 -129C185 -129 172 -130 155 -130C124 -130 105 -117 105 -87C105 -46 143 -16 185 0L155 29C97 17 30 -26 30 -103Z"/>
<glyph unicode="&#x2dc;" horiz-adv-x="332" d="M332 647L295 689C280 672 258 659 232 659C209 659 190 670 170 681C150 692 129 703 101 703C55 703 25 678 -1 649L38 607C56 625 73 635 100 635C122 635 141 624 159 614C179 603 201 593 231 593C278 593 310 619 332 647Z"/>
<glyph unicode="&#x2dd;" horiz-adv-x="431" d="M436 657L389 729L217 600L249 553ZM243 657L196 729L24 600L56 553Z"/>
<glyph unicode="&#x394;" horiz-adv-x="593" d="M599 0L348 709L244 709L-6 0ZM479 84L112 84L294 620Z"/>
<glyph unicode="&#x3a9;" horiz-adv-x="560" d="M525 364C525 417 486 457 432 457L369 457L369 519C369 573 330 613 276 613C222 613 183 573 183 519L183 448C167 459 148 465 128 465C74 465 35 425 35 371L35 123L284 123C338 123 377 162 377 216C377 235 371 255 360 270L432 270C486 270 525 310 525 364ZM508 364C508 319 477 287 432 287L200 287L200 519C200 564 231 596 276 596C321 596 353 564 353 519L353 440L432 440C477 440 508 409 508 364Z"/>
<glyph unicode="&#x3bc;" horiz-adv-x="562" d="M483 0L483 506L398 506L398 243C398 191 388 136 356 103C334 80 306 65 272 65C192 65 164 110 164 186L164 506L79 506L79 -200L164 -200L164 14C182 0 218 -12 252 -12C311 -12 376 19 402 77L409 0Z"/>
<glyph unicode="&#x3c0;" horiz-adv-x="612" d="M556 4L556 71C551 69 539 66 511 66C474 66 465 92 465 128L465 438L542 438L542 506L51 506L51 438L129 438L129 -1L213 -1L213 438L380 438L380 118C380 55 408 -7 489 -7C530 -7 551 2 556 4Z"/>
</font>
</defs>
</svg>
